{
.appVersion = "3260";
.formatVersion = 3;
customParameters = (
{
name = "Use Typo Metrics";
value = 1;
},
{
name = fsType;
value = (
);
}
);
date = "2024-12-12 12:32:05 +0000";
familyName = Tagesschrift;
featurePrefixes = (
{
automatic = 1;
code = "languagesystem DFLT dflt;

languagesystem latn dflt;
languagesystem latn AZE;
languagesystem latn CRT;
languagesystem latn KAZ;
languagesystem latn TAT;
languagesystem latn TRK;
languagesystem latn ROM;
languagesystem latn MOL;
languagesystem latn CAT;
";
name = Languagesystems;
}
);
features = (
{
automatic = 1;
code = "feature locl;
feature ordn;
feature case;
";
tag = aalt;
},
{
automatic = 1;
code = "lookup ccmp_Other_1 {
	@CombiningTopAccents = [acutecomb brevecomb caroncomb circumflexcomb dieresiscomb dotaccentcomb gravecomb hungarumlautcomb macroncomb ringcomb tildecomb];
	lookupflag UseMarkFilteringSet @CombiningTopAccents;
	sub j' @CombiningTopAccents by jdotless;
} ccmp_Other_1;
";
tag = ccmp;
},
{
automatic = 1;
code = "script latn;
language AZE;
lookup locl_latn_0 {
	sub i by idotaccent;
} locl_latn_0;
language CRT;
lookup locl_latn_0;
language KAZ;
lookup locl_latn_0;
language TAT;
lookup locl_latn_0;
language TRK;
lookup locl_latn_0;

script latn;
language ROM;
lookup locl_latn_1 {
	sub Scedilla by Scommaaccent;
	sub scedilla by scommaaccent;
} locl_latn_1;
language MOL;
lookup locl_latn_1;

script latn;
language CAT;
lookup locl_latn_2 {
	sub l periodcentered' l by periodcentered.loclCAT;
	sub L periodcentered' L by periodcentered.loclCAT.case;
} locl_latn_2;
";
tag = locl;
},
{
automatic = 1;
code = "sub [zero one two three four five six seven eight nine] [A a]' by ordfeminine;
sub [zero one two three four five six seven eight nine] [O o]' by ordmasculine;
";
tag = ordn;
},
{
automatic = 1;
code = "sub periodcentered.loclCAT by periodcentered.loclCAT.case;
";
tag = case;
},
{
automatic = 1;
code = "lookupflag IgnoreMarks;
sub f f by f_f;
sub f i by f_i;
sub f l by f_l;
";
tag = liga;
}
);
fontMaster = (

glyphs = (
{
glyphname = A;
kernLeft = _A;
kernRight = _A;
lastChange = "2024-12-12 14:07:33 +0000";
layers = (
{
associatedMasterId = "764A1405-E697-4ABB-AAB9-F13AB1C32CC8";
layerId = "A7A88DC0-E7F2-46E2-8498-516E259ED036";
name = img;
width = 758;
},
{
anchors = (
{
name = bottom;
pos = (369,0);
},
{
name = ogonek;
pos = (682,10);
},
{
name = top;
pos = (369,700);
}
);
layerId = "764A1405-E697-4ABB-AAB9-F13AB1C32CC8";
shapes = (
{
closed = 1;
nodes = (
(355,545,l),
(348,521,l),
(338,498,l),
(328,477,l),
(321,450,l),
(314,424,l),
(307,398,l),
(300,374,l),
(291,349,l),
(321,346,l),
(338,341,l),
(355,341,l),
(371,344,l),
(389,344,l),
(405,346,l),
(421,346,l),
(414,368,l),
(409,386,l),
(403,405,l),
(398,424,l),
(391,444,l),
(385,462,l),
(379,479,l),
(374,501,l),
(369,521,l),
(361,574,l)
);
},
{
closed = 1;
nodes = (
(368,728,l),
(387,732,l),
(400,718,l),
(410,705,l),
(417,695,l),
(421,680,l),
(428,669,l),
(436,659,l),
(443,646,l),
(450,629,l),
(454,611,l),
(462,595,l),
(466,576,l),
(471,560,l),
(480,545,l),
(484,527,l),
(491,515,l),
(496,504,l),
(498,492,l),
(499,480,l),
(503,469,l),
(508,461,l),
(512,450,l),
(515,439,l),
(521,429,l),
(525,418,l),
(529,408,l),
(534,396,l),
(538,385,l),
(543,377,l),
(545,364,l),
(546,354,l),
(553,340,l),
(566,322,l),
(576,301,l),
(582,280,l),
(592,263,l),
(601,243,l),
(613,224,l),
(622,203,l),
(630,187,l),
(632,173,l),
(637,156,l),
(644,138,l),
(657,119,l),
(667,103,l),
(680,95,l),
(692,98,l),
(705,96,l),
(718,96,l),
(730,91,l),
(741,88,l),
(755,82,l),
(764,70,l),
(757,63,l),
(748,54,l),
(737,43,l),
(727,34,l),
(714,27,l),
(701,21,l),
(692,11,l),
(680,2,l),
(666,0,l),
(652,7,l),
(634,7,l),
(616,4,l),
(598,2,l),
(580,-2,l),
(560,-2,l),
(541,-5,l),
(523,0,l),
(503,2,l),
(485,0,l),
(471,7,l),
(462,18,l),
(461,32,l),
(462,49,l),
(477,59,l),
(482,68,l),
(489,79,l),
(496,88,l),
(505,95,l),
(512,102,l),
(515,114,l),
(510,133,l),
(503,150,l),
(494,170,l),
(489,189,l),
(475,205,l),
(469,226,l),
(455,240,l),
(446,252,l),
(434,254,l),
(421,259,l),
(410,263,l),
(398,264,l),
(380,263,l),
(363,266,l),
(345,264,l),
(326,263,l),
(305,261,l),
(289,254,l),
(273,252,l),
(268,240,l),
(263,231,l),
(256,219,l),
(254,209,l),
(244,198,l),
(242,187,l),
(239,175,l),
(232,163,l),
(230,149,l),
(225,134,l),
(216,119,l),
(216,103,l),
(216,93,l),
(221,88,l),
(233,86,l),
(249,86,l),
(268,93,l),
(286,84,l),
(305,75,l),
(309,63,l),
(305,58,l),
(296,49,l),
(289,40,l),
(277,34,l),
(268,25,l),
(257,19,l),
(249,14,l),
(237,7,l),
(226,0,l),
(210,0,l),
(193,0,l),
(177,5,l),
(161,-2,l),
(144,0,l),
(126,-2,l),
(111,4,l),
(93,0,l),
(77,-3,l),
(58,-7,l),
(41,-5,l),
(27,5,l),
(16,16,l),
(23,27,l),
(25,43,l),
(39,56,l),
(51,73,l),
(72,82,l),
(89,93,l),
(104,107,l),
(116,123,l),
(119,140,l),
(128,150,l),
(134,163,l),
(137,175,l),
(141,186,l),
(148,196,l),
(151,207,l),
(151,219,l),
(161,231,l),
(165,241,l),
(168,254,l),
(172,264,l),
(175,275,l),
(177,287,l),
(177,300,l),
(186,309,l),
(189,322,l),
(191,332,l),
(191,345,l),
(198,355,l),
(200,366,l),
(205,377,l),
(205,389,l),
(207,401,l),
(216,411,l),
(219,422,l),
(223,432,l),
(228,443,l),
(233,454,l),
(239,464,l),
(239,476,l),
(242,487,l),
(247,499,l),
(250,509,l),
(257,520,l),
(264,529,l),
(266,539,l),
(273,550,l),
(273,562,l),
(279,571,l),
(286,583,l),
(289,600,l),
(293,618,l),
(294,634,l),
(294,650,l),
(286,662,l),
(282,676,l),
(275,694,l),
(289,704,l),
(301,708,l),
(312,711,l),
(326,718,l),
(348,728,l)
);
}
);
width = 758;
}
);
unicode = 65;
},
{
glyphname = AE;
lastChange = "2024-12-12 14:00:53 +0000";
layers = (
{
associatedMasterId = "764A1405-E697-4ABB-AAB9-F13AB1C32CC8";
layerId = "A7A88DC0-E7F2-46E2-8498-516E259ED036";
name = img;
width = 1010;
},
{
anchors = (
{
name = bottom;
pos = (593,0);
},
{
name = top;
pos = (593,700);
}
);
layerId = "764A1405-E697-4ABB-AAB9-F13AB1C32CC8";
shapes = (
{
closed = 1;
nodes = (
(639,243,l),
(635,233,l),
(638,219,l),
(638,209,l),
(636,194,l),
(637,180,l),
(633,166,l),
(637,149,l),
(637,136,l),
(636,118,l),
(646,108,l),
(660,107,l),
(678,104,l),
(696,107,l),
(712,101,l),
(726,103,l),
(737,98,l),
(749,100,l),
(763,99,l),
(774,109,l),
(786,102,l),
(797,106,l),
(811,106,l),
(823,101,l),
(836,106,l),
(848,104,l),
(861,102,l),
(879,104,l),
(893,119,l),
(899,129,l),
(911,144,l),
(921,162,l),
(923,179,l),
(937,190,l),
(948,203,l),
(959,213,l),
(974,208,l),
(983,202,l),
(985,188,l),
(984,174,l),
(976,162,l),
(977,147,l),
(973,131,l),
(968,116,l),
(957,102,l),
(956,84,l),
(950,69,l),
(942,54,l),
(933,40,l),
(927,26,l),
(916,17,l),
(905,9,l),
(894,-2,l),
(874,-5,l),
(854,0,l),
(833,-9,l),
(814,-5,l),
(794,2,l),
(776,-2,l),
(757,0,l),
(739,3,l),
(726,-1,l),
(712,4,l),
(701,2,l),
(687,0,l),
(676,-8,l),
(661,-5,l),
(649,-1,l),
(638,-1,l),
(623,4,l),
(610,2,l),
(595,3,l),
(581,9,l),
(567,7,l),
(558,16,l),
(551,27,l),
(544,35,l),
(532,42,l),
(530,56,l),
(528,71,l),
(524,91,l),
(530,110,l),
(530,130,l),
(527,148,l),
(524,167,l),
(528,185,l),
(522,200,l),
(514,201,l),
(500,203,l),
(486,208,l),
(472,206,l),
(457,203,l),
(444,208,l),
(429,212,l),
(415,210,l),
(402,207,l),
(389,207,l),
(376,201,l),
(362,201,l),
(348,208,l),
(336,199,l),
(322,197,l),
(309,204,l),
(292,203,l),
(275,207,l),
(271,191,l),
(255,184,l),
(247,172,l),
(241,157,l),
(226,147,l),
(221,130,l),
(219,117,l),
(226,112,l),
(237,106,l),
(249,103,l),
(262,100,l),
(276,99,l),
(289,107,l),
(301,99,l),
(316,103,l),
(317,92,l),
(321,79,l),
(309,71,l),
(303,57,l),
(296,44,l),
(284,36,l),
(284,20,l),
(269,13,l),
(262,1,l),
(246,3,l),
(234,4,l),
(218,9,l),
(204,7,l),
(190,1,l),
(175,3,l),
(162,1,l),
(148,9,l),
(135,0,l),
(119,7,l),
(104,9,l),
(89,7,l),
(76,0,l),
(63,-5,l),
(49,6,l),
(38,4,l),
(25,4,l),
(12,13,l),
(5,22,l),
(3,34,l),
(7,47,l),
(1,62,l),
(14,71,l),
(28,82,l),
(35,99,l),
(48,103,l),
(59,111,l),
(71,110,l),
(85,110,l),
(99,108,l),
(117,113,l),
(132,122,l),
(131,137,l),
(146,143,l),
(157,154,l),
(169,164,l),
(175,174,l),
(185,182,l),
(190,198,l),
(203,215,l),
(209,237,l),
(219,243,l),
(226,246,l),
(229,259,l),
(239,271,l),
(251,284,l),
(263,299,l),
(273,312,l),
(290,320,l),
(299,334,l),
(307,347,l),
(319,357,l),
(326,372,l),
(337,385,l),
(342,401,l),
(349,414,l),
(354,431,l),
(367,444,l),
(375,459,l),
(386,473,l),
(398,486,l),
(407,502,l),
(414,518,l),
(430,528,l),
(444,541,l),
(453,558,l),
(458,577,l),
(471,596,l),
(473,618,l),
(487,635,l),
(494,655,l),
(508,668,l),
(522,677,l),
(535,689,l),
(553,689,l),
(568,698,l),
(579,708,l),
(595,701,l),
(610,699,l),
(626,695,l),
(640,694,l),
(655,686,l),
(670,695,l),
(686,690,l),
(703,690,l),
(720,696,l),
(736,700,l),
(754,698,l),
(773,698,l),
(790,700,l),
(806,699,l),
(824,694,l),
(841,699,l),
(859,699,l),
(877,695,l),
(895,695,l),
(911,694,l),
(927,696,l),
(942,698,l),
(955,689,l),
(959,675,l),
(966,660,l),
(954,646,l),
(951,630,l),
(950,617,l),
(950,601,l),
(946,586,l),
(941,566,l),
(931,546,l),
(920,526,l),
(910,509,l),
(894,508,l),
(888,526,l),
(884,546,l),
(878,567,l),
(873,584,l),
(860,587,l),
(851,598,l),
(837,596,l),
(824,599,l),
(809,595,l),
(792,604,l),
(775,602,l),
(758,599,l),
(742,595,l),
(724,594,l),
(709,596,l),
(693,598,l),
(679,594,l),
(665,587,l),
(649,582,l),
(651,563,l),
(651,541,l),
(645,520,l),
(640,499,l),
(637,476,l),
(632,454,l),
(644,439,l),
(640,425,l),
(644,412,l),
(653,399,l),
(670,397,l),
(692,397,l),
(714,398,l),
(733,404,l),
(754,407,l),
(774,401,l),
(786,412,l),
(801,428,l),
(812,447,l),
(829,463,l),
(848,470,l),
(856,472,l),
(866,468,l),
(868,455,l),
(863,444,l),
(859,432,l),
(858,418,l),
(852,400,l),
(851,377,l),
(851,356,l),
(857,339,l),
(865,326,l),
(866,311,l),
(858,298,l),
(854,282,l),
(843,272,l),
(840,259,l),
(824,243,l),
(822,240,l),
(818,243,l),
(805,249,l),
(796,264,l),
(787,283,l),
(777,294,l),
(766,300,l),
(748,299,l),
(730,303,l),
(713,300,l),
(697,293,l),
(678,300,l),
(660,297,l),
(645,294,l),
(640,282,l),
(637,272,l),
(641,258,l),
(640,245,l)
);
},
{
closed = 1;
nodes = (
(521,559,l),
(508,543,l),
(493,526,l),
(480,507,l),
(468,487,l),
(456,468,l),
(444,448,l),
(431,431,l),
(421,414,l),
(409,401,l),
(398,388,l),
(385,374,l),
(363,344,l),
(355,328,l),
(349,313,l),
(351,307,l),
(363,306,l),
(375,307,l),
(400,307,l),
(412,306,l),
(463,306,l),
(475,307,l),
(489,306,l),
(503,308,l),
(521,312,l),
(536,319,l),
(540,334,l),
(539,350,l),
(538,367,l),
(541,385,l),
(545,404,l),
(545,435,l),
(544,452,l),
(541,470,l),
(539,487,l),
(539,540,l),
(541,557,l),
(540,571,l),
(533,573,l)
);
}
);
width = 1010;
}
);
unicode = 198;
},
{
glyphname = B;
lastChange = "2024-12-12 14:07:37 +0000";
layers = (
{
associatedMasterId = "764A1405-E697-4ABB-AAB9-F13AB1C32CC8";
layerId = "A7A88DC0-E7F2-46E2-8498-516E259ED036";
name = img;
width = 578;
},
{
anchors = (
{
name = bottom;
pos = (309,0);
},
{
name = center;
pos = (165,174);
},
{
name = top;
pos = (309,700);
}
);
layerId = "764A1405-E697-4ABB-AAB9-F13AB1C32CC8";
shapes = (
{
closed = 1;
nodes = (
(258,599,l),
(255,581,l),
(255,561,l),
(257,542,l),
(255,524,l),
(253,504,l),
(251,486,l),
(248,466,l),
(246,446,l),
(244,427,l),
(244,410,l),
(244,398,l),
(246,391,l),
(255,389,l),
(272,391,l),
(287,392,l),
(302,394,l),
(314,392,l),
(330,398,l),
(340,408,l),
(348,418,l),
(357,427,l),
(364,434,l),
(373,448,l),
(382,468,l),
(387,488,l),
(387,509,l),
(384,529,l),
(375,547,l),
(364,565,l),
(354,578,l),
(345,585,l),
(333,590,l),
(323,597,l),
(310,601,l),
(298,604,l),
(284,606,l),
(269,608,l)
);
},
{
closed = 1;
nodes = (
(279,314,l),
(262,308,l),
(253,295,l),
(257,274,l),
(257,255,l),
(257,234,l),
(258,213,l),
(262,193,l),
(265,173,l),
(267,154,l),
(269,134,l),
(269,118,l),
(269,100,l),
(269,85,l),
(274,78,l),
(281,76,l),
(295,78,l),
(305,80,l),
(317,81,l),
(328,83,l),
(341,85,l),
(352,85,l),
(364,88,l),
(375,90,l),
(385,93,l),
(397,97,l),
(409,98,l),
(423,105,l),
(439,116,l),
(451,130,l),
(453,149,l),
(453,170,l),
(451,189,l),
(446,208,l),
(439,220,l),
(436,234,l),
(430,247,l),
(427,260,l),
(420,270,l),
(413,279,l),
(404,286,l),
(395,293,l),
(384,299,l),
(371,304,l),
(361,308,l),
(345,310,l),
(328,314,l),
(312,316,l),
(296,316,l)
);
},
{
closed = 1;
nodes = (
(298,709,l),
(310,703,l),
(323,701,l),
(335,701,l),
(348,700,l),
(362,698,l),
(375,694,l),
(387,691,l),
(401,687,l),
(413,684,l),
(425,674,l),
(438,663,l),
(454,656,l),
(463,642,l),
(476,630,l),
(488,617,l),
(499,604,l),
(505,588,l),
(512,572,l),
(515,556,l),
(515,540,l),
(514,522,l),
(514,505,l),
(503,490,l),
(498,474,l),
(486,459,l),
(474,448,l),
(456,441,l),
(443,427,l),
(427,420,l),
(416,406,l),
(402,398,l),
(395,389,l),
(397,384,l),
(408,384,l),
(425,384,l),
(441,380,l),
(460,378,l),
(476,373,l),
(491,366,l),
(505,353,l),
(519,344,l),
(533,337,l),
(540,323,l),
(549,312,l),
(559,300,l),
(562,285,l),
(566,270,l),
(567,255,l),
(571,241,l),
(571,227,l),
(578,213,l),
(578,198,l),
(578,187,l),
(578,175,l),
(576,164,l),
(569,150,l),
(562,130,l),
(552,112,l),
(536,98,l),
(526,80,l),
(506,71,l),
(488,59,l),
(468,48,l),
(453,43,l),
(441,41,l),
(429,36,l),
(418,33,l),
(408,28,l),
(395,24,l),
(384,22,l),
(371,22,l),
(359,13,l),
(345,6,l),
(330,3,l),
(317,1,l),
(302,5,l),
(287,-1,l),
(272,-2,l),
(260,-8,l),
(248,-4,l),
(234,-8,l),
(218,-8,l),
(204,-11,l),
(189,-9,l),
(173,-13,l),
(158,-8,l),
(143,-8,l),
(131,-2,l),
(114,-6,l),
(97,-4,l),
(81,-2,l),
(62,8,l),
(59,22,l),
(59,36,l),
(64,48,l),
(74,57,l),
(84,66,l),
(91,78,l),
(104,81,l),
(114,88,l),
(128,93,l),
(138,98,l),
(145,112,l),
(142,132,l),
(143,152,l),
(142,172,l),
(142,191,l),
(140,211,l),
(138,231,l),
(140,252,l),
(136,272,l),
(135,292,l),
(136,312,l),
(136,333,l),
(131,353,l),
(133,375,l),
(133,394,l),
(131,413,l),
(129,432,l),
(135,443,l),
(133,455,l),
(136,468,l),
(136,481,l),
(138,491,l),
(135,504,l),
(136,516,l),
(138,529,l),
(140,542,l),
(140,554,l),
(142,566,l),
(135,583,l),
(133,604,l),
(118,611,l),
(100,608,l),
(83,611,l),
(62,606,l),
(46,615,l),
(43,635,l),
(41,651,l),
(46,662,l),
(60,672,l),
(79,684,l),
(95,694,l),
(116,700,l),
(138,701,l),
(156,703,l),
(170,701,l),
(183,705,l),
(197,705,l),
(210,705,l),
(220,707,l),
(232,707,l),
(244,707,l),
(260,705,l),
(281,705,l)
);
}
);
width = 588;
}
);
unicode = 66;
},
{
glyphname = C;
kernLeft = _C;
kernRight = _C;
lastChange = "2024-12-12 14:08:25 +0000";
layers = (
{
associatedMasterId = "764A1405-E697-4ABB-AAB9-F13AB1C32CC8";
layerId = "A7A88DC0-E7F2-46E2-8498-516E259ED036";
name = img;
width = 640;
},
{
anchors = (
{
name = bottom;
pos = (341,0);
},
{
name = top;
pos = (386,700);
}
);
layerId = "764A1405-E697-4ABB-AAB9-F13AB1C32CC8";
shapes = (
{
closed = 1;
nodes = (
(426,710,l),
(438,705,l),
(454,708,l),
(466,703,l),
(481,700,l),
(495,694,l),
(509,691,l),
(523,684,l),
(536,679,l),
(548,673,l),
(559,664,l),
(571,659,l),
(581,652,l),
(593,645,l),
(598,634,l),
(605,624,l),
(609,612,l),
(614,602,l),
(614,588,l),
(609,577,l),
(603,566,l),
(596,556,l),
(588,547,l),
(576,540,l),
(569,526,l),
(555,522,l),
(541,517,l),
(526,512,l),
(514,504,l),
(500,502,l),
(486,502,l),
(474,495,l),
(463,504,l),
(450,515,l),
(443,528,l),
(437,538,l),
(430,549,l),
(433,561,l),
(440,574,l),
(446,590,l),
(449,596,l),
(459,605,l),
(479,613,l),
(448,620,l),
(427,621,l),
(410,623,l),
(392,618,l),
(373,622,l),
(354,619,l),
(336,619,l),
(318,609,l),
(302,609,l),
(287,598,l),
(270,594,l),
(261,582,l),
(251,570,l),
(239,555,l),
(229,542,l),
(220,526,l),
(206,512,l),
(203,494,l),
(192,480,l),
(189,466,l),
(179,452,l),
(175,439,l),
(168,423,l),
(165,404,l),
(161,384,l),
(158,364,l),
(161,343,l),
(165,323,l),
(167,302,l),
(167,280,l),
(175,263,l),
(179,244,l),
(190,226,l),
(201,210,l),
(208,194,l),
(211,177,l),
(223,165,l),
(232,151,l),
(241,143,l),
(249,134,l),
(258,125,l),
(266,116,l),
(280,113,l),
(292,102,l),
(309,98,l),
(323,93,l),
(337,84,l),
(353,84,l),
(371,84,l),
(387,81,l),
(401,81,l),
(417,77,l),
(433,79,l),
(445,84,l),
(463,88,l),
(478,102,l),
(495,116,l),
(509,130,l),
(525,144,l),
(543,151,l),
(562,148,l),
(576,139,l),
(589,130,l),
(591,115,l),
(578,100,l),
(567,88,l),
(559,74,l),
(550,63,l),
(541,54,l),
(531,45,l),
(514,40,l),
(498,34,l),
(486,27,l),
(476,17,l),
(459,15,l),
(445,12,l),
(433,-1,l),
(417,-1,l),
(402,-9,l),
(387,-12,l),
(369,-12,l),
(353,-12,l),
(333,-12,l),
(316,-12,l),
(296,-7,l),
(277,-1,l),
(259,5,l),
(241,8,l),
(223,12,l),
(210,26,l),
(192,29,l),
(179,40,l),
(168,46,l),
(158,54,l),
(144,60,l),
(135,68,l),
(128,79,l),
(124,91,l),
(115,98,l),
(106,108,l),
(99,120,l),
(94,130,l),
(93,143,l),
(86,153,l),
(80,165,l),
(75,177,l),
(67,187,l),
(67,201,l),
(58,212,l),
(58,226,l),
(50,237,l),
(46,247,l),
(44,260,l),
(48,270,l),
(41,280,l),
(41,294,l),
(43,306,l),
(48,316,l),
(44,327,l),
(44,343,l),
(50,363,l),
(53,380,l),
(51,400,l),
(53,418,l),
(58,432,l),
(64,445,l),
(69,460,l),
(80,473,l),
(87,487,l),
(94,501,l),
(96,517,l),
(106,529,l),
(113,542,l),
(120,554,l),
(128,568,l),
(142,576,l),
(151,586,l),
(163,593,l),
(170,605,l),
(182,617,l),
(199,623,l),
(211,638,l),
(227,645,l),
(239,657,l),
(258,662,l),
(271,673,l),
(285,681,l),
(302,691,l),
(323,693,l),
(339,698,l),
(351,698,l),
(362,703,l),
(375,707,l),
(388,710,l),
(408,712,l)
);
}
);
width = 640;
}
);
unicode = 67;
},
{
glyphname = D;
kernLeft = D;
kernRight = O;
lastChange = "2024-12-12 14:07:40 +0000";
layers = (
{
associatedMasterId = "764A1405-E697-4ABB-AAB9-F13AB1C32CC8";
layerId = "A7A88DC0-E7F2-46E2-8498-516E259ED036";
name = img;
width = 734;
},
{
anchors = (
{
name = bottom;
pos = (377,0);
},
{
name = center;
pos = (204,320);
},
{
name = top;
pos = (377,700);
}
);
layerId = "764A1405-E697-4ABB-AAB9-F13AB1C32CC8";
shapes = (
{
closed = 1;
nodes = (
(284,613,l),
(278,600,l),
(276,578,l),
(272,559,l),
(270,539,l),
(268,515,l),
(270,493,l),
(266,471,l),
(270,448,l),
(268,432,l),
(270,417,l),
(270,402,l),
(272,387,l),
(272,373,l),
(272,360,l),
(272,345,l),
(272,333,l),
(270,315,l),
(276,297,l),
(273,279,l),
(276,266,l),
(273,254,l),
(272,240,l),
(272,227,l),
(273,212,l),
(272,199,l),
(268,187,l),
(270,174,l),
(272,157,l),
(272,142,l),
(272,130,l),
(276,111,l),
(282,90,l),
(293,81,l),
(314,81,l),
(334,77,l),
(357,77,l),
(377,79,l),
(392,83,l),
(406,83,l),
(422,83,l),
(438,86,l),
(451,92,l),
(463,96,l),
(474,102,l),
(487,104,l),
(497,111,l),
(508,119,l),
(518,124,l),
(530,135,l),
(548,152,l),
(561,171,l),
(573,192,l),
(578,209,l),
(582,221,l),
(584,232,l),
(586,246,l),
(589,257,l),
(591,270,l),
(591,284,l),
(591,297,l),
(589,311,l),
(589,325,l),
(587,340,l),
(584,353,l),
(584,367,l),
(587,382,l),
(582,402,l),
(576,424,l),
(565,444,l),
(552,464,l),
(541,478,l),
(534,488,l),
(529,499,l),
(519,506,l),
(512,515,l),
(503,525,l),
(496,535,l),
(485,543,l),
(474,548,l),
(465,557,l),
(454,563,l),
(445,572,l),
(434,576,l),
(424,583,l),
(410,587,l),
(399,592,l),
(386,598,l),
(375,601,l),
(363,608,l),
(350,610,l),
(336,612,l),
(321,612,l),
(307,613,l),
(293,615,l)
);
},
{
closed = 1;
nodes = (
(113,712,l),
(126,714,l),
(138,709,l),
(150,712,l),
(163,712,l),
(174,709,l),
(187,711,l),
(199,709,l),
(213,707,l),
(226,709,l),
(239,709,l),
(250,709,l),
(262,707,l),
(276,709,l),
(289,709,l),
(300,712,l),
(318,712,l),
(336,709,l),
(355,709,l),
(374,707,l),
(390,711,l),
(403,703,l),
(417,700,l),
(432,694,l),
(447,692,l),
(458,685,l),
(471,681,l),
(485,677,l),
(497,669,l),
(508,662,l),
(519,657,l),
(534,655,l),
(545,649,l),
(555,638,l),
(565,630,l),
(578,624,l),
(586,615,l),
(598,610,l),
(608,601,l),
(613,589,l),
(624,583,l),
(633,574,l),
(640,563,l),
(649,554,l),
(654,543,l),
(666,533,l),
(670,520,l),
(679,510,l),
(685,499,l),
(690,486,l),
(696,473,l),
(699,462,l),
(707,448,l),
(711,432,l),
(711,417,l),
(711,402,l),
(713,384,l),
(719,365,l),
(721,345,l),
(724,323,l),
(722,300,l),
(724,276,l),
(722,255,l),
(713,234,l),
(705,216,l),
(699,198,l),
(692,179,l),
(679,163,l),
(670,146,l),
(654,133,l),
(642,120,l),
(628,106,l),
(611,94,l),
(598,79,l),
(580,72,l),
(563,63,l),
(543,53,l),
(527,41,l),
(507,36,l),
(489,27,l),
(471,18,l),
(456,17,l),
(440,13,l),
(422,13,l),
(405,11,l),
(384,9,l),
(366,4,l),
(348,-4,l),
(329,-4,l),
(307,-7,l),
(289,-9,l),
(272,-9,l),
(257,-4,l),
(242,-4,l),
(228,-7,l),
(213,-5,l),
(194,-9,l),
(178,-4,l),
(160,-4,l),
(141,-9,l),
(122,-7,l),
(105,-7,l),
(89,-5,l),
(71,-4,l),
(56,0,l),
(45,6,l),
(32,17,l),
(25,30,l),
(21,41,l),
(34,50,l),
(47,64,l),
(66,70,l),
(80,83,l),
(96,90,l),
(113,92,l),
(127,90,l),
(145,88,l),
(154,102,l),
(150,122,l),
(152,141,l),
(149,157,l),
(147,176,l),
(150,187,l),
(150,199,l),
(147,210,l),
(150,223,l),
(150,234,l),
(147,248,l),
(147,259,l),
(150,274,l),
(147,289,l),
(149,302,l),
(150,315,l),
(150,331,l),
(149,351,l),
(152,373,l),
(149,396,l),
(143,415,l),
(147,430,l),
(149,446,l),
(149,464,l),
(150,482,l),
(150,500,l),
(147,520,l),
(150,539,l),
(150,557,l),
(150,574,l),
(150,590,l),
(143,601,l),
(127,612,l),
(109,612,l),
(89,615,l),
(64,617,l),
(47,626,l),
(39,644,l),
(41,662,l),
(48,677,l),
(60,683,l),
(70,692,l),
(80,698,l),
(93,701,l),
(102,709,l)
);
}
);
width = 734;
}
);
unicode = 68;
},
{
glyphname = E;
lastChange = "2024-12-12 12:57:50 +0000";
layers = (
{
associatedMasterId = "764A1405-E697-4ABB-AAB9-F13AB1C32CC8";
layerId = "A7A88DC0-E7F2-46E2-8498-516E259ED036";
name = img;
width = 593;
},
{
anchors = (
{
name = bottom;
pos = (307,0);
},
{
name = ogonek;
pos = (464,10);
},
{
name = top;
pos = (307,700);
},
{
name = topleft;
pos = (30,700);
}
);
layerId = "764A1405-E697-4ABB-AAB9-F13AB1C32CC8";
shapes = (
{
closed = 1;
nodes = (
(219,705,l),
(238,702,l),
(255,705,l),
(274,702,l),
(293,697,l),
(310,695,l),
(325,700,l),
(343,699,l),
(358,697,l),
(373,700,l),
(390,697,l),
(408,699,l),
(425,697,l),
(442,699,l),
(461,700,l),
(480,702,l),
(499,704,l),
(514,697,l),
(529,688,l),
(534,677,l),
(533,664,l),
(531,650,l),
(534,637,l),
(531,621,l),
(523,604,l),
(519,587,l),
(509,571,l),
(499,558,l),
(484,544,l),
(471,543,l),
(464,548,l),
(459,565,l),
(451,582,l),
(440,597,l),
(425,602,l),
(408,608,l),
(390,610,l),
(373,610,l),
(358,608,l),
(341,610,l),
(325,615,l),
(310,610,l),
(293,613,l),
(278,616,l),
(262,610,l),
(243,608,l),
(233,599,l),
(231,582,l),
(233,563,l),
(228,546,l),
(229,530,l),
(223,518,l),
(223,504,l),
(221,493,l),
(219,481,l),
(221,468,l),
(218,454,l),
(218,443,l),
(218,431,l),
(218,417,l),
(218,403,l),
(223,394,l),
(233,389,l),
(248,386,l),
(263,386,l),
(281,383,l),
(296,383,l),
(310,383,l),
(325,380,l),
(341,382,l),
(357,375,l),
(373,377,l),
(390,380,l),
(408,382,l),
(417,383,l),
(418,393,l),
(427,407,l),
(442,423,l),
(456,437,l),
(471,452,l),
(492,452,l),
(509,447,l),
(511,437,l),
(512,425,l),
(506,412,l),
(503,398,l),
(502,387,l),
(494,371,l),
(496,358,l),
(494,343,l),
(494,330,l),
(500,315,l),
(497,299,l),
(497,285,l),
(502,270,l),
(490,259,l),
(475,253,l),
(459,246,l),
(447,239,l),
(440,248,l),
(435,258,l),
(430,268,l),
(424,278,l),
(415,287,l),
(399,289,l),
(385,291,l),
(372,286,l),
(357,290,l),
(343,288,l),
(327,290,l),
(313,290,l),
(296,289,l),
(279,294,l),
(260,288,l),
(243,288,l),
(231,288,l),
(231,274,l),
(229,254,l),
(229,237,l),
(234,223,l),
(233,207,l),
(234,192,l),
(240,178,l),
(238,163,l),
(245,149,l),
(245,133,l),
(248,118,l),
(250,101,l),
(262,96,l),
(274,92,l),
(288,89,l),
(300,89,l),
(313,94,l),
(325,91,l),
(339,87,l),
(351,89,l),
(365,92,l),
(377,89,l),
(390,92,l),
(402,91,l),
(417,91,l),
(429,89,l),
(442,89,l),
(454,87,l),
(466,92,l),
(479,106,l),
(487,121,l),
(502,130,l),
(512,144,l),
(524,158,l),
(541,165,l),
(552,178,l),
(561,180,l),
(566,176,l),
(569,168,l),
(571,159,l),
(569,146,l),
(568,131,l),
(564,118,l),
(559,106,l),
(557,94,l),
(557,81,l),
(552,66,l),
(552,53,l),
(541,44,l),
(528,37,l),
(514,29,l),
(504,20,l),
(492,12,l),
(480,4,l),
(466,-3,l),
(456,-9,l),
(444,-11,l),
(434,-8,l),
(422,-4,l),
(410,-9,l),
(395,-4,l),
(382,-4,l),
(368,-4,l),
(353,-6,l),
(337,-6,l),
(320,-4,l),
(303,-4,l),
(288,-1,l),
(274,1,l),
(256,1,l),
(243,6,l),
(224,4,l),
(203,6,l),
(186,12,l),
(174,9,l),
(161,8,l),
(149,6,l),
(134,6,l),
(124,4,l),
(112,3,l),
(101,4,l),
(85,8,l),
(71,14,l),
(62,24,l),
(54,39,l),
(49,54,l),
(57,71,l),
(69,82,l),
(79,91,l),
(89,96,l),
(97,104,l),
(107,108,l),
(119,111,l),
(126,126,l),
(126,146,l),
(119,165,l),
(121,183,l),
(117,202,l),
(117,223,l),
(119,238,l),
(114,250,l),
(116,262,l),
(117,274,l),
(116,285,l),
(116,297,l),
(111,309,l),
(112,319,l),
(109,331,l),
(112,343,l),
(109,354,l),
(106,365,l),
(104,376,l),
(104,387,l),
(104,399,l),
(106,412,l),
(102,427,l),
(107,449,l),
(107,470,l),
(111,488,l),
(112,506,l),
(114,525,l),
(116,544,l),
(116,566,l),
(117,582,l),
(116,593,l),
(112,604,l),
(101,605,l),
(85,604,l),
(71,600,l),
(62,604,l),
(54,615,l),
(45,625,l),
(42,640,l),
(47,652,l),
(61,664,l),
(74,678,l),
(90,692,l),
(107,694,l),
(121,697,l),
(134,697,l),
(151,699,l),
(164,697,l),
(178,699,l),
(191,700,l),
(205,699,l)
);
}
);
width = 593;
}
);
unicode = 69;
},
{
glyphname = F;
lastChange = "2024-12-12 12:51:51 +0000";
layers = (
{
associatedMasterId = "764A1405-E697-4ABB-AAB9-F13AB1C32CC8";
layerId = "A7A88DC0-E7F2-46E2-8498-516E259ED036";
name = img;
width = 593;
},
{
layerId = "764A1405-E697-4ABB-AAB9-F13AB1C32CC8";
shapes = (
{
closed = 1;
nodes = (
(528,702,l),
(545,697,l),
(561,691,l),
(573,682,l),
(577,666,l),
(579,650,l),
(577,634,l),
(575,616,l),
(570,601,l),
(563,590,l),
(561,578,l),
(552,569,l),
(543,560,l),
(534,551,l),
(521,545,l),
(512,536,l),
(503,533,l),
(494,544,l),
(485,562,l),
(478,578,l),
(465,592,l),
(451,601,l),
(431,599,l),
(413,605,l),
(397,603,l),
(379,603,l),
(361,601,l),
(346,605,l),
(332,603,l),
(317,601,l),
(303,603,l),
(289,601,l),
(274,603,l),
(260,598,l),
(245,599,l),
(238,598,l),
(240,583,l),
(240,562,l),
(238,540,l),
(240,517,l),
(242,495,l),
(238,473,l),
(244,450,l),
(242,428,l),
(251,416,l),
(265,410,l),
(283,408,l),
(303,407,l),
(325,408,l),
(343,408,l),
(362,408,l),
(382,408,l),
(395,416,l),
(404,425,l),
(411,435,l),
(420,444,l),
(429,452,l),
(442,457,l),
(454,462,l),
(465,466,l),
(472,466,l),
(478,455,l),
(474,439,l),
(470,425,l),
(472,408,l),
(465,394,l),
(464,381,l),
(463,369,l),
(467,356,l),
(466,343,l),
(466,331,l),
(470,318,l),
(474,306,l),
(474,289,l),
(460,275,l),
(442,262,l),
(424,261,l),
(413,264,l),
(404,275,l),
(399,288,l),
(391,300,l),
(382,311,l),
(368,316,l),
(350,320,l),
(330,322,l),
(310,327,l),
(290,322,l),
(272,322,l),
(256,316,l),
(247,307,l),
(249,293,l),
(247,279,l),
(247,264,l),
(253,252,l),
(251,237,l),
(251,223,l),
(253,208,l),
(251,192,l),
(254,178,l),
(253,161,l),
(258,145,l),
(263,129,l),
(265,109,l),
(274,98,l),
(287,97,l),
(299,97,l),
(312,97,l),
(328,93,l),
(348,84,l),
(359,75,l),
(359,60,l),
(348,53,l),
(335,46,l),
(326,37,l),
(316,32,l),
(307,19,l),
(296,12,l),
(285,6,l),
(272,1,l),
(262,3,l),
(249,1,l),
(238,5,l),
(226,5,l),
(213,6,l),
(202,3,l),
(189,8,l),
(177,8,l),
(164,5,l),
(152,5,l),
(139,1,l),
(125,5,l),
(112,1,l),
(99,1,l),
(87,3,l),
(76,6,l),
(65,15,l),
(61,30,l),
(56,44,l),
(56,57,l),
(63,66,l),
(72,75,l),
(81,84,l),
(92,91,l),
(101,100,l),
(114,104,l),
(126,109,l),
(135,120,l),
(134,134,l),
(139,147,l),
(137,161,l),
(134,174,l),
(134,188,l),
(132,201,l),
(130,214,l),
(132,228,l),
(134,243,l),
(130,257,l),
(130,271,l),
(132,286,l),
(130,300,l),
(134,313,l),
(130,327,l),
(132,343,l),
(130,358,l),
(126,374,l),
(126,390,l),
(123,405,l),
(126,417,l),
(121,432,l),
(119,444,l),
(117,459,l),
(119,475,l),
(117,489,l),
(116,506,l),
(116,526,l),
(112,542,l),
(114,553,l),
(114,565,l),
(116,578,l),
(110,589,l),
(108,599,l),
(96,607,l),
(76,603,l),
(56,603,l),
(38,603,l),
(25,607,l),
(18,616,l),
(11,628,l),
(11,641,l),
(15,652,l),
(20,663,l),
(34,673,l),
(49,681,l),
(60,686,l),
(72,688,l),
(81,697,l),
(94,699,l),
(108,699,l),
(121,697,l),
(135,697,l),
(148,699,l),
(162,695,l),
(179,697,l),
(193,691,l),
(207,690,l),
(220,690,l),
(233,697,l),
(245,695,l),
(260,693,l),
(272,693,l),
(285,697,l),
(298,699,l),
(310,693,l),
(325,693,l),
(337,691,l),
(350,690,l),
(364,690,l),
(379,688,l),
(395,688,l),
(409,686,l),
(424,686,l),
(440,691,l),
(454,691,l),
(469,693,l),
(487,693,l),
(507,702,l)
);
}
);
width = 593;
}
);
unicode = 70;
},
{
glyphname = G;
lastChange = "2024-12-12 14:08:29 +0000";
layers = (
{
associatedMasterId = "764A1405-E697-4ABB-AAB9-F13AB1C32CC8";
layerId = "A7A88DC0-E7F2-46E2-8498-516E259ED036";
name = img;
width = 664;
},
{
anchors = (
{
name = bottom;
pos = (332,0);
},
{
name = top;
pos = (332,700);
}
);
layerId = "764A1405-E697-4ABB-AAB9-F13AB1C32CC8";
shapes = (
{
closed = 1;
nodes = (
(410,706,l),
(425,703,l),
(441,700,l),
(458,700,l),
(474,700,l),
(489,694,l),
(505,691,l),
(522,688,l),
(535,681,l),
(549,675,l),
(562,666,l),
(572,656,l),
(580,646,l),
(587,636,l),
(597,626,l),
(601,611,l),
(599,598,l),
(597,579,l),
(585,567,l),
(577,557,l),
(567,548,l),
(554,541,l),
(546,530,l),
(534,526,l),
(522,519,l),
(510,514,l),
(497,508,l),
(489,503,l),
(474,505,l),
(462,510,l),
(448,516,l),
(439,526,l),
(434,538,l),
(430,551,l),
(434,567,l),
(444,579,l),
(453,590,l),
(481,599,l),
(455,610,l),
(434,615,l),
(419,622,l),
(400,620,l),
(386,617,l),
(372,622,l),
(359,620,l),
(347,617,l),
(334,620,l),
(322,615,l),
(309,618,l),
(299,613,l),
(288,608,l),
(277,608,l),
(262,600,l),
(245,586,l),
(228,574,l),
(212,558,l),
(195,546,l),
(185,528,l),
(175,516,l),
(172,505,l),
(161,498,l),
(157,488,l),
(154,476,l),
(152,466,l),
(144,455,l),
(144,445,l),
(139,430,l),
(144,411,l),
(144,392,l),
(139,376,l),
(140,359,l),
(144,343,l),
(144,328,l),
(140,315,l),
(147,301,l),
(152,285,l),
(152,270,l),
(155,258,l),
(162,248,l),
(169,235,l),
(177,225,l),
(178,211,l),
(189,203,l),
(194,191,l),
(202,183,l),
(212,172,l),
(219,161,l),
(230,153,l),
(237,141,l),
(249,134,l),
(257,126,l),
(267,117,l),
(279,113,l),
(292,108,l),
(302,101,l),
(315,98,l),
(326,93,l),
(338,88,l),
(352,88,l),
(365,86,l),
(377,83,l),
(392,88,l),
(405,86,l),
(419,90,l),
(432,93,l),
(448,98,l),
(462,106,l),
(477,110,l),
(482,118,l),
(484,129,l),
(485,141,l),
(484,151,l),
(487,163,l),
(484,177,l),
(482,189,l),
(487,203,l),
(484,215,l),
(480,225,l),
(480,238,l),
(477,249,l),
(472,265,l),
(458,276,l),
(448,285,l),
(436,285,l),
(422,287,l),
(407,285,l),
(389,283,l),
(375,280,l),
(360,278,l),
(345,276,l),
(331,278,l),
(324,288,l),
(320,303,l),
(317,315,l),
(324,326,l),
(337,335,l),
(345,348,l),
(357,353,l),
(365,359,l),
(374,370,l),
(389,373,l),
(403,370,l),
(419,370,l),
(432,363,l),
(450,361,l),
(470,361,l),
(491,363,l),
(512,366,l),
(530,366,l),
(547,370,l),
(568,370,l),
(589,371,l),
(609,370,l),
(627,363,l),
(639,358,l),
(644,349,l),
(644,337,l),
(630,325,l),
(615,320,l),
(599,310,l),
(595,296,l),
(597,283,l),
(601,273,l),
(597,261,l),
(602,249,l),
(604,239,l),
(602,227,l),
(606,215,l),
(602,203,l),
(609,191,l),
(607,178,l),
(602,166,l),
(604,153,l),
(604,141,l),
(602,129,l),
(602,115,l),
(602,101,l),
(607,90,l),
(607,78,l),
(609,63,l),
(607,48,l),
(597,35,l),
(582,26,l),
(568,13,l),
(556,7,l),
(546,-4,l),
(534,-10,l),
(519,-10,l),
(505,-12,l),
(503,1,l),
(499,23,l),
(494,40,l),
(494,56,l),
(484,67,l),
(474,58,l),
(462,46,l),
(452,33,l),
(441,21,l),
(424,12,l),
(403,7,l),
(382,5,l),
(364,-4,l),
(348,-5,l),
(337,-5,l),
(324,-4,l),
(314,-5,l),
(299,-7,l),
(279,-4,l),
(264,0,l),
(250,5,l),
(238,13,l),
(224,18,l),
(212,24,l),
(199,33,l),
(183,40,l),
(172,50,l),
(155,53,l),
(144,62,l),
(134,74,l),
(123,86,l),
(114,98,l),
(102,106,l),
(92,117,l),
(82,129,l),
(75,145,l),
(72,160,l),
(65,173,l),
(56,186,l),
(51,201,l),
(45,216,l),
(40,232,l),
(39,248,l),
(40,263,l),
(35,280,l),
(34,296,l),
(32,313,l),
(32,330,l),
(32,348,l),
(39,365,l),
(37,381,l),
(39,398,l),
(44,418,l),
(51,435,l),
(51,452,l),
(56,471,l),
(63,490,l),
(73,505,l),
(82,524,l),
(94,538,l),
(107,551,l),
(120,565,l),
(134,579,l),
(147,591,l),
(162,601,l),
(177,613,l),
(192,626,l),
(209,634,l),
(224,645,l),
(242,656,l),
(260,661,l),
(274,672,l),
(287,683,l),
(299,691,l),
(310,693,l),
(324,693,l),
(338,694,l),
(354,696,l),
(367,700,l),
(381,700,l),
(395,705,l)
);
}
);
width = 664;
}
);
unicode = 71;
},
{
glyphname = H;
lastChange = "2024-12-12 13:52:52 +0000";
layers = (
{
associatedMasterId = "764A1405-E697-4ABB-AAB9-F13AB1C32CC8";
layerId = "A7A88DC0-E7F2-46E2-8498-516E259ED036";
name = img;
width = 782;
},
{
anchors = (
{
name = bottom;
pos = (391,0);
},
{
name = center;
pos = (401,487);
},
{
name = top;
pos = (411,700);
},
{
name = topleft;
pos = (20,700);
}
);
layerId = "764A1405-E697-4ABB-AAB9-F13AB1C32CC8";
shapes = (
{
closed = 1;
nodes = (
(294,703,l),
(306,702,l),
(318,702,l),
(328,695,l),
(345,695,l),
(357,681,l),
(355,670,l),
(340,660,l),
(327,653,l),
(315,643,l),
(303,633,l),
(285,623,l),
(270,616,l),
(251,608,l),
(242,601,l),
(243,581,l),
(236,563,l),
(238,546,l),
(243,526,l),
(238,507,l),
(236,489,l),
(236,469,l),
(240,452,l),
(242,436,l),
(242,421,l),
(243,405,l),
(249,393,l),
(265,397,l),
(276,390,l),
(288,387,l),
(303,382,l),
(317,382,l),
(328,381,l),
(343,381,l),
(355,381,l),
(367,377,l),
(380,379,l),
(393,375,l),
(405,374,l),
(417,377,l),
(431,379,l),
(443,374,l),
(452,372,l),
(466,377,l),
(477,374,l),
(490,370,l),
(502,367,l),
(516,372,l),
(528,374,l),
(541,374,l),
(542,381,l),
(544,392,l),
(549,402,l),
(549,412,l),
(549,424,l),
(547,434,l),
(542,449,l),
(542,461,l),
(539,473,l),
(541,487,l),
(542,499,l),
(539,511,l),
(534,521,l),
(537,536,l),
(528,546,l),
(531,558,l),
(531,573,l),
(529,589,l),
(531,601,l),
(524,605,l),
(511,603,l),
(495,603,l),
(477,605,l),
(467,613,l),
(450,627,l),
(449,641,l),
(459,648,l),
(464,660,l),
(476,668,l),
(489,677,l),
(497,691,l),
(511,693,l),
(523,695,l),
(539,693,l),
(556,688,l),
(569,686,l),
(581,691,l),
(592,693,l),
(604,693,l),
(616,695,l),
(634,693,l),
(655,688,l),
(672,686,l),
(686,686,l),
(700,686,l),
(712,683,l),
(725,685,l),
(736,680,l),
(743,672,l),
(753,665,l),
(753,658,l),
(748,645,l),
(731,640,l),
(713,633,l),
(696,627,l),
(688,613,l),
(672,603,l),
(651,599,l),
(643,588,l),
(639,565,l),
(639,548,l),
(643,537,l),
(644,524,l),
(641,513,l),
(649,497,l),
(653,476,l),
(649,454,l),
(658,432,l),
(663,416,l),
(663,400,l),
(658,386,l),
(660,370,l),
(658,355,l),
(656,339,l),
(660,324,l),
(656,308,l),
(661,295,l),
(658,280,l),
(661,268,l),
(663,256,l),
(660,244,l),
(660,228,l),
(661,213,l),
(661,199,l),
(661,183,l),
(661,169,l),
(660,156,l),
(661,141,l),
(663,124,l),
(672,102,l),
(673,84,l),
(684,91,l),
(696,91,l),
(710,88,l),
(722,88,l),
(740,86,l),
(757,79,l),
(769,72,l),
(772,62,l),
(769,52,l),
(755,49,l),
(745,39,l),
(733,36,l),
(722,24,l),
(708,10,l),
(696,3,l),
(684,-3,l),
(668,-3,l),
(648,-4,l),
(628,-3,l),
(609,-3,l),
(592,-4,l),
(574,-4,l),
(559,-4,l),
(549,-8,l),
(541,-13,l),
(528,-15,l),
(516,-20,l),
(504,-23,l),
(489,-15,l),
(472,-13,l),
(469,3,l),
(471,19,l),
(469,36,l),
(472,52,l),
(486,62,l),
(500,69,l),
(509,83,l),
(528,83,l),
(546,91,l),
(552,99,l),
(556,112,l),
(556,126,l),
(554,138,l),
(552,154,l),
(549,171,l),
(554,188,l),
(549,211,l),
(556,228,l),
(552,246,l),
(554,275,l),
(549,289,l),
(547,296,l),
(539,295,l),
(524,293,l),
(511,296,l),
(495,296,l),
(479,293,l),
(464,295,l),
(449,295,l),
(434,301,l),
(417,298,l),
(402,301,l),
(384,303,l),
(368,303,l),
(353,303,l),
(337,301,l),
(323,296,l),
(308,293,l),
(292,293,l),
(276,287,l),
(261,290,l),
(248,290,l),
(243,277,l),
(242,261,l),
(242,244,l),
(243,228,l),
(240,213,l),
(240,198,l),
(243,181,l),
(240,166,l),
(236,151,l),
(243,134,l),
(248,121,l),
(249,109,l),
(263,104,l),
(282,102,l),
(296,107,l),
(311,104,l),
(323,91,l),
(339,88,l),
(337,74,l),
(330,60,l),
(317,49,l),
(301,46,l),
(287,43,l),
(283,31,l),
(275,24,l),
(265,19,l),
(254,10,l),
(240,15,l),
(225,14,l),
(211,19,l),
(191,15,l),
(171,14,l),
(151,7,l),
(129,5,l),
(114,2,l),
(102,2,l),
(91,-6,l),
(79,-6,l),
(64,-6,l),
(44,-3,l),
(34,10,l),
(27,29,l),
(27,48,l),
(46,60,l),
(57,71,l),
(64,79,l),
(76,86,l),
(89,91,l),
(102,96,l),
(117,99,l),
(129,106,l),
(131,121,l),
(131,134,l),
(134,151,l),
(127,164,l),
(134,180,l),
(133,196,l),
(127,211,l),
(131,225,l),
(129,235,l),
(133,248,l),
(133,260,l),
(133,270,l),
(131,282,l),
(138,293,l),
(134,305,l),
(138,317,l),
(134,327,l),
(131,339,l),
(136,352,l),
(134,362,l),
(131,374,l),
(133,384,l),
(129,397,l),
(131,409,l),
(131,421,l),
(129,432,l),
(129,447,l),
(131,459,l),
(124,469,l),
(124,481,l),
(124,494,l),
(126,507,l),
(129,519,l),
(131,533,l),
(126,548,l),
(126,561,l),
(126,575,l),
(122,591,l),
(110,599,l),
(94,599,l),
(77,605,l),
(62,606,l),
(49,613,l),
(41,625,l),
(39,643,l),
(49,656,l),
(64,667,l),
(70,680,l),
(81,690,l),
(96,691,l),
(107,698,l),
(119,695,l),
(133,693,l),
(151,690,l),
(169,690,l),
(188,695,l),
(208,691,l),
(225,690,l),
(242,698,l),
(261,700,l),
(280,702,l)
);
}
);
width = 782;
}
);
unicode = 72;
},
{
glyphname = I;
lastChange = "2024-12-12 12:51:51 +0000";
layers = (
{
associatedMasterId = "764A1405-E697-4ABB-AAB9-F13AB1C32CC8";
layerId = "A7A88DC0-E7F2-46E2-8498-516E259ED036";
name = img;
width = 382;
},
{
anchors = (
{
name = bottom;
pos = (191,0);
},
{
name = ogonek;
pos = (274,10);
},
{
name = top;
pos = (201,700);
},
{
name = topleft;
pos = (20,700);
}
);
layerId = "764A1405-E697-4ABB-AAB9-F13AB1C32CC8";
shapes = (
{
closed = 1;
nodes = (
(127,703,l),
(141,701,l),
(157,700,l),
(175,700,l),
(195,698,l),
(213,701,l),
(231,698,l),
(248,701,l),
(267,698,l),
(283,700,l),
(300,698,l),
(321,696,l),
(338,698,l),
(357,694,l),
(371,693,l),
(376,682,l),
(376,672,l),
(369,662,l),
(359,657,l),
(345,651,l),
(335,642,l),
(324,633,l),
(312,629,l),
(300,620,l),
(288,612,l),
(272,610,l),
(260,608,l),
(254,599,l),
(248,584,l),
(247,567,l),
(243,546,l),
(243,523,l),
(243,502,l),
(245,482,l),
(245,461,l),
(243,437,l),
(247,421,l),
(250,411,l),
(247,392,l),
(250,371,l),
(248,347,l),
(252,326,l),
(252,303,l),
(254,283,l),
(252,267,l),
(247,252,l),
(245,234,l),
(247,217,l),
(248,198,l),
(252,181,l),
(258,159,l),
(258,137,l),
(263,118,l),
(274,105,l),
(285,96,l),
(299,96,l),
(314,96,l),
(326,96,l),
(338,92,l),
(351,89,l),
(355,77,l),
(355,66,l),
(353,55,l),
(342,49,l),
(328,46,l),
(315,33,l),
(300,21,l),
(285,10,l),
(271,6,l),
(258,8,l),
(241,6,l),
(227,8,l),
(213,4,l),
(200,6,l),
(186,4,l),
(174,-1,l),
(157,-1,l),
(143,-3,l),
(127,-4,l),
(112,-10,l),
(92,-15,l),
(75,-15,l),
(60,-11,l),
(55,-1,l),
(49,11,l),
(44,23,l),
(51,32,l),
(58,42,l),
(67,51,l),
(78,60,l),
(87,71,l),
(96,78,l),
(107,84,l),
(122,91,l),
(136,92,l),
(137,103,l),
(137,116,l),
(139,127,l),
(139,139,l),
(137,150,l),
(139,161,l),
(139,174,l),
(137,184,l),
(139,195,l),
(143,208,l),
(139,219,l),
(137,231,l),
(141,241,l),
(143,252,l),
(143,264,l),
(141,278,l),
(141,297,l),
(141,321,l),
(143,342,l),
(141,364,l),
(136,387,l),
(132,409,l),
(130,430,l),
(132,452,l),
(129,473,l),
(129,494,l),
(132,513,l),
(134,534,l),
(137,556,l),
(132,575,l),
(132,594,l),
(127,608,l),
(112,613,l),
(96,610,l),
(80,608,l),
(62,612,l),
(49,619,l),
(44,633,l),
(46,648,l),
(53,660,l),
(60,672,l),
(70,679,l),
(82,686,l),
(92,694,l),
(103,700,l),
(116,705,l)
);
}
);
width = 382;
}
);
unicode = 73;
},
{
glyphname = J;
lastChange = "2024-12-12 14:07:45 +0000";
layers = (
{
associatedMasterId = "764A1405-E697-4ABB-AAB9-F13AB1C32CC8";
layerId = "A7A88DC0-E7F2-46E2-8498-516E259ED036";
name = img;
width = 414;
},
{
anchors = (
{
name = bottom;
pos = (227,0);
},
{
name = top;
pos = (227,700);
}
);
layerId = "764A1405-E697-4ABB-AAB9-F13AB1C32CC8";
shapes = (
{
closed = 1;
nodes = (
(118,709,l),
(132,703,l),
(148,703,l),
(162,696,l),
(175,696,l),
(187,692,l),
(203,695,l),
(219,689,l),
(236,691,l),
(253,691,l),
(269,696,l),
(283,702,l),
(303,706,l),
(320,701,l),
(336,703,l),
(353,703,l),
(370,708,l),
(385,706,l),
(402,701,l),
(417,702,l),
(428,695,l),
(441,691,l),
(445,680,l),
(444,676,l),
(434,670,l),
(423,662,l),
(412,656,l),
(402,645,l),
(389,641,l),
(378,631,l),
(366,625,l),
(356,617,l),
(339,614,l),
(322,614,l),
(308,614,l),
(295,607,l),
(292,595,l),
(295,579,l),
(295,565,l),
(293,552,l),
(288,539,l),
(292,524,l),
(286,511,l),
(288,496,l),
(295,485,l),
(295,472,l),
(295,460,l),
(299,447,l),
(295,433,l),
(297,422,l),
(300,409,l),
(303,394,l),
(299,380,l),
(299,363,l),
(300,348,l),
(299,336,l),
(300,320,l),
(295,308,l),
(300,295,l),
(300,280,l),
(297,267,l),
(299,253,l),
(299,241,l),
(300,228,l),
(303,214,l),
(306,203,l),
(306,191,l),
(306,178,l),
(310,166,l),
(306,154,l),
(311,141,l),
(306,127,l),
(311,113,l),
(308,100,l),
(306,88,l),
(304,74,l),
(306,61,l),
(304,49,l),
(303,37,l),
(300,25,l),
(300,11,l),
(297,0,l),
(293,-13,l),
(293,-24,l),
(289,-36,l),
(289,-52,l),
(278,-68,l),
(275,-91,l),
(265,-107,l),
(258,-126,l),
(247,-138,l),
(235,-152,l),
(221,-165,l),
(204,-176,l),
(190,-187,l),
(173,-192,l),
(157,-204,l),
(140,-212,l),
(123,-226,l),
(105,-237,l),
(86,-245,l),
(63,-254,l),
(45,-266,l),
(24,-272,l),
(10,-276,l),
(-4,-272,l),
(-16,-277,l),
(-27,-277,l),
(-38,-272,l),
(-45,-265,l),
(-57,-257,l),
(-62,-245,l),
(-72,-238,l),
(-80,-229,l),
(-86,-217,l),
(-89,-205,l),
(-90,-197,l),
(-84,-187,l),
(-80,-174,l),
(-73,-159,l),
(-64,-146,l),
(-51,-137,l),
(-40,-121,l),
(-29,-113,l),
(-15,-103,l),
(5,-107,l),
(23,-109,l),
(35,-113,l),
(49,-119,l),
(55,-133,l),
(62,-149,l),
(69,-162,l),
(60,-192,l),
(97,-160,l),
(111,-155,l),
(119,-144,l),
(130,-133,l),
(140,-116,l),
(147,-98,l),
(152,-80,l),
(154,-59,l),
(162,-39,l),
(168,-18,l),
(175,3,l),
(176,25,l),
(184,44,l),
(184,65,l),
(186,88,l),
(184,110,l),
(186,132,l),
(179,152,l),
(176,173,l),
(182,191,l),
(187,212,l),
(180,230,l),
(186,248,l),
(179,269,l),
(176,290,l),
(179,308,l),
(176,327,l),
(176,348,l),
(176,369,l),
(176,389,l),
(173,409,l),
(168,426,l),
(169,441,l),
(169,453,l),
(173,465,l),
(169,479,l),
(171,500,l),
(168,522,l),
(168,545,l),
(171,565,l),
(165,585,l),
(152,600,l),
(132,606,l),
(111,598,l),
(90,600,l),
(72,603,l),
(55,606,l),
(40,614,l),
(33,631,l),
(38,652,l),
(51,669,l),
(69,680,l),
(86,698,l),
(105,703,l)
);
}
);
width = 434;
}
);
unicode = 74;
},
{
glyphname = K;
lastChange = "2024-12-12 12:51:51 +0000";
layers = (
{
associatedMasterId = "764A1405-E697-4ABB-AAB9-F13AB1C32CC8";
layerId = "A7A88DC0-E7F2-46E2-8498-516E259ED036";
name = img;
width = 687;
},
{
anchors = (
{
name = bottom;
pos = (344,0);
},
{
name = top;
pos = (344,700);
}
);
layerId = "764A1405-E697-4ABB-AAB9-F13AB1C32CC8";
shapes = (
{
closed = 1;
nodes = (
(476,704,l),
(494,697,l),
(511,695,l),
(526,700,l),
(540,702,l),
(556,702,l),
(568,697,l),
(578,692,l),
(590,687,l),
(605,687,l),
(619,686,l),
(632,682,l),
(640,677,l),
(643,668,l),
(640,658,l),
(632,650,l),
(624,645,l),
(615,638,l),
(607,630,l),
(596,623,l),
(590,615,l),
(581,607,l),
(566,605,l),
(548,601,l),
(529,598,l),
(512,594,l),
(501,586,l),
(494,578,l),
(488,569,l),
(481,560,l),
(473,550,l),
(460,540,l),
(450,529,l),
(439,517,l),
(430,504,l),
(421,491,l),
(411,478,l),
(399,463,l),
(391,450,l),
(383,443,l),
(378,435,l),
(368,429,l),
(365,417,l),
(367,402,l),
(370,388,l),
(373,378,l),
(378,370,l),
(383,360,l),
(388,347,l),
(401,332,l),
(411,314,l),
(422,301,l),
(432,286,l),
(440,271,l),
(450,257,l),
(460,244,l),
(471,229,l),
(481,214,l),
(489,199,l),
(501,186,l),
(509,172,l),
(521,157,l),
(535,143,l),
(547,129,l),
(558,114,l),
(570,104,l),
(581,98,l),
(591,91,l),
(604,90,l),
(614,88,l),
(625,91,l),
(635,91,l),
(643,99,l),
(651,103,l),
(660,104,l),
(667,109,l),
(673,108,l),
(677,98,l),
(676,88,l),
(670,78,l),
(664,70,l),
(655,63,l),
(645,52,l),
(643,41,l),
(629,31,l),
(615,26,l),
(599,19,l),
(586,12,l),
(573,6,l),
(561,-1,l),
(550,-9,l),
(535,-9,l),
(519,-6,l),
(508,3,l),
(494,9,l),
(483,17,l),
(471,27,l),
(459,37,l),
(450,49,l),
(440,60,l),
(432,71,l),
(424,85,l),
(414,95,l),
(409,109,l),
(399,121,l),
(390,135,l),
(385,148,l),
(377,162,l),
(368,172,l),
(362,182,l),
(355,194,l),
(347,202,l),
(340,212,l),
(332,222,l),
(323,230,l),
(316,242,l),
(309,252,l),
(301,265,l),
(295,274,l),
(290,288,l),
(280,298,l),
(271,311,l),
(260,321,l),
(247,330,l),
(242,347,l),
(244,365,l),
(246,381,l),
(252,396,l),
(266,405,l),
(278,417,l),
(288,430,l),
(298,448,l),
(313,460,l),
(323,478,l),
(339,491,l),
(350,506,l),
(362,521,l),
(372,538,l),
(383,551,l),
(395,565,l),
(407,576,l),
(421,589,l),
(422,604,l),
(416,613,l),
(406,623,l),
(399,633,l),
(393,643,l),
(395,653,l),
(406,661,l),
(414,674,l),
(426,681,l),
(437,687,l),
(447,695,l),
(459,702,l)
);
},
{
closed = 1;
nodes = (
(88,687,l),
(106,686,l),
(127,687,l),
(145,687,l),
(164,686,l),
(182,682,l),
(201,681,l),
(219,676,l),
(236,676,l),
(251,677,l),
(268,679,l),
(283,681,l),
(298,679,l),
(311,682,l),
(323,679,l),
(334,676,l),
(342,663,l),
(334,645,l),
(314,633,l),
(298,620,l),
(283,607,l),
(270,599,l),
(257,594,l),
(244,598,l),
(234,596,l),
(226,586,l),
(226,571,l),
(221,556,l),
(221,541,l),
(221,524,l),
(221,507,l),
(217,491,l),
(217,474,l),
(217,455,l),
(219,439,l),
(219,420,l),
(219,402,l),
(221,385,l),
(224,368,l),
(229,352,l),
(231,335,l),
(234,321,l),
(232,308,l),
(234,293,l),
(234,279,l),
(236,265,l),
(237,249,l),
(236,234,l),
(239,221,l),
(241,206,l),
(237,188,l),
(237,175,l),
(241,163,l),
(239,150,l),
(239,139,l),
(241,129,l),
(241,116,l),
(247,103,l),
(260,93,l),
(281,91,l),
(298,85,l),
(313,78,l),
(319,71,l),
(316,63,l),
(304,55,l),
(296,44,l),
(286,36,l),
(276,27,l),
(266,19,l),
(254,12,l),
(244,4,l),
(231,1,l),
(211,1,l),
(193,4,l),
(175,8,l),
(159,8,l),
(144,8,l),
(127,8,l),
(110,4,l),
(95,6,l),
(80,8,l),
(68,8,l),
(57,11,l),
(44,19,l),
(36,32,l),
(38,46,l),
(42,60,l),
(57,71,l),
(70,83,l),
(80,96,l),
(95,99,l),
(106,103,l),
(118,106,l),
(129,109,l),
(137,119,l),
(135,135,l),
(137,152,l),
(135,168,l),
(135,182,l),
(134,196,l),
(132,207,l),
(132,219,l),
(129,234,l),
(130,250,l),
(129,268,l),
(129,284,l),
(129,299,l),
(127,312,l),
(127,326,l),
(126,342,l),
(121,355,l),
(120,368,l),
(116,381,l),
(118,396,l),
(116,410,l),
(116,424,l),
(113,437,l),
(111,450,l),
(115,462,l),
(115,476,l),
(116,487,l),
(116,501,l),
(118,512,l),
(120,524,l),
(118,536,l),
(120,548,l),
(120,558,l),
(116,569,l),
(115,581,l),
(113,593,l),
(100,596,l),
(78,596,l),
(58,594,l),
(41,596,l),
(29,604,l),
(26,615,l),
(21,627,l),
(23,638,l),
(29,647,l),
(36,656,l),
(44,665,l),
(52,674,l),
(63,681,l),
(75,686,l)
);
}
);
width = 687;
}
);
unicode = 75;
},
{
glyphname = L;
kernLeft = L;
kernRight = L;
lastChange = "2024-12-12 14:07:47 +0000";
layers = (
{
associatedMasterId = "764A1405-E697-4ABB-AAB9-F13AB1C32CC8";
layerId = "A7A88DC0-E7F2-46E2-8498-516E259ED036";
name = img;
width = 570;
},
{
anchors = (
{
name = bottom;
pos = (285,0);
},
{
name = center;
pos = (167,350);
},
{
name = top;
pos = (185,700);
},
{
name = topright;
pos = (450,700);
}
);
layerId = "764A1405-E697-4ABB-AAB9-F13AB1C32CC8";
shapes = (
{
closed = 1;
nodes = (
(206,701,l),
(224,701,l),
(243,700,l),
(262,705,l),
(280,700,l),
(296,694,l),
(312,691,l),
(320,679,l),
(315,669,l),
(305,659,l),
(293,652,l),
(282,644,l),
(270,635,l),
(257,630,l),
(245,626,l),
(233,616,l),
(228,607,l),
(228,595,l),
(224,582,l),
(224,572,l),
(221,560,l),
(221,548,l),
(221,537,l),
(219,526,l),
(221,515,l),
(218,501,l),
(218,489,l),
(219,477,l),
(221,465,l),
(219,453,l),
(219,443,l),
(221,431,l),
(218,419,l),
(218,405,l),
(221,393,l),
(223,381,l),
(221,368,l),
(219,356,l),
(224,343,l),
(226,330,l),
(224,318,l),
(223,306,l),
(228,292,l),
(224,280,l),
(224,268,l),
(230,256,l),
(224,244,l),
(228,232,l),
(226,217,l),
(230,198,l),
(233,181,l),
(233,164,l),
(235,146,l),
(236,127,l),
(238,111,l),
(245,101,l),
(252,89,l),
(265,85,l),
(277,86,l),
(288,88,l),
(298,88,l),
(310,88,l),
(320,88,l),
(334,86,l),
(347,88,l),
(363,86,l),
(379,88,l),
(396,88,l),
(413,88,l),
(426,89,l),
(437,89,l),
(445,101,l),
(453,114,l),
(457,125,l),
(464,146,l),
(469,163,l),
(476,181,l),
(481,200,l),
(490,215,l),
(502,225,l),
(510,240,l),
(520,250,l),
(536,250,l),
(548,235,l),
(553,217,l),
(554,197,l),
(553,175,l),
(551,155,l),
(546,132,l),
(542,111,l),
(539,95,l),
(537,83,l),
(537,69,l),
(536,56,l),
(524,52,l),
(512,47,l),
(498,44,l),
(488,35,l),
(481,25,l),
(469,20,l),
(462,12,l),
(448,8,l),
(428,6,l),
(408,8,l),
(387,5,l),
(372,5,l),
(361,5,l),
(349,6,l),
(337,3,l),
(327,3,l),
(315,3,l),
(303,1,l),
(293,0,l),
(282,-2,l),
(270,0,l),
(258,3,l),
(248,3,l),
(236,1,l),
(224,3,l),
(213,5,l),
(201,6,l),
(187,6,l),
(170,5,l),
(153,5,l),
(134,3,l),
(115,3,l),
(97,5,l),
(78,3,l),
(62,8,l),
(45,18,l),
(38,37,l),
(36,51,l),
(45,57,l),
(51,68,l),
(58,76,l),
(67,83,l),
(75,92,l),
(85,95,l),
(95,101,l),
(105,104,l),
(117,104,l),
(123,112,l),
(122,129,l),
(120,144,l),
(122,159,l),
(122,173,l),
(122,186,l),
(122,200,l),
(125,214,l),
(125,227,l),
(125,242,l),
(125,256,l),
(122,270,l),
(118,282,l),
(120,294,l),
(118,304,l),
(118,314,l),
(118,326,l),
(111,336,l),
(111,348,l),
(110,359,l),
(113,371,l),
(110,383,l),
(111,395,l),
(110,407,l),
(111,424,l),
(115,443,l),
(113,462,l),
(118,481,l),
(115,496,l),
(120,509,l),
(120,523,l),
(118,537,l),
(118,548,l),
(117,560,l),
(115,572,l),
(117,584,l),
(110,597,l),
(110,611,l),
(108,616,l),
(101,616,l),
(87,614,l),
(75,611,l),
(63,609,l),
(48,604,l),
(33,609,l),
(21,617,l),
(16,624,l),
(14,635,l),
(19,647,l),
(28,666,l),
(43,676,l),
(56,689,l),
(75,694,l),
(90,696,l),
(102,700,l),
(117,698,l),
(140,698,l),
(155,700,l),
(167,700,l),
(179,701,l),
(190,701,l)
);
}
);
width = 570;
}
);
unicode = 76;
},
{
glyphname = M;
lastChange = "2024-12-12 14:08:35 +0000";
layers = (
{
associatedMasterId = "764A1405-E697-4ABB-AAB9-F13AB1C32CC8";
layerId = "A7A88DC0-E7F2-46E2-8498-516E259ED036";
name = img;
width = 921;
},
{
anchors = (
{
name = bottom;
pos = (481,0);
},
{
name = top;
pos = (481,700);
}
);
layerId = "764A1405-E697-4ABB-AAB9-F13AB1C32CC8";
shapes = (
{
closed = 1;
nodes = (
(746,705,l),
(766,702,l),
(784,702,l),
(804,698,l),
(820,697,l),
(836,695,l),
(849,688,l),
(864,681,l),
(871,677,l),
(867,670,l),
(858,660,l),
(849,653,l),
(840,646,l),
(831,637,l),
(820,626,l),
(811,614,l),
(804,599,l),
(804,586,l),
(806,574,l),
(808,561,l),
(813,549,l),
(815,534,l),
(816,521,l),
(818,509,l),
(818,494,l),
(818,478,l),
(822,464,l),
(820,447,l),
(822,433,l),
(825,419,l),
(827,403,l),
(831,388,l),
(831,370,l),
(834,350,l),
(834,330,l),
(832,313,l),
(836,294,l),
(834,278,l),
(832,260,l),
(834,244,l),
(836,225,l),
(841,209,l),
(840,193,l),
(844,177,l),
(846,160,l),
(851,144,l),
(855,130,l),
(860,118,l),
(871,112,l),
(885,112,l),
(899,114,l),
(914,114,l),
(932,112,l),
(947,107,l),
(957,100,l),
(957,86,l),
(943,72,l),
(931,61,l),
(918,52,l),
(905,44,l),
(896,33,l),
(882,25,l),
(869,23,l),
(855,23,l),
(836,21,l),
(818,11,l),
(800,5,l),
(783,-4,l),
(766,-5,l),
(750,2,l),
(737,-2,l),
(725,-4,l),
(712,-4,l),
(703,-9,l),
(690,-7,l),
(681,3,l),
(672,14,l),
(667,29,l),
(669,42,l),
(674,51,l),
(683,67,l),
(692,81,l),
(703,86,l),
(712,98,l),
(723,107,l),
(727,121,l),
(727,141,l),
(728,162,l),
(728,183,l),
(725,204,l),
(721,225,l),
(721,248,l),
(718,269,l),
(718,290,l),
(714,313,l),
(712,334,l),
(707,354,l),
(711,373,l),
(712,390,l),
(712,401,l),
(712,413,l),
(711,424,l),
(709,440,l),
(702,459,l),
(695,466,l),
(688,459,l),
(683,440,l),
(674,424,l),
(669,406,l),
(658,392,l),
(649,375,l),
(642,359,l),
(633,343,l),
(627,327,l),
(620,314,l),
(614,299,l),
(609,285,l),
(605,271,l),
(598,258,l),
(593,242,l),
(588,227,l),
(582,215,l),
(577,200,l),
(572,186,l),
(568,170,l),
(561,157,l),
(559,142,l),
(556,126,l),
(549,112,l),
(547,95,l),
(547,77,l),
(547,68,l),
(540,67,l),
(531,56,l),
(521,49,l),
(512,40,l),
(501,31,l),
(489,25,l),
(479,16,l),
(470,9,l),
(457,7,l),
(445,7,l),
(433,14,l),
(424,31,l),
(417,45,l),
(412,61,l),
(407,76,l),
(405,90,l),
(401,103,l),
(394,114,l),
(391,125,l),
(385,134,l),
(382,144,l),
(375,153,l),
(371,164,l),
(366,175,l),
(360,186,l),
(359,197,l),
(357,207,l),
(352,218,l),
(348,231,l),
(344,242,l),
(342,253,l),
(336,264,l),
(331,278,l),
(322,294,l),
(313,310,l),
(306,327,l),
(301,341,l),
(297,352,l),
(295,362,l),
(292,373,l),
(285,390,l),
(279,411,l),
(269,420,l),
(266,424,l),
(266,410,l),
(264,388,l),
(262,366,l),
(261,345,l),
(255,323,l),
(253,301,l),
(252,281,l),
(248,260,l),
(245,244,l),
(245,231,l),
(245,216,l),
(248,204,l),
(248,190,l),
(246,179,l),
(245,166,l),
(246,153,l),
(243,141,l),
(239,128,l),
(234,116,l),
(229,103,l),
(227,95,l),
(234,93,l),
(248,93,l),
(262,92,l),
(278,93,l),
(292,90,l),
(306,86,l),
(317,81,l),
(320,70,l),
(313,60,l),
(304,51,l),
(294,44,l),
(283,35,l),
(272,29,l),
(259,19,l),
(248,14,l),
(236,9,l),
(220,3,l),
(204,2,l),
(190,5,l),
(178,5,l),
(167,5,l),
(155,9,l),
(142,7,l),
(130,3,l),
(116,2,l),
(104,-4,l),
(90,-5,l),
(77,-9,l),
(63,-9,l),
(44,-9,l),
(28,3,l),
(21,23,l),
(25,42,l),
(33,61,l),
(46,74,l),
(55,83,l),
(68,90,l),
(84,95,l),
(100,95,l),
(113,93,l),
(127,93,l),
(137,102,l),
(142,114,l),
(144,128,l),
(149,141,l),
(149,157,l),
(151,172,l),
(151,186,l),
(149,202,l),
(153,218,l),
(155,234,l),
(156,253,l),
(162,269,l),
(162,287,l),
(167,303,l),
(169,320,l),
(172,338,l),
(172,352,l),
(174,362,l),
(176,373,l),
(176,387,l),
(174,397,l),
(176,408,l),
(178,420,l),
(178,431,l),
(178,447,l),
(185,466,l),
(187,485,l),
(190,505,l),
(194,527,l),
(194,549,l),
(192,568,l),
(190,582,l),
(181,591,l),
(171,593,l),
(158,591,l),
(146,593,l),
(132,597,l),
(118,603,l),
(111,612,l),
(107,623,l),
(111,637,l),
(116,649,l),
(123,662,l),
(132,673,l),
(140,686,l),
(151,695,l),
(165,700,l),
(178,704,l),
(192,698,l),
(207,695,l),
(221,693,l),
(234,695,l),
(245,693,l),
(255,697,l),
(268,695,l),
(281,697,l),
(294,698,l),
(304,695,l),
(317,691,l),
(326,684,l),
(335,673,l),
(342,656,l),
(346,639,l),
(350,619,l),
(353,601,l),
(355,581,l),
(359,563,l),
(362,545,l),
(368,529,l),
(375,512,l),
(378,496,l),
(387,480,l),
(392,466,l),
(396,447,l),
(401,431,l),
(408,417,l),
(417,401,l),
(420,385,l),
(429,370,l),
(434,354,l),
(438,338,l),
(447,323,l),
(452,306,l),
(457,289,l),
(465,267,l),
(472,248,l),
(481,229,l),
(492,225,l),
(501,236,l),
(508,253,l),
(514,269,l),
(521,285,l),
(526,299,l),
(531,308,l),
(539,320,l),
(542,330,l),
(546,343,l),
(551,354,l),
(559,362,l),
(564,373,l),
(568,387,l),
(573,395,l),
(577,408,l),
(582,419,l),
(586,429,l),
(593,440,l),
(596,451,l),
(602,462,l),
(609,473,l),
(612,485,l),
(618,498,l),
(623,510,l),
(627,523,l),
(635,536,l),
(638,550,l),
(644,561,l),
(647,574,l),
(649,586,l),
(654,597,l),
(653,610,l),
(654,623,l),
(656,633,l),
(660,644,l),
(665,653,l),
(672,664,l),
(683,673,l),
(692,684,l),
(703,693,l),
(716,700,l),
(730,704,l)
);
}
);
width = 941;
}
);
unicode = 77;
},
{
glyphname = N;
lastChange = "2024-12-12 14:07:52 +0000";
layers = (
{
associatedMasterId = "764A1405-E697-4ABB-AAB9-F13AB1C32CC8";
layerId = "A7A88DC0-E7F2-46E2-8498-516E259ED036";
name = img;
width = 797;
},
{
anchors = (
{
name = bottom;
pos = (419,0);
},
{
name = top;
pos = (419,700);
}
);
layerId = "764A1405-E697-4ABB-AAB9-F13AB1C32CC8";
shapes = (
{
closed = 1;
nodes = (
(599,714,l),
(614,712,l),
(629,710,l),
(644,710,l),
(656,705,l),
(670,701,l),
(686,699,l),
(698,699,l),
(711,696,l),
(726,696,l),
(741,696,l),
(753,701,l),
(768,699,l),
(781,699,l),
(794,703,l),
(806,703,l),
(817,696,l),
(832,692,l),
(847,690,l),
(852,677,l),
(843,668,l),
(832,662,l),
(819,657,l),
(808,650,l),
(799,641,l),
(790,631,l),
(778,627,l),
(769,617,l),
(759,615,l),
(742,609,l),
(728,613,l),
(715,606,l),
(704,597,l),
(704,578,l),
(704,560,l),
(697,544,l),
(700,523,l),
(707,503,l),
(706,482,l),
(706,468,l),
(709,454,l),
(715,439,l),
(711,424,l),
(709,411,l),
(715,399,l),
(716,386,l),
(716,367,l),
(716,348,l),
(716,325,l),
(713,305,l),
(713,289,l),
(709,274,l),
(716,259,l),
(713,245,l),
(715,231,l),
(715,215,l),
(707,201,l),
(706,185,l),
(704,168,l),
(709,150,l),
(706,134,l),
(707,116,l),
(715,102,l),
(715,82,l),
(711,69,l),
(697,54,l),
(680,44,l),
(663,33,l),
(649,16,l),
(629,9,l),
(607,1,l),
(587,7,l),
(574,12,l),
(561,16,l),
(554,26,l),
(545,33,l),
(534,40,l),
(528,51,l),
(519,58,l),
(508,65,l),
(501,77,l),
(495,86,l),
(486,95,l),
(479,106,l),
(474,116,l),
(465,126,l),
(460,137,l),
(453,148,l),
(447,161,l),
(433,170,l),
(424,183,l),
(412,194,l),
(402,206,l),
(394,221,l),
(384,233,l),
(373,243,l),
(366,256,l),
(361,270,l),
(349,277,l),
(347,295,l),
(336,304,l),
(329,314,l),
(322,327,l),
(316,340,l),
(308,351,l),
(299,362,l),
(292,375,l),
(285,386,l),
(278,399,l),
(274,411,l),
(263,422,l),
(259,438,l),
(253,443,l),
(255,434,l),
(248,420,l),
(251,406,l),
(248,392,l),
(246,378,l),
(246,364,l),
(242,349,l),
(244,335,l),
(244,320,l),
(242,305,l),
(246,291,l),
(242,276,l),
(244,261,l),
(248,247,l),
(248,233,l),
(246,217,l),
(246,205,l),
(248,190,l),
(251,175,l),
(253,161,l),
(253,146,l),
(253,134,l),
(251,120,l),
(257,109,l),
(270,100,l),
(290,102,l),
(310,100,l),
(329,95,l),
(343,91,l),
(343,79,l),
(341,63,l),
(327,58,l),
(318,49,l),
(308,40,l),
(295,31,l),
(288,18,l),
(278,9,l),
(269,0,l),
(253,3,l),
(237,5,l),
(224,7,l),
(212,1,l),
(198,5,l),
(184,1,l),
(171,1,l),
(158,0,l),
(144,1,l),
(127,-9,l),
(107,-13,l),
(85,-13,l),
(67,-9,l),
(50,-4,l),
(46,9,l),
(41,24,l),
(50,36,l),
(55,53,l),
(67,63,l),
(74,79,l),
(85,84,l),
(99,93,l),
(117,99,l),
(129,99,l),
(136,111,l),
(136,124,l),
(135,139,l),
(136,152,l),
(136,166,l),
(133,179,l),
(133,192,l),
(135,206,l),
(133,219,l),
(135,233,l),
(138,247,l),
(135,259,l),
(135,272,l),
(135,287,l),
(131,300,l),
(136,313,l),
(135,329,l),
(136,346,l),
(138,364,l),
(138,380,l),
(140,399,l),
(136,417,l),
(136,436,l),
(131,454,l),
(131,473,l),
(138,494,l),
(136,510,l),
(136,523,l),
(136,537,l),
(133,549,l),
(131,565,l),
(120,585,l),
(113,600,l),
(101,599,l),
(89,597,l),
(78,604,l),
(62,608,l),
(43,618,l),
(32,631,l),
(36,643,l),
(43,657,l),
(55,673,l),
(71,684,l),
(85,692,l),
(98,703,l),
(115,706,l),
(131,706,l),
(145,710,l),
(156,703,l),
(170,708,l),
(180,705,l),
(193,705,l),
(206,701,l),
(219,699,l),
(232,701,l),
(248,697,l),
(267,689,l),
(283,675,l),
(287,653,l),
(295,634,l),
(303,620,l),
(312,606,l),
(318,590,l),
(325,572,l),
(334,558,l),
(343,544,l),
(349,525,l),
(358,510,l),
(363,494,l),
(373,481,l),
(380,466,l),
(391,454,l),
(394,436,l),
(405,424,l),
(417,411,l),
(426,397,l),
(431,380,l),
(440,367,l),
(453,357,l),
(462,344,l),
(470,329,l),
(481,316,l),
(488,302,l),
(499,287,l),
(515,272,l),
(523,252,l),
(534,236,l),
(545,223,l),
(554,214,l),
(561,205,l),
(568,196,l),
(582,187,l),
(594,181,l),
(598,178,l),
(599,187,l),
(603,205,l),
(603,223,l),
(601,243,l),
(601,259,l),
(603,276,l),
(605,291,l),
(603,307,l),
(603,322,l),
(603,339,l),
(603,355,l),
(601,371,l),
(598,388,l),
(598,404,l),
(596,422,l),
(596,439,l),
(596,454,l),
(591,470,l),
(596,487,l),
(592,501,l),
(592,516,l),
(596,528,l),
(592,544,l),
(598,556,l),
(594,569,l),
(598,581,l),
(589,595,l),
(582,604,l),
(568,600,l),
(555,600,l),
(543,599,l),
(532,611,l),
(523,622,l),
(519,633,l),
(517,648,l),
(525,659,l),
(528,673,l),
(539,684,l),
(552,692,l),
(563,705,l),
(583,714,l)
);
}
);
width = 817;
}
);
unicode = 78;
},
{
glyphname = O;
kernLeft = _O;
kernRight = _O;
lastChange = "2024-12-12 14:08:16 +0000";
layers = (
{
associatedMasterId = "764A1405-E697-4ABB-AAB9-F13AB1C32CC8";
layerId = "A7A88DC0-E7F2-46E2-8498-516E259ED036";
name = img;
width = 703;
},
{
anchors = (
{
name = bottom;
pos = (362,0);
},
{
name = center;
pos = (362,350);
},
{
name = ogonek;
pos = (643,10);
},
{
name = top;
pos = (362,700);
},
{
name = topleft;
pos = (30,700);
},
{
name = topright;
pos = (693,700);
}
);
layerId = "764A1405-E697-4ABB-AAB9-F13AB1C32CC8";
shapes = (
{
closed = 1;
nodes = (
(279,596,l),
(269,588,l),
(257,578,l),
(245,571,l),
(238,559,l),
(229,546,l),
(221,535,l),
(209,523,l),
(204,509,l),
(195,496,l),
(188,483,l),
(181,470,l),
(178,456,l),
(171,441,l),
(169,427,l),
(161,413,l),
(159,396,l),
(153,382,l),
(151,367,l),
(151,350,l),
(153,334,l),
(156,319,l),
(156,303,l),
(161,287,l),
(167,273,l),
(169,257,l),
(176,242,l),
(181,226,l),
(190,214,l),
(199,199,l),
(206,185,l),
(219,175,l),
(229,163,l),
(240,153,l),
(250,141,l),
(262,131,l),
(275,124,l),
(288,115,l),
(302,108,l),
(316,103,l),
(330,98,l),
(344,93,l),
(359,93,l),
(375,91,l),
(389,93,l),
(404,93,l),
(421,95,l),
(435,100,l),
(449,103,l),
(462,113,l),
(474,122,l),
(490,129,l),
(505,138,l),
(517,148,l),
(527,155,l),
(534,166,l),
(541,178,l),
(548,187,l),
(552,201,l),
(558,218,l),
(565,230,l),
(567,244,l),
(574,259,l),
(574,274,l),
(577,288,l),
(580,303,l),
(579,317,l),
(579,331,l),
(580,345,l),
(575,358,l),
(574,370,l),
(570,384,l),
(563,395,l),
(558,409,l),
(554,422,l),
(546,434,l),
(538,446,l),
(531,457,l),
(524,470,l),
(515,480,l),
(510,492,l),
(499,502,l),
(490,514,l),
(483,524,l),
(472,530,l),
(462,538,l),
(452,548,l),
(444,559,l),
(435,565,l),
(423,571,l),
(412,578,l),
(399,585,l),
(389,590,l),
(378,598,l),
(363,599,l),
(344,605,l),
(325,603,l),
(305,603,l),
(291,603,l)
);
},
{
closed = 1;
nodes = (
(384,714,l),
(397,709,l),
(412,704,l),
(426,701,l),
(440,695,l),
(452,689,l),
(465,682,l),
(478,677,l),
(492,672,l),
(502,661,l),
(515,654,l),
(527,647,l),
(541,639,l),
(552,627,l),
(565,619,l),
(574,606,l),
(586,598,l),
(596,585,l),
(606,571,l),
(618,562,l),
(627,548,l),
(635,533,l),
(642,519,l),
(646,504,l),
(659,490,l),
(662,475,l),
(668,461,l),
(678,446,l),
(676,429,l),
(683,415,l),
(689,398,l),
(687,382,l),
(689,367,l),
(690,350,l),
(692,333,l),
(692,317,l),
(687,300,l),
(683,285,l),
(680,267,l),
(680,249,l),
(671,232,l),
(666,214,l),
(662,199,l),
(654,191,l),
(648,178,l),
(639,170,l),
(625,165,l),
(618,151,l),
(608,143,l),
(594,136,l),
(582,127,l),
(570,120,l),
(560,111,l),
(546,105,l),
(534,100,l),
(524,91,l),
(513,81,l),
(500,74,l),
(490,62,l),
(479,47,l),
(467,36,l),
(452,31,l),
(444,21,l),
(430,21,l),
(421,14,l),
(411,8,l),
(399,1,l),
(389,-5,l),
(377,-6,l),
(364,-12,l),
(348,-15,l),
(330,-13,l),
(315,-15,l),
(300,-8,l),
(286,-8,l),
(272,-1,l),
(259,1,l),
(247,10,l),
(234,14,l),
(222,17,l),
(207,21,l),
(197,26,l),
(187,35,l),
(176,43,l),
(167,50,l),
(158,60,l),
(146,63,l),
(137,72,l),
(128,79,l),
(119,90,l),
(112,98,l),
(103,105,l),
(96,118,l),
(87,127,l),
(87,141,l),
(79,150,l),
(75,163,l),
(68,173,l),
(62,187,l),
(57,198,l),
(53,213,l),
(55,228,l),
(48,240,l),
(44,255,l),
(50,269,l),
(43,283,l),
(43,297,l),
(46,312,l),
(46,326,l),
(43,341,l),
(41,356,l),
(50,367,l),
(53,379,l),
(57,393,l),
(62,406,l),
(68,418,l),
(68,432,l),
(73,444,l),
(79,459,l),
(91,466,l),
(96,478,l),
(96,494,l),
(110,504,l),
(116,519,l),
(126,530,l),
(133,544,l),
(146,553,l),
(153,567,l),
(161,579,l),
(171,593,l),
(185,603,l),
(195,613,l),
(204,626,l),
(214,638,l),
(226,647,l),
(236,658,l),
(248,668,l),
(265,675,l),
(274,689,l),
(289,699,l),
(305,704,l),
(327,708,l),
(348,709,l),
(366,716,l)
);
}
);
width = 723;
}
);
unicode = 79;
},
{
glyphname = Oslash;
kernLeft = _O;
kernRight = _O;
lastChange = "2024-12-12 13:28:59 +0000";
layers = (
{
associatedMasterId = "764A1405-E697-4ABB-AAB9-F13AB1C32CC8";
layerId = "A7A88DC0-E7F2-46E2-8498-516E259ED036";
name = img;
width = 719;
},
{
layerId = "764A1405-E697-4ABB-AAB9-F13AB1C32CC8";
shapes = (
{
closed = 1;
nodes = (
(489,496,l),
(479,478,l),
(466,462,l),
(454,445,l),
(440,429,l),
(428,412,l),
(416,396,l),
(404,378,l),
(393,359,l),
(383,339,l),
(373,320,l),
(363,302,l),
(351,290,l),
(339,280,l),
(329,270,l),
(317,260,l),
(309,246,l),
(299,233,l),
(290,219,l),
(282,204,l),
(271,190,l),
(262,178,l),
(251,165,l),
(245,151,l),
(246,140,l),
(255,129,l),
(270,122,l),
(290,114,l),
(312,107,l),
(334,99,l),
(357,97,l),
(376,95,l),
(396,97,l),
(412,103,l),
(426,112,l),
(440,122,l),
(454,131,l),
(470,140,l),
(485,149,l),
(495,159,l),
(506,170,l),
(515,181,l),
(526,190,l),
(536,203,l),
(544,216,l),
(553,230,l),
(562,242,l),
(568,257,l),
(575,272,l),
(580,288,l),
(586,303,l),
(588,320,l),
(589,337,l),
(589,354,l),
(586,373,l),
(582,393,l),
(574,414,l),
(562,434,l),
(553,452,l),
(544,470,l),
(532,485,l),
(521,500,l),
(511,511,l),
(500,510,l)
);
},
{
closed = 1;
nodes = (
(296,598,l),
(284,598,l),
(275,598,l),
(264,597,l),
(249,590,l),
(237,578,l),
(226,567,l),
(217,554,l),
(210,540,l),
(201,526,l),
(189,512,l),
(177,497,l),
(165,484,l),
(156,469,l),
(150,453,l),
(146,440,l),
(140,425,l),
(136,411,l),
(134,396,l),
(132,380,l),
(131,365,l),
(132,350,l),
(133,333,l),
(134,318,l),
(134,302,l),
(139,287,l),
(143,273,l),
(147,260,l),
(152,246,l),
(159,233,l),
(164,220,l),
(172,210,l),
(179,197,l),
(187,190,l),
(196,191,l),
(210,204,l),
(226,223,l),
(242,239,l),
(256,255,l),
(266,269,l),
(271,282,l),
(279,292,l),
(286,303,l),
(296,314,l),
(302,327,l),
(312,337,l),
(319,348,l),
(326,360,l),
(335,370,l),
(342,382,l),
(350,393,l),
(358,404,l),
(365,415,l),
(374,427,l),
(381,440,l),
(391,451,l),
(401,465,l),
(412,478,l),
(420,492,l),
(429,507,l),
(439,520,l),
(448,535,l),
(453,549,l),
(444,562,l),
(431,574,l),
(412,580,l),
(394,589,l),
(374,593,l),
(352,598,l),
(331,601,l),
(312,601,l)
);
},
{
closed = 1;
nodes = (
(622,779,l),
(635,774,l),
(644,766,l),
(644,751,l),
(637,735,l),
(630,719,l),
(623,702,l),
(611,689,l),
(604,673,l),
(591,660,l),
(584,644,l),
(575,632,l),
(581,621,l),
(585,609,l),
(595,600,l),
(604,591,l),
(611,579,l),
(623,574,l),
(631,563,l),
(636,550,l),
(646,537,l),
(655,523,l),
(663,508,l),
(667,490,l),
(674,474,l),
(685,459,l),
(688,441,l),
(691,423,l),
(691,404,l),
(693,385,l),
(693,367,l),
(689,350,l),
(685,335,l),
(678,318,l),
(674,302,l),
(670,286,l),
(661,273,l),
(652,261,l),
(644,248,l),
(641,233,l),
(630,219,l),
(620,205,l),
(606,193,l),
(598,178,l),
(584,166,l),
(574,152,l),
(561,141,l),
(549,128,l),
(538,118,l),
(530,106,l),
(517,98,l),
(508,85,l),
(491,78,l),
(473,69,l),
(458,56,l),
(441,51,l),
(432,40,l),
(423,32,l),
(414,23,l),
(403,17,l),
(396,7,l),
(383,-4,l),
(366,-9,l),
(348,-12,l),
(328,-12,l),
(306,-14,l),
(284,-11,l),
(266,-5,l),
(247,0,l),
(230,3,l),
(214,11,l),
(197,21,l),
(185,37,l),
(166,46,l),
(149,46,l),
(137,39,l),
(126,28,l),
(118,7,l),
(104,-8,l),
(97,-21,l),
(92,-34,l),
(84,-42,l),
(76,-56,l),
(62,-68,l),
(49,-75,l),
(36,-69,l),
(29,-58,l),
(22,-47,l),
(28,-32,l),
(31,-12,l),
(44,4,l),
(53,24,l),
(69,38,l),
(82,54,l),
(94,73,l),
(96,90,l),
(91,107,l),
(80,120,l),
(70,136,l),
(64,155,l),
(55,173,l),
(47,190,l),
(39,210,l),
(37,230,l),
(36,248,l),
(38,264,l),
(39,282,l),
(39,298,l),
(37,312,l),
(32,325,l),
(35,340,l),
(40,358,l),
(46,376,l),
(51,399,l),
(62,419,l),
(69,440,l),
(79,460,l),
(92,478,l),
(100,497,l),
(113,515,l),
(125,532,l),
(136,548,l),
(148,565,l),
(163,580,l),
(178,594,l),
(191,610,l),
(209,621,l),
(219,637,l),
(229,649,l),
(238,659,l),
(249,666,l),
(262,674,l),
(277,682,l),
(292,687,l),
(305,695,l),
(322,704,l),
(342,707,l),
(361,706,l),
(381,711,l),
(401,704,l),
(420,704,l),
(440,697,l),
(458,691,l),
(476,686,l),
(489,675,l),
(506,668,l),
(522,675,l),
(536,686,l),
(543,701,l),
(553,717,l),
(559,733,l),
(570,746,l),
(582,756,l),
(593,769,l),
(607,776,l)
);
}
);
width = 719;
}
);
unicode = 216;
},
{
glyphname = OE;
kernLeft = O;
lastChange = "2024-12-12 13:29:03 +0000";
layers = (
{
associatedMasterId = "764A1405-E697-4ABB-AAB9-F13AB1C32CC8";
layerId = "A7A88DC0-E7F2-46E2-8498-516E259ED036";
name = img;
width = 927;
},
{
anchors = (
{
name = bottom;
pos = (464,0);
},
{
name = top;
pos = (464,700);
}
);
layerId = "764A1405-E697-4ABB-AAB9-F13AB1C32CC8";
shapes = (
{
closed = 1;
nodes = (
(74,492,l),
(76,500,l),
(81,512,l),
(86,525,l),
(94,534,l),
(102,544,l),
(107,555,l),
(117,563,l),
(120,575,l),
(128,585,l),
(139,591,l),
(139,605,l),
(157,625,l),
(170,628,l),
(181,634,l),
(187,646,l),
(195,655,l),
(207,659,l),
(219,664,l),
(229,670,l),
(239,677,l),
(251,686,l),
(263,688,l),
(276,691,l),
(291,691,l),
(305,699,l),
(320,699,l),
(337,691,l),
(355,692,l),
(372,689,l),
(388,690,l),
(402,682,l),
(416,678,l),
(425,669,l),
(438,664,l),
(448,655,l),
(459,659,l),
(472,668,l),
(484,681,l),
(499,691,l),
(511,701,l),
(527,707,l),
(545,713,l),
(559,711,l),
(570,709,l),
(580,702,l),
(593,700,l),
(605,695,l),
(618,700,l),
(629,692,l),
(641,688,l),
(656,685,l),
(674,684,l),
(689,683,l),
(704,691,l),
(720,688,l),
(735,692,l),
(749,691,l),
(764,693,l),
(780,689,l),
(796,696,l),
(812,697,l),
(828,699,l),
(843,692,l),
(856,690,l),
(870,693,l),
(876,681,l),
(884,671,l),
(883,661,l),
(876,649,l),
(876,636,l),
(880,625,l),
(871,613,l),
(868,601,l),
(866,589,l),
(869,577,l),
(864,566,l),
(861,555,l),
(851,544,l),
(837,534,l),
(826,528,l),
(819,531,l),
(809,549,l),
(804,570,l),
(794,588,l),
(773,594,l),
(754,591,l),
(741,599,l),
(729,600,l),
(717,598,l),
(703,598,l),
(686,592,l),
(671,590,l),
(657,594,l),
(638,595,l),
(617,592,l),
(596,589,l),
(578,590,l),
(576,577,l),
(571,568,l),
(569,555,l),
(568,542,l),
(566,530,l),
(567,518,l),
(561,506,l),
(561,492,l),
(562,492,l),
(570,467,l),
(565,453,l),
(567,438,l),
(566,418,l),
(579,403,l),
(595,404,l),
(617,402,l),
(636,398,l),
(657,400,l),
(679,403,l),
(697,410,l),
(715,410,l),
(729,411,l),
(738,422,l),
(751,429,l),
(763,438,l),
(766,454,l),
(780,459,l),
(791,467,l),
(801,477,l),
(813,473,l),
(823,467,l),
(825,455,l),
(833,443,l),
(828,431,l),
(821,418,l),
(821,399,l),
(809,382,l),
(810,362,l),
(815,346,l),
(819,329,l),
(813,311,l),
(808,297,l),
(806,292,l),
(801,275,l),
(791,268,l),
(771,239,l),
(766,237,l),
(756,242,l),
(749,252,l),
(740,259,l),
(739,271,l),
(727,278,l),
(727,292,l),
(724,297,l),
(720,301,l),
(712,311,l),
(696,314,l),
(678,316,l),
(657,309,l),
(636,312,l),
(616,307,l),
(595,304,l),
(582,297,l),
(571,290,l),
(568,272,l),
(567,253,l),
(563,221,l),
(565,208,l),
(566,192,l),
(567,178,l),
(570,164,l),
(576,149,l),
(573,134,l),
(581,120,l),
(584,101,l),
(602,100,l),
(620,92,l),
(640,93,l),
(658,97,l),
(674,96,l),
(684,105,l),
(700,103,l),
(715,97,l),
(732,102,l),
(748,100,l),
(766,98,l),
(783,103,l),
(800,105,l),
(814,111,l),
(826,120,l),
(824,135,l),
(832,148,l),
(838,157,l),
(847,169,l),
(857,177,l),
(866,185,l),
(872,195,l),
(883,196,l),
(890,187,l),
(893,175,l),
(895,160,l),
(892,148,l),
(885,131,l),
(878,116,l),
(876,99,l),
(880,82,l),
(875,67,l),
(863,59,l),
(857,48,l),
(847,40,l),
(838,28,l),
(833,15,l),
(821,10,l),
(811,-1,l),
(800,-2,l),
(790,2,l),
(778,0,l),
(764,-2,l),
(749,4,l),
(734,-2,l),
(715,-4,l),
(698,1,l),
(680,2,l),
(658,-3,l),
(638,0,l),
(616,0,l),
(596,1,l),
(580,-4,l),
(565,0,l),
(537,0,l),
(522,-4,l),
(508,-2,l),
(496,0,l),
(485,9,l),
(475,21,l),
(465,37,l),
(464,56,l),
(461,74,l),
(456,87,l),
(456,93,l),
(449,84,l),
(439,74,l),
(426,67,l),
(415,63,l),
(402,52,l),
(389,48,l),
(377,36,l),
(363,31,l),
(349,21,l),
(332,23,l),
(318,15,l),
(303,8,l),
(285,11,l),
(267,8,l),
(249,15,l),
(231,12,l),
(213,13,l),
(195,9,l),
(179,20,l),
(164,30,l),
(148,39,l),
(135,50,l),
(127,62,l),
(115,65,l),
(104,68,l),
(96,79,l),
(85,84,l),
(75,89,l),
(70,101,l),
(61,112,l),
(55,127,l),
(50,146,l),
(45,165,l),
(43,185,l),
(37,203,l),
(32,223,l),
(21,241,l),
(18,260,l),
(21,275,l),
(23,292,l),
(23,297,l),
(21,312,l),
(26,331,l),
(28,352,l),
(33,368,l),
(39,385,l),
(45,400,l),
(46,415,l),
(56,426,l),
(55,440,l),
(56,453,l),
(66,462,l),
(67,477,l),
(73,488,l)
);
},
{
closed = 1;
nodes = (
(151,492,l),
(145,472,l),
(139,454,l),
(137,440,l),
(133,428,l),
(132,415,l),
(129,403,l),
(128,391,l),
(123,380,l),
(119,367,l),
(120,354,l),
(118,342,l),
(118,329,l),
(119,316,l),
(117,304,l),
(117,297,l),
(118,293,l),
(120,281,l),
(120,268,l),
(124,254,l),
(129,236,l),
(134,214,l),
(145,197,l),
(153,180,l),
(176,157,l),
(187,145,l),
(201,139,l),
(213,129,l),
(228,123,l),
(242,115,l),
(257,110,l),
(271,105,l),
(287,103,l),
(304,106,l),
(321,106,l),
(349,116,l),
(364,122,l),
(392,130,l),
(404,139,l),
(416,146,l),
(429,153,l),
(439,164,l),
(448,174,l),
(458,184,l),
(463,197,l),
(469,227,l),
(468,244,l),
(468,259,l),
(469,273,l),
(470,286,l),
(472,297,l),
(473,300,l),
(475,313,l),
(476,327,l),
(477,340,l),
(477,353,l),
(474,365,l),
(473,379,l),
(468,394,l),
(467,410,l),
(466,425,l),
(464,441,l),
(466,456,l),
(464,472,l),
(462,487,l),
(459,492,l),
(452,500,l),
(444,515,l),
(434,530,l),
(423,544,l),
(411,557,l),
(395,566,l),
(379,577,l),
(361,584,l),
(349,590,l),
(337,592,l),
(326,596,l),
(312,599,l),
(294,602,l),
(275,603,l),
(260,599,l),
(234,590,l),
(223,583,l),
(213,576,l),
(202,569,l),
(190,561,l),
(183,551,l),
(175,541,l),
(167,529,l),
(160,512,l)
);
}
);
width = 927;
}
);
unicode = 338;
},
{
glyphname = P;
lastChange = "2024-12-12 14:07:56 +0000";
layers = (
{
associatedMasterId = "764A1405-E697-4ABB-AAB9-F13AB1C32CC8";
layerId = "A7A88DC0-E7F2-46E2-8498-516E259ED036";
name = img;
width = 593;
},
{
layerId = "764A1405-E697-4ABB-AAB9-F13AB1C32CC8";
shapes = (
{
closed = 1;
nodes = (
(263,597,l),
(251,590,l),
(246,575,l),
(245,560,l),
(245,542,l),
(243,523,l),
(245,503,l),
(246,488,l),
(250,473,l),
(250,457,l),
(250,444,l),
(251,432,l),
(250,419,l),
(250,407,l),
(251,397,l),
(251,384,l),
(256,370,l),
(270,363,l),
(287,362,l),
(303,360,l),
(320,358,l),
(335,358,l),
(352,358,l),
(368,362,l),
(384,362,l),
(399,365,l),
(413,372,l),
(426,377,l),
(436,385,l),
(448,394,l),
(457,404,l),
(464,417,l),
(470,434,l),
(473,451,l),
(476,469,l),
(473,486,l),
(468,503,l),
(459,518,l),
(448,533,l),
(436,545,l),
(421,555,l),
(408,567,l),
(389,574,l),
(371,582,l),
(352,586,l),
(334,593,l),
(317,597,l),
(297,599,l),
(280,599,l)
);
},
{
closed = 1;
nodes = (
(105,708,l),
(117,711,l),
(127,710,l),
(138,701,l),
(152,705,l),
(166,706,l),
(179,705,l),
(191,706,l),
(203,700,l),
(216,698,l),
(231,706,l),
(243,698,l),
(256,696,l),
(268,700,l),
(280,693,l),
(292,693,l),
(305,694,l),
(318,693,l),
(330,698,l),
(344,689,l),
(359,694,l),
(373,696,l),
(391,693,l),
(404,686,l),
(421,679,l),
(440,676,l),
(457,665,l),
(475,658,l),
(490,648,l),
(504,636,l),
(521,629,l),
(539,624,l),
(552,612,l),
(555,593,l),
(569,577,l),
(574,562,l),
(578,548,l),
(579,538,l),
(579,526,l),
(588,514,l),
(588,496,l),
(584,478,l),
(581,461,l),
(576,446,l),
(572,429,l),
(561,417,l),
(552,404,l),
(543,390,l),
(526,384,l),
(515,370,l),
(505,355,l),
(488,346,l),
(476,332,l),
(466,320,l),
(448,313,l),
(438,299,l),
(425,289,l),
(411,281,l),
(396,277,l),
(380,281,l),
(361,274,l),
(342,271,l),
(322,266,l),
(305,262,l),
(287,261,l),
(272,264,l),
(258,254,l),
(250,251,l),
(245,236,l),
(248,217,l),
(253,200,l),
(251,180,l),
(255,162,l),
(258,143,l),
(256,125,l),
(260,109,l),
(270,103,l),
(284,101,l),
(302,96,l),
(313,103,l),
(325,97,l),
(335,103,l),
(346,103,l),
(359,97,l),
(368,88,l),
(366,79,l),
(364,69,l),
(359,57,l),
(347,51,l),
(337,44,l),
(325,39,l),
(315,30,l),
(312,18,l),
(297,13,l),
(287,7,l),
(273,6,l),
(260,-3,l),
(246,6,l),
(233,6,l),
(219,12,l),
(203,7,l),
(189,2,l),
(179,0,l),
(169,0,l),
(157,0,l),
(144,-1,l),
(126,0,l),
(109,-8,l),
(90,-8,l),
(71,-6,l),
(56,2,l),
(50,15,l),
(48,27,l),
(53,40,l),
(56,56,l),
(68,61,l),
(76,69,l),
(82,79,l),
(93,83,l),
(104,90,l),
(119,94,l),
(134,101,l),
(140,119,l),
(137,136,l),
(138,150,l),
(137,162,l),
(138,172,l),
(134,185,l),
(140,197,l),
(142,207,l),
(137,219,l),
(138,232,l),
(138,251,l),
(138,271,l),
(144,289,l),
(140,306,l),
(140,320,l),
(140,332,l),
(140,345,l),
(138,356,l),
(142,367,l),
(145,378,l),
(147,390,l),
(142,402,l),
(147,414,l),
(140,427,l),
(144,439,l),
(142,451,l),
(144,463,l),
(140,473,l),
(137,483,l),
(137,495,l),
(138,508,l),
(137,523,l),
(131,536,l),
(132,553,l),
(140,567,l),
(131,579,l),
(124,592,l),
(119,602,l),
(104,607,l),
(87,607,l),
(73,610,l),
(59,609,l),
(43,612,l),
(30,615,l),
(23,626,l),
(18,638,l),
(11,651,l),
(25,665,l),
(35,681,l),
(53,689,l),
(65,700,l),
(78,705,l),
(92,711,l)
);
}
);
width = 593;
}
);
unicode = 80;
},
{
glyphname = Thorn;
lastChange = "2024-12-12 12:51:51 +0000";
layers = (
{
layerId = "764A1405-E697-4ABB-AAB9-F13AB1C32CC8";
shapes = (
{
closed = 1;
nodes = (
(253,482,l),
(241,475,l),
(236,461,l),
(235,447,l),
(235,429,l),
(233,411,l),
(235,392,l),
(236,378,l),
(240,363,l),
(240,348,l),
(240,335,l),
(241,324,l),
(240,311,l),
(240,300,l),
(241,290,l),
(241,278,l),
(246,264,l),
(260,258,l),
(277,257,l),
(293,255,l),
(310,253,l),
(325,253,l),
(342,253,l),
(358,257,l),
(374,257,l),
(389,260,l),
(403,266,l),
(416,271,l),
(426,279,l),
(438,287,l),
(447,297,l),
(454,309,l),
(460,326,l),
(463,342,l),
(466,359,l),
(463,376,l),
(458,392,l),
(449,406,l),
(438,421,l),
(426,432,l),
(411,442,l),
(398,453,l),
(379,460,l),
(361,468,l),
(342,471,l),
(324,478,l),
(307,482,l),
(287,484,l),
(270,484,l)
);
},
{
closed = 1;
nodes = (
(128,582,l),
(142,585,l),
(156,586,l),
(169,585,l),
(181,586,l),
(193,581,l),
(206,579,l),
(221,586,l),
(233,579,l),
(246,577,l),
(258,581,l),
(270,574,l),
(282,574,l),
(295,575,l),
(308,574,l),
(320,579,l),
(334,570,l),
(349,575,l),
(363,577,l),
(381,574,l),
(394,567,l),
(411,561,l),
(430,558,l),
(447,547,l),
(465,540,l),
(480,531,l),
(494,519,l),
(511,513,l),
(529,508,l),
(542,496,l),
(545,478,l),
(559,463,l),
(564,448,l),
(568,435,l),
(569,425,l),
(569,414,l),
(578,402,l),
(578,385,l),
(574,368,l),
(571,352,l),
(566,337,l),
(562,321,l),
(551,309,l),
(542,297,l),
(533,284,l),
(516,278,l),
(505,264,l),
(495,250,l),
(478,241,l),
(466,228,l),
(456,217,l),
(438,210,l),
(428,196,l),
(415,187,l),
(401,179,l),
(386,175,l),
(370,179,l),
(351,172,l),
(332,170,l),
(312,165,l),
(295,161,l),
(277,160,l),
(262,163,l),
(248,153,l),
(240,150,l),
(239,125,l),
(243,109,l),
(260,103,l),
(274,101,l),
(292,96,l),
(303,103,l),
(315,97,l),
(325,103,l),
(336,103,l),
(349,97,l),
(358,88,l),
(356,79,l),
(354,69,l),
(349,57,l),
(337,51,l),
(327,44,l),
(315,39,l),
(305,30,l),
(302,18,l),
(287,13,l),
(277,7,l),
(263,6,l),
(250,-3,l),
(236,6,l),
(223,6,l),
(209,12,l),
(193,7,l),
(179,2,l),
(169,0,l),
(159,0,l),
(147,0,l),
(134,-1,l),
(116,0,l),
(99,-8,l),
(80,-8,l),
(61,-6,l),
(46,2,l),
(40,15,l),
(38,27,l),
(43,40,l),
(46,56,l),
(58,61,l),
(66,69,l),
(72,79,l),
(83,83,l),
(94,90,l),
(109,94,l),
(124,101,l),
(130,119,l),
(127,136,l),
(132,155,l),
(127,169,l),
(128,183,l),
(128,204,l),
(128,226,l),
(134,245,l),
(130,264,l),
(130,280,l),
(130,293,l),
(130,308,l),
(128,319,l),
(132,332,l),
(135,343,l),
(137,356,l),
(132,370,l),
(137,383,l),
(130,398,l),
(134,410,l),
(132,424,l),
(134,437,l),
(130,447,l),
(127,459,l),
(127,472,l),
(128,486,l),
(127,503,l),
(121,517,l),
(122,536,l),
(130,549,l),
(121,561,l)
);
},
{
closed = 1;
nodes = (
(133,473,l),
(133,494,l),
(129,513,l),
(127,534,l),
(123,556,l),
(129,575,l),
(129,594,l),
(113,608,l),
(98,613,l),
(82,610,l),
(66,608,l),
(48,612,l),
(35,619,l),
(30,633,l),
(32,648,l),
(39,660,l),
(46,672,l),
(56,679,l),
(68,686,l),
(78,694,l),
(89,700,l),
(102,705,l),
(113,703,l),
(127,701,l),
(143,700,l),
(161,700,l),
(181,698,l),
(199,701,l),
(217,698,l),
(234,701,l),
(253,698,l),
(269,700,l),
(286,698,l),
(307,696,l),
(324,698,l),
(343,694,l),
(357,693,l),
(362,682,l),
(362,672,l),
(355,662,l),
(345,657,l),
(331,651,l),
(321,642,l),
(310,633,l),
(298,629,l),
(286,620,l),
(274,612,l),
(258,610,l),
(246,608,l),
(240,599,l),
(234,584,l),
(233,567,l),
(229,546,l),
(229,523,l),
(229,502,l),
(231,482,l),
(231,461,l)
);
}
);
width = 600;
}
);
unicode = 222;
},
{
glyphname = Q;
kernLeft = O;
lastChange = "2024-12-12 14:08:39 +0000";
layers = (
{
associatedMasterId = "764A1405-E697-4ABB-AAB9-F13AB1C32CC8";
layerId = "A7A88DC0-E7F2-46E2-8498-516E259ED036";
name = img;
width = 781;
},
{
layerId = "764A1405-E697-4ABB-AAB9-F13AB1C32CC8";
shapes = (
{
closed = 1;
nodes = (
(361,618,l),
(342,613,l),
(323,609,l),
(308,603,l),
(292,599,l),
(277,592,l),
(268,584,l),
(258,577,l),
(250,568,l),
(243,556,l),
(235,545,l),
(225,530,l),
(216,516,l),
(206,502,l),
(200,488,l),
(193,473,l),
(186,456,l),
(181,441,l),
(177,428,l),
(168,414,l),
(168,400,l),
(163,386,l),
(159,371,l),
(159,354,l),
(156,337,l),
(157,320,l),
(159,303,l),
(162,284,l),
(167,264,l),
(168,247,l),
(172,229,l),
(177,211,l),
(181,195,l),
(187,182,l),
(200,172,l),
(211,161,l),
(227,156,l),
(245,165,l),
(261,176,l),
(277,182,l),
(288,191,l),
(299,197,l),
(311,205,l),
(323,206,l),
(338,210,l),
(351,218,l),
(366,220,l),
(379,224,l),
(394,221,l),
(409,218,l),
(424,216,l),
(439,211,l),
(454,209,l),
(469,205,l),
(484,199,l),
(497,191,l),
(512,184,l),
(527,180,l),
(542,182,l),
(555,190,l),
(565,201,l),
(570,214,l),
(574,225,l),
(580,237,l),
(583,250,l),
(593,259,l),
(598,277,l),
(608,289,l),
(610,303,l),
(614,315,l),
(617,327,l),
(620,342,l),
(623,364,l),
(618,386,l),
(617,409,l),
(609,432,l),
(602,454,l),
(590,473,l),
(580,493,l),
(568,511,l),
(555,530,l),
(540,545,l),
(521,556,l),
(506,569,l),
(488,580,l),
(472,588,l),
(454,594,l),
(435,595,l),
(424,603,l),
(410,609,l),
(395,614,l),
(381,618,l)
);
},
{
closed = 1;
nodes = (
(337,148,l),
(322,141,l),
(307,129,l),
(298,118,l),
(290,112,l),
(304,101,l),
(318,97,l),
(336,93,l),
(355,92,l),
(371,92,l),
(389,92,l),
(405,95,l),
(420,103,l),
(439,116,l),
(429,129,l),
(420,138,l),
(404,150,l),
(385,156,l),
(367,157,l),
(352,156,l)
);
},
{
closed = 1;
nodes = (
(410,716,l),
(429,715,l),
(449,711,l),
(465,705,l),
(487,709,l),
(506,704,l),
(522,694,l),
(541,690,l),
(560,681,l),
(575,667,l),
(593,660,l),
(605,645,l),
(624,637,l),
(639,622,l),
(651,607,l),
(662,592,l),
(672,579,l),
(685,561,l),
(697,549,l),
(711,535,l),
(715,516,l),
(729,501,l),
(730,481,l),
(738,463,l),
(738,444,l),
(746,425,l),
(740,407,l),
(741,386,l),
(746,366,l),
(738,349,l),
(738,326,l),
(722,308,l),
(715,292,l),
(710,273,l),
(704,255,l),
(688,243,l),
(677,228,l),
(666,211,l),
(662,194,l),
(647,182,l),
(632,169,l),
(620,152,l),
(602,142,l),
(594,129,l),
(598,114,l),
(609,101,l),
(614,82,l),
(629,70,l),
(636,54,l),
(643,40,l),
(651,27,l),
(662,20,l),
(663,6,l),
(670,-5,l),
(673,-17,l),
(677,-28,l),
(678,-39,l),
(692,-47,l),
(692,-61,l),
(706,-66,l),
(704,-81,l),
(712,-92,l),
(722,-100,l),
(730,-109,l),
(741,-116,l),
(749,-126,l),
(760,-131,l),
(765,-143,l),
(779,-149,l),
(793,-150,l),
(808,-146,l),
(824,-153,l),
(846,-150,l),
(861,-145,l),
(874,-137,l),
(889,-131,l),
(905,-134,l),
(915,-124,l),
(929,-122,l),
(944,-119,l),
(953,-111,l),
(967,-109,l),
(979,-103,l),
(988,-95,l),
(1002,-92,l),
(1003,-105,l),
(1001,-119,l),
(994,-135,l),
(978,-141,l),
(967,-156,l),
(948,-158,l),
(935,-173,l),
(919,-177,l),
(908,-190,l),
(895,-197,l),
(882,-199,l),
(876,-211,l),
(865,-214,l),
(856,-224,l),
(843,-224,l),
(832,-232,l),
(818,-237,l),
(802,-245,l),
(780,-241,l),
(764,-252,l),
(746,-256,l),
(730,-251,l),
(715,-251,l),
(700,-248,l),
(686,-243,l),
(676,-236,l),
(662,-231,l),
(651,-221,l),
(639,-213,l),
(632,-198,l),
(623,-188,l),
(610,-179,l),
(598,-168,l),
(594,-150,l),
(586,-139,l),
(579,-124,l),
(574,-109,l),
(568,-95,l),
(550,-86,l),
(546,-69,l),
(537,-56,l),
(526,-44,l),
(518,-29,l),
(515,-14,l),
(508,-1,l),
(496,7,l),
(493,25,l),
(477,29,l),
(477,44,l),
(465,46,l),
(459,35,l),
(450,25,l),
(438,21,l),
(429,10,l),
(419,5,l),
(405,2,l),
(395,-9,l),
(381,-14,l),
(361,-13,l),
(347,-10,l),
(332,-14,l),
(317,-7,l),
(298,-9,l),
(280,-13,l),
(265,-9,l),
(253,1,l),
(235,5,l),
(220,6,l),
(205,17,l),
(185,21,l),
(162,24,l),
(143,35,l),
(129,54,l),
(113,65,l),
(99,82,l),
(85,101,l),
(70,116,l),
(64,129,l),
(60,142,l),
(54,152,l),
(60,167,l),
(49,176,l),
(45,187,l),
(41,201,l),
(41,214,l),
(39,228,l),
(36,239,l),
(41,254,l),
(31,264,l),
(35,281,l),
(41,293,l),
(32,307,l),
(41,320,l),
(46,332,l),
(49,346,l),
(50,360,l),
(50,375,l),
(51,390,l),
(54,407,l),
(64,420,l),
(66,437,l),
(75,451,l),
(79,466,l),
(84,481,l),
(100,490,l),
(104,505,l),
(117,516,l),
(118,535,l),
(129,545,l),
(141,554,l),
(152,565,l),
(152,583,l),
(167,590,l),
(177,602,l),
(187,609,l),
(200,617,l),
(202,632,l),
(219,637,l),
(225,645,l),
(227,660,l),
(235,671,l),
(246,677,l),
(254,689,l),
(265,692,l),
(279,696,l),
(292,697,l),
(303,705,l),
(318,711,l),
(333,713,l),
(348,713,l),
(363,713,l),
(379,716,l),
(391,716,l)
);
}
);
width = 781;
}
);
unicode = 81;
},
{
glyphname = R;
lastChange = "2024-12-12 14:08:41 +0000";
layers = (
{
associatedMasterId = "764A1405-E697-4ABB-AAB9-F13AB1C32CC8";
layerId = "A7A88DC0-E7F2-46E2-8498-516E259ED036";
name = img;
width = 617;
},
{
anchors = (
{
name = bottom;
pos = (309,0);
},
{
name = top;
pos = (309,700);
}
);
layerId = "764A1405-E697-4ABB-AAB9-F13AB1C32CC8";
shapes = (
{
closed = 1;
nodes = (
(247,602,l),
(240,591,l),
(238,575,l),
(237,559,l),
(237,541,l),
(238,524,l),
(240,504,l),
(237,483,l),
(233,461,l),
(233,442,l),
(230,426,l),
(230,413,l),
(230,403,l),
(231,390,l),
(231,374,l),
(238,357,l),
(240,348,l),
(249,348,l),
(263,350,l),
(278,353,l),
(290,355,l),
(304,357,l),
(317,362,l),
(329,367,l),
(341,371,l),
(352,378,l),
(363,385,l),
(372,392,l),
(382,399,l),
(391,406,l),
(398,415,l),
(407,424,l),
(414,431,l),
(423,445,l),
(436,461,l),
(445,479,l),
(450,495,l),
(448,508,l),
(445,522,l),
(434,532,l),
(427,541,l),
(414,550,l),
(402,556,l),
(389,563,l),
(375,570,l),
(363,577,l),
(347,582,l),
(331,588,l),
(315,591,l),
(301,596,l),
(286,598,l),
(272,598,l),
(258,602,l)
);
},
{
closed = 1;
nodes = (
(258,698,l),
(270,703,l),
(285,696,l),
(297,701,l),
(311,699,l),
(324,694,l),
(338,696,l),
(350,692,l),
(363,685,l),
(377,682,l),
(389,680,l),
(405,682,l),
(416,673,l),
(429,667,l),
(441,664,l),
(453,660,l),
(464,651,l),
(475,646,l),
(485,641,l),
(498,637,l),
(507,632,l),
(516,623,l),
(523,614,l),
(530,604,l),
(540,593,l),
(555,577,l),
(560,556,l),
(564,532,l),
(565,513,l),
(564,493,l),
(555,476,l),
(546,456,l),
(533,442,l),
(521,428,l),
(512,410,l),
(501,396,l),
(489,382,l),
(473,373,l),
(457,362,l),
(441,343,l),
(414,334,l),
(425,319,l),
(434,300,l),
(441,280,l),
(453,262,l),
(463,243,l),
(471,227,l),
(476,209,l),
(491,191,l),
(500,176,l),
(509,157,l),
(520,137,l),
(530,119,l),
(545,104,l),
(557,88,l),
(569,73,l),
(581,53,l),
(595,37,l),
(602,16,l),
(617,0,l),
(631,-17,l),
(640,-36,l),
(659,-48,l),
(672,-66,l),
(686,-75,l),
(701,-83,l),
(718,-78,l),
(736,-75,l),
(753,-66,l),
(768,-54,l),
(785,-53,l),
(799,-45,l),
(811,-48,l),
(821,-54,l),
(818,-71,l),
(811,-85,l),
(804,-102,l),
(789,-108,l),
(780,-123,l),
(767,-129,l),
(756,-141,l),
(748,-153,l),
(735,-157,l),
(726,-160,l),
(718,-172,l),
(711,-181,l),
(701,-189,l),
(691,-195,l),
(681,-202,l),
(669,-210,l),
(657,-205,l),
(644,-198,l),
(632,-207,l),
(616,-199,l),
(603,-190,l),
(590,-174,l),
(575,-165,l),
(563,-148,l),
(554,-132,l),
(537,-120,l),
(527,-102,l),
(514,-87,l),
(504,-69,l),
(496,-48,l),
(481,-33,l),
(469,-17,l),
(465,7,l),
(454,25,l),
(439,42,l),
(429,55,l),
(415,70,l),
(410,88,l),
(407,107,l),
(400,121,l),
(390,133,l),
(380,145,l),
(373,161,l),
(361,180,l),
(356,197,l),
(347,213,l),
(337,234,l),
(337,248,l),
(323,254,l),
(315,264,l),
(313,277,l),
(311,282,l),
(290,278,l),
(270,271,l),
(251,268,l),
(244,250,l),
(242,229,l),
(242,207,l),
(249,186,l),
(251,167,l),
(251,147,l),
(256,131,l),
(265,113,l),
(276,104,l),
(295,103,l),
(313,97,l),
(329,88,l),
(340,78,l),
(331,64,l),
(320,55,l),
(308,46,l),
(297,35,l),
(283,28,l),
(267,23,l),
(256,8,l),
(244,7,l),
(230,5,l),
(212,1,l),
(194,3,l),
(175,5,l),
(164,-2,l),
(146,-2,l),
(128,0,l),
(111,-6,l),
(96,-16,l),
(75,-16,l),
(56,-22,l),
(43,-7,l),
(29,5,l),
(22,21,l),
(36,32,l),
(48,46,l),
(57,62,l),
(70,71,l),
(79,80,l),
(89,85,l),
(102,83,l),
(114,88,l),
(127,92,l),
(127,104,l),
(130,117,l),
(134,131,l),
(130,145,l),
(132,159,l),
(127,174,l),
(132,190,l),
(128,202,l),
(127,216,l),
(130,229,l),
(130,243,l),
(127,255,l),
(128,268,l),
(125,282,l),
(127,294,l),
(119,307,l),
(121,321,l),
(121,334,l),
(123,348,l),
(123,360,l),
(121,374,l),
(121,387,l),
(118,399,l),
(121,413,l),
(118,426,l),
(123,438,l),
(121,453,l),
(127,465,l),
(125,477,l),
(125,490,l),
(123,504,l),
(125,516,l),
(123,527,l),
(123,540,l),
(125,552,l),
(116,566,l),
(103,582,l),
(95,593,l),
(79,596,l),
(61,591,l),
(45,595,l),
(32,602,l),
(22,618,l),
(20,634,l),
(29,648,l),
(38,662,l),
(45,676,l),
(57,683,l),
(70,694,l),
(82,696,l),
(96,698,l),
(109,699,l),
(119,694,l),
(134,691,l),
(150,696,l),
(167,694,l),
(183,694,l),
(201,696,l),
(217,696,l),
(233,696,l),
(246,698,l)
);
}
);
width = 657;
}
);
unicode = 82;
},
{
glyphname = S;
kernLeft = S;
kernRight = S;
lastChange = "2024-12-12 14:08:43 +0000";
layers = (
{
associatedMasterId = "764A1405-E697-4ABB-AAB9-F13AB1C32CC8";
layerId = "A7A88DC0-E7F2-46E2-8498-516E259ED036";
name = img;
width = 531;
},
{
anchors = (
{
name = bottom;
pos = (276,0);
},
{
name = top;
pos = (276,700);
}
);
layerId = "764A1405-E697-4ABB-AAB9-F13AB1C32CC8";
shapes = (
{
closed = 1;
nodes = (
(364,713,l),
(376,715,l),
(388,710,l),
(400,712,l),
(412,710,l),
(422,707,l),
(432,700,l),
(445,702,l),
(458,689,l),
(476,681,l),
(491,667,l),
(499,651,l),
(509,633,l),
(504,612,l),
(508,592,l),
(511,572,l),
(503,557,l),
(493,547,l),
(481,541,l),
(468,531,l),
(458,521,l),
(445,511,l),
(432,503,l),
(422,495,l),
(412,500,l),
(399,497,l),
(386,495,l),
(374,501,l),
(361,495,l),
(352,510,l),
(340,526,l),
(332,541,l),
(330,554,l),
(333,567,l),
(345,578,l),
(352,592,l),
(369,598,l),
(377,614,l),
(364,624,l),
(347,621,l),
(332,621,l),
(314,623,l),
(297,621,l),
(282,623,l),
(270,613,l),
(255,613,l),
(245,605,l),
(234,598,l),
(224,592,l),
(217,583,l),
(212,572,l),
(204,564,l),
(200,552,l),
(199,541,l),
(199,530,l),
(200,516,l),
(196,503,l),
(205,492,l),
(207,477,l),
(215,465,l),
(225,451,l),
(235,433,l),
(251,424,l),
(261,423,l),
(271,415,l),
(284,412,l),
(294,408,l),
(306,402,l),
(318,403,l),
(328,397,l),
(340,392,l),
(352,390,l),
(363,385,l),
(373,382,l),
(386,377,l),
(399,371,l),
(409,362,l),
(419,352,l),
(431,342,l),
(445,329,l),
(458,318,l),
(474,309,l),
(486,295,l),
(494,278,l),
(508,267,l),
(517,251,l),
(522,234,l),
(525,218,l),
(532,203,l),
(530,188,l),
(527,175,l),
(524,165,l),
(520,154,l),
(519,141,l),
(508,134,l),
(501,124,l),
(498,114,l),
(493,106,l),
(484,91,l),
(472,80,l),
(453,73,l),
(442,59,l),
(424,54,l),
(416,44,l),
(407,35,l),
(395,30,l),
(386,19,l),
(374,13,l),
(363,6,l),
(352,1,l),
(335,3,l),
(320,-7,l),
(301,-9,l),
(284,-11,l),
(265,-12,l),
(246,-12,l),
(227,-15,l),
(210,-11,l),
(193,-7,l),
(176,-6,l),
(159,-2,l),
(141,3,l),
(128,9,l),
(110,11,l),
(99,21,l),
(85,27,l),
(74,37,l),
(64,42,l),
(54,49,l),
(49,59,l),
(45,70,l),
(38,76,l),
(35,91,l),
(33,111,l),
(37,126,l),
(40,139,l),
(44,152,l),
(51,169,l),
(69,179,l),
(84,196,l),
(99,208,l),
(117,213,l),
(136,218,l),
(153,213,l),
(164,206,l),
(178,208,l),
(189,201,l),
(196,190,l),
(212,177,l),
(217,159,l),
(219,147,l),
(214,136,l),
(205,126,l),
(193,118,l),
(181,109,l),
(176,95,l),
(171,87,l),
(166,75,l),
(178,73,l),
(200,73,l),
(212,73,l),
(225,70,l),
(238,75,l),
(251,71,l),
(265,76,l),
(281,75,l),
(296,78,l),
(312,78,l),
(330,83,l),
(343,85,l),
(358,88,l),
(369,95,l),
(379,101,l),
(389,107,l),
(399,116,l),
(406,126,l),
(409,136,l),
(412,150,l),
(409,164,l),
(411,179,l),
(409,196,l),
(404,213,l),
(395,227,l),
(381,241,l),
(366,249,l),
(352,263,l),
(335,273,l),
(320,287,l),
(297,292,l),
(286,304,l),
(275,309,l),
(265,313,l),
(255,316,l),
(245,321,l),
(234,323,l),
(224,328,l),
(215,333,l),
(199,334,l),
(183,347,l),
(166,354,l),
(146,360,l),
(130,369,l),
(121,382,l),
(114,388,l),
(110,400,l),
(100,408,l),
(97,423,l),
(90,433,l),
(90,446,l),
(87,460,l),
(78,474,l),
(82,487,l),
(74,501,l),
(82,515,l),
(78,526,l),
(84,539,l),
(87,552,l),
(94,562,l),
(104,572,l),
(109,588,l),
(123,597,l),
(131,610,l),
(148,615,l),
(157,630,l),
(171,641,l),
(186,646,l),
(202,655,l),
(214,666,l),
(229,671,l),
(238,684,l),
(251,691,l),
(265,698,l),
(277,703,l),
(287,705,l),
(297,710,l),
(309,707,l),
(320,707,l),
(332,708,l),
(347,710,l)
);
}
);
width = 551;
}
);
unicode = 83;
},
{
glyphname = Germandbls;
lastChange = "2024-12-12 12:51:51 +0000";
layers = (
{
layerId = "764A1405-E697-4ABB-AAB9-F13AB1C32CC8";
shapes = (
{
closed = 1;
nodes = (
(127,703,l),
(141,701,l),
(157,700,l),
(175,700,l),
(195,698,l),
(213,701,l),
(231,698,l),
(248,701,l),
(267,698,l),
(283,700,l),
(300,698,l),
(321,696,l),
(338,698,l),
(357,694,l),
(371,693,l),
(376,682,l),
(376,672,l),
(369,662,l),
(359,657,l),
(345,651,l),
(335,642,l),
(324,633,l),
(312,629,l),
(300,620,l),
(288,612,l),
(272,610,l),
(260,608,l),
(254,599,l),
(248,584,l),
(247,567,l),
(243,546,l),
(243,523,l),
(243,502,l),
(245,482,l),
(245,461,l),
(243,437,l),
(247,421,l),
(250,411,l),
(247,392,l),
(250,371,l),
(248,347,l),
(252,326,l),
(252,303,l),
(254,283,l),
(252,267,l),
(247,252,l),
(245,234,l),
(247,217,l),
(248,198,l),
(252,181,l),
(258,159,l),
(258,137,l),
(257,118,l),
(255,105,l),
(252,96,l),
(269,96,l),
(277,96,l),
(283,96,l),
(289,92,l),
(295,89,l),
(297,77,l),
(297,66,l),
(296,55,l),
(291,49,l),
(284,46,l),
(277,33,l),
(270,21,l),
(255,10,l),
(241,6,l),
(227,8,l),
(213,4,l),
(200,6,l),
(186,4,l),
(174,-1,l),
(157,-1,l),
(143,-3,l),
(127,-4,l),
(112,-10,l),
(92,-15,l),
(75,-15,l),
(60,-11,l),
(55,-1,l),
(49,11,l),
(44,23,l),
(51,32,l),
(58,42,l),
(67,51,l),
(78,60,l),
(87,71,l),
(96,78,l),
(107,84,l),
(122,91,l),
(136,92,l),
(137,103,l),
(137,116,l),
(139,127,l),
(139,139,l),
(137,150,l),
(139,161,l),
(139,174,l),
(137,184,l),
(139,195,l),
(143,208,l),
(139,219,l),
(137,231,l),
(141,241,l),
(143,252,l),
(143,264,l),
(141,278,l),
(141,297,l),
(141,321,l),
(143,342,l),
(141,364,l),
(136,387,l),
(132,409,l),
(130,430,l),
(132,452,l),
(129,473,l),
(129,494,l),
(132,513,l),
(134,534,l),
(137,556,l),
(132,575,l),
(132,594,l),
(127,608,l),
(112,613,l),
(96,610,l),
(80,608,l),
(62,612,l),
(49,619,l),
(44,633,l),
(46,648,l),
(53,660,l),
(60,672,l),
(70,679,l),
(82,686,l),
(92,694,l),
(103,700,l),
(116,705,l)
);
},
{
closed = 1;
nodes = (
(504,689,l),
(511,678,l),
(497,660,l),
(494,645,l),
(488,637,l),
(471,634,l),
(462,626,l),
(443,625,l),
(434,617,l),
(422,608,l),
(408,606,l),
(393,611,l),
(379,611,l),
(363,612,l),
(351,611,l),
(338,611,l),
(321,610,l),
(307,607,l),
(295,604,l),
(279,603,l),
(262,607,l),
(246,608,l),
(231,611,l),
(219,614,l),
(208,619,l),
(202,632,l),
(200,649,l),
(206,666,l),
(217,680,l),
(229,695,l),
(245,706,l),
(262,710,l),
(278,708,l),
(291,706,l),
(303,701,l),
(316,697,l),
(327,699,l),
(339,701,l),
(351,705,l),
(364,705,l),
(379,705,l),
(393,705,l),
(406,705,l),
(419,701,l),
(434,699,l),
(446,697,l),
(460,701,l),
(477,706,l)
);
},
{
closed = 1;
nodes = (
(378,362,l),
(389,382,l),
(391,402,l),
(401,421,l),
(405,443,l),
(411,463,l),
(423,482,l),
(427,500,l),
(431,514,l),
(436,529,l),
(435,544,l),
(442,559,l),
(447,575,l),
(441,592,l),
(435,602,l),
(423,600,l),
(406,605,l),
(388,602,l),
(378,607,l),
(373,618,l),
(368,630,l),
(363,645,l),
(365,661,l),
(376,668,l),
(381,679,l),
(396,681,l),
(404,688,l),
(414,695,l),
(425,703,l),
(437,704,l),
(448,708,l),
(457,701,l),
(470,698,l),
(479,695,l),
(497,691,l),
(518,690,l),
(535,693,l),
(548,695,l),
(558,690,l),
(571,690,l),
(581,693,l),
(594,695,l),
(605,688,l),
(617,690,l),
(631,685,l),
(637,672,l),
(627,663,l),
(622,650,l),
(608,638,l),
(596,627,l),
(587,615,l),
(571,609,l),
(560,602,l),
(551,593,l),
(541,593,l),
(534,584,l),
(522,569,l),
(519,547,l),
(516,526,l),
(508,511,l),
(510,494,l),
(499,486,l),
(500,471,l),
(490,461,l),
(491,446,l),
(487,433,l),
(482,421,l),
(474,407,l),
(469,389,l),
(463,372,l)
);
},
{
closed = 1;
nodes = (
(488,393,l),
(498,387,l),
(510,382,l),
(522,380,l),
(533,375,l),
(543,372,l),
(556,367,l),
(569,361,l),
(579,352,l),
(589,342,l),
(601,332,l),
(615,319,l),
(628,308,l),
(644,299,l),
(656,285,l),
(664,268,l),
(678,257,l),
(687,241,l),
(692,224,l),
(695,208,l),
(702,193,l),
(700,178,l),
(697,165,l),
(694,155,l),
(690,144,l),
(689,131,l),
(678,124,l),
(671,114,l),
(668,104,l),
(663,96,l),
(654,81,l),
(642,70,l),
(623,63,l),
(612,49,l),
(594,44,l),
(586,34,l),
(577,25,l),
(565,20,l),
(556,9,l),
(544,3,l),
(533,-4,l),
(522,-9,l),
(487,-16,l),
(470,-12,l),
(453,-8,l),
(436,-7,l),
(419,-3,l),
(401,2,l),
(388,8,l),
(370,10,l),
(364,20,l),
(356,26,l),
(350,36,l),
(345,41,l),
(339,48,l),
(337,58,l),
(334,69,l),
(331,75,l),
(329,90,l),
(328,110,l),
(330,125,l),
(332,138,l),
(334,151,l),
(338,168,l),
(348,178,l),
(356,195,l),
(364,207,l),
(377,212,l),
(396,217,l),
(413,212,l),
(424,205,l),
(438,207,l),
(449,200,l),
(456,189,l),
(472,176,l),
(477,158,l),
(479,146,l),
(474,135,l),
(465,125,l),
(453,117,l),
(441,108,l),
(436,94,l),
(431,86,l),
(426,74,l),
(438,72,l),
(460,72,l),
(472,72,l),
(485,69,l),
(498,74,l),
(513,75,l),
(528,78,l),
(539,85,l),
(549,91,l),
(559,97,l),
(569,106,l),
(576,116,l),
(579,126,l),
(582,140,l),
(579,154,l),
(581,169,l),
(579,186,l),
(574,203,l),
(565,217,l),
(551,231,l),
(536,239,l),
(522,253,l),
(505,263,l),
(490,277,l),
(467,282,l),
(456,294,l),
(445,299,l)
);
},
{
closed = 1;
nodes = (
(387,369,l),
(466,407,l),
(491,387,l),
(454,303,l),
(431,302,l),
(425,314,l),
(405,316,l),
(402,326,l),
(391,324,l),
(387,336,l),
(387,343,l),
(378,344,l),
(377,352,l)
);
}
);
width = 700;
}
);
unicode = 7838;
},
{
glyphname = T;
kernLeft = T;
kernRight = T;
lastChange = "2024-12-12 14:10:09 +0000";
layers = (
{
associatedMasterId = "764A1405-E697-4ABB-AAB9-F13AB1C32CC8";
layerId = "A7A88DC0-E7F2-46E2-8498-516E259ED036";
name = img;
width = 625;
},
{
anchors = (
{
name = bottom;
pos = (333,0);
},
{
name = center;
pos = (333,350);
},
{
name = top;
pos = (333,700);
}
);
layerId = "764A1405-E697-4ABB-AAB9-F13AB1C32CC8";
shapes = (
{
closed = 1;
nodes = (
(108,703,l),
(120,698,l),
(134,701,l),
(145,701,l),
(159,694,l),
(171,694,l),
(184,698,l),
(198,696,l),
(213,694,l),
(231,691,l),
(249,698,l),
(268,691,l),
(285,694,l),
(305,700,l),
(324,696,l),
(342,698,l),
(359,694,l),
(374,698,l),
(390,694,l),
(406,698,l),
(421,698,l),
(436,703,l),
(449,700,l),
(465,700,l),
(476,698,l),
(488,694,l),
(498,700,l),
(510,700,l),
(524,694,l),
(543,693,l),
(560,698,l),
(575,691,l),
(590,691,l),
(602,683,l),
(617,679,l),
(628,669,l),
(634,657,l),
(636,647,l),
(636,635,l),
(633,624,l),
(633,614,l),
(636,602,l),
(633,585,l),
(636,566,l),
(634,543,l),
(621,516,l),
(612,494,l),
(597,486,l),
(585,489,l),
(575,502,l),
(569,524,l),
(560,550,l),
(557,574,l),
(552,597,l),
(540,607,l),
(524,614,l),
(507,618,l),
(488,612,l),
(475,609,l),
(463,612,l),
(449,607,l),
(438,612,l),
(424,611,l),
(412,612,l),
(399,607,l),
(386,609,l),
(376,604,l),
(372,589,l),
(374,572,l),
(367,552,l),
(371,533,l),
(366,515,l),
(369,498,l),
(374,482,l),
(371,466,l),
(371,450,l),
(372,434,l),
(369,421,l),
(374,407,l),
(379,394,l),
(374,379,l),
(379,365,l),
(379,352,l),
(379,335,l),
(381,320,l),
(376,303,l),
(379,288,l),
(376,275,l),
(381,261,l),
(383,246,l),
(381,227,l),
(374,206,l),
(374,191,l),
(369,181,l),
(374,169,l),
(371,159,l),
(372,147,l),
(374,134,l),
(379,120,l),
(383,108,l),
(392,100,l),
(411,98,l),
(427,100,l),
(446,98,l),
(463,98,l),
(478,88,l),
(495,86,l),
(502,73,l),
(505,62,l),
(497,58,l),
(487,52,l),
(478,43,l),
(465,43,l),
(456,30,l),
(443,23,l),
(429,13,l),
(414,4,l),
(395,1,l),
(378,8,l),
(364,9,l),
(352,8,l),
(337,6,l),
(318,4,l),
(300,1,l),
(283,-2,l),
(263,-2,l),
(243,1,l),
(225,-4,l),
(206,-1,l),
(189,1,l),
(174,3,l),
(164,6,l),
(154,15,l),
(147,28,l),
(149,42,l),
(155,53,l),
(162,65,l),
(167,80,l),
(181,88,l),
(194,95,l),
(208,98,l),
(223,105,l),
(236,105,l),
(251,100,l),
(261,108,l),
(264,118,l),
(263,130,l),
(263,140,l),
(266,152,l),
(266,164,l),
(271,176,l),
(268,189,l),
(273,201,l),
(271,214,l),
(268,226,l),
(266,238,l),
(266,254,l),
(263,275,l),
(268,290,l),
(264,303,l),
(268,315,l),
(268,327,l),
(271,342,l),
(271,362,l),
(266,380,l),
(270,399,l),
(264,417,l),
(266,438,l),
(264,456,l),
(259,477,l),
(258,494,l),
(258,510,l),
(259,528,l),
(258,548,l),
(258,565,l),
(259,584,l),
(261,599,l),
(253,609,l),
(240,612,l),
(223,611,l),
(208,609,l),
(191,607,l),
(172,607,l),
(154,602,l),
(144,597,l),
(132,596,l),
(126,586,l),
(114,575,l),
(114,561,l),
(105,549,l),
(110,522,l),
(97,510,l),
(85,496,l),
(62,490,l),
(48,486,l),
(38,490,l),
(33,508,l),
(38,533,l),
(36,557,l),
(43,578,l),
(45,597,l),
(41,616,l),
(35,631,l),
(36,649,l),
(45,664,l),
(60,676,l),
(75,689,l),
(90,701,l)
);
}
);
width = 655;
}
);
unicode = 84;
},
{
glyphname = U;
kernLeft = _U;
kernRight = _U;
lastChange = "2024-12-12 14:09:03 +0000";
layers = (
{
associatedMasterId = "764A1405-E697-4ABB-AAB9-F13AB1C32CC8";
layerId = "A7A88DC0-E7F2-46E2-8498-516E259ED036";
name = img;
width = 726;
},
{
anchors = (
{
name = bottom;
pos = (363,0);
},
{
name = ogonek;
pos = (385,3);
},
{
name = top;
pos = (383,700);
},
{
name = topright;
pos = (706,700);
}
);
layerId = "764A1405-E697-4ABB-AAB9-F13AB1C32CC8";
shapes = (
{
closed = 1;
nodes = (
(517,710,l),
(532,707,l),
(546,702,l),
(561,700,l),
(576,692,l),
(597,697,l),
(617,693,l),
(636,697,l),
(656,697,l),
(675,695,l),
(694,693,l),
(711,692,l),
(726,686,l),
(739,679,l),
(743,669,l),
(743,658,l),
(729,656,l),
(719,648,l),
(713,638,l),
(705,628,l),
(695,624,l),
(685,619,l),
(677,612,l),
(664,612,l),
(649,606,l),
(641,606,l),
(644,599,l),
(644,588,l),
(643,578,l),
(641,565,l),
(641,555,l),
(644,544,l),
(646,534,l),
(646,521,l),
(649,511,l),
(643,499,l),
(646,487,l),
(651,475,l),
(649,465,l),
(644,454,l),
(646,441,l),
(651,429,l),
(643,420,l),
(646,408,l),
(644,395,l),
(648,384,l),
(644,374,l),
(646,361,l),
(641,351,l),
(641,340,l),
(635,324,l),
(633,305,l),
(631,285,l),
(628,265,l),
(622,248,l),
(624,235,l),
(624,222,l),
(624,207,l),
(622,191,l),
(610,185,l),
(607,171,l),
(605,154,l),
(597,142,l),
(589,131,l),
(581,118,l),
(574,108,l),
(568,100,l),
(561,90,l),
(555,82,l),
(544,77,l),
(535,71,l),
(524,67,l),
(520,56,l),
(506,57,l),
(491,49,l),
(480,40,l),
(465,31,l),
(452,31,l),
(442,25,l),
(432,20,l),
(421,10,l),
(406,7,l),
(395,-6,l),
(374,-13,l),
(357,-9,l),
(346,-9,l),
(331,-9,l),
(320,-9,l),
(308,-16,l),
(296,-11,l),
(282,-11,l),
(271,-8,l),
(253,-9,l),
(235,-1,l),
(212,2,l),
(196,12,l),
(180,25,l),
(171,43,l),
(155,54,l),
(145,66,l),
(132,79,l),
(124,98,l),
(122,120,l),
(109,137,l),
(106,157,l),
(102,176,l),
(104,195,l),
(107,216,l),
(104,230,l),
(109,240,l),
(106,253,l),
(107,263,l),
(104,273,l),
(102,285,l),
(106,295,l),
(106,307,l),
(104,317,l),
(98,330,l),
(104,341,l),
(104,351,l),
(107,363,l),
(107,375,l),
(104,385,l),
(106,397,l),
(109,410,l),
(102,421,l),
(107,433,l),
(111,444,l),
(109,457,l),
(107,469,l),
(109,480,l),
(107,491,l),
(106,503,l),
(111,516,l),
(109,529,l),
(106,540,l),
(111,552,l),
(104,563,l),
(104,576,l),
(102,588,l),
(93,593,l),
(83,596,l),
(73,598,l),
(62,594,l),
(49,598,l),
(37,598,l),
(23,599,l),
(10,608,l),
(0,620,l),
(5,633,l),
(10,651,l),
(24,659,l),
(33,676,l),
(46,686,l),
(57,692,l),
(75,695,l),
(93,697,l),
(114,695,l),
(132,686,l),
(148,692,l),
(162,686,l),
(175,688,l),
(186,692,l),
(196,688,l),
(207,692,l),
(216,698,l),
(230,693,l),
(241,692,l),
(253,693,l),
(266,700,l),
(277,695,l),
(287,693,l),
(299,689,l),
(313,684,l),
(323,678,l),
(323,671,l),
(318,664,l),
(315,653,l),
(310,640,l),
(294,638,l),
(286,628,l),
(276,622,l),
(267,614,l),
(256,606,l),
(243,608,l),
(227,608,l),
(219,596,l),
(209,576,l),
(209,560,l),
(209,549,l),
(212,535,l),
(207,523,l),
(212,511,l),
(207,498,l),
(212,485,l),
(212,474,l),
(211,460,l),
(207,449,l),
(214,434,l),
(212,423,l),
(211,410,l),
(209,395,l),
(209,380,l),
(209,366,l),
(212,353,l),
(214,340,l),
(211,325,l),
(216,310,l),
(212,297,l),
(212,283,l),
(214,270,l),
(217,258,l),
(216,244,l),
(219,230,l),
(221,219,l),
(221,207,l),
(223,193,l),
(232,185,l),
(233,173,l),
(233,160,l),
(246,149,l),
(255,129,l),
(267,111,l),
(286,101,l),
(297,90,l),
(310,88,l),
(320,82,l),
(331,82,l),
(344,82,l),
(357,86,l),
(372,81,l),
(390,86,l),
(403,90,l),
(416,86,l),
(427,95,l),
(439,96,l),
(452,103,l),
(470,115,l),
(483,131,l),
(493,149,l),
(496,162,l),
(496,178,l),
(506,190,l),
(503,206,l),
(506,219,l),
(512,230,l),
(514,248,l),
(517,266,l),
(514,287,l),
(522,305,l),
(519,325,l),
(527,345,l),
(527,363,l),
(532,382,l),
(534,400,l),
(537,420,l),
(535,436,l),
(532,452,l),
(537,470,l),
(529,491,l),
(529,511,l),
(532,532,l),
(534,552,l),
(527,571,l),
(525,589,l),
(520,604,l),
(510,614,l),
(493,612,l),
(481,615,l),
(470,617,l),
(454,624,l),
(450,640,l),
(444,654,l),
(449,666,l),
(459,676,l),
(470,684,l),
(478,697,l),
(490,705,l),
(501,710,l)
);
}
);
width = 736;
}
);
unicode = 85;
},
{
glyphname = V;
lastChange = "2024-12-12 14:10:12 +0000";
layers = (
{
associatedMasterId = "764A1405-E697-4ABB-AAB9-F13AB1C32CC8";
layerId = "A7A88DC0-E7F2-46E2-8498-516E259ED036";
name = img;
width = 718;
},
{
anchors = (
{
name = bottom;
pos = (359,0);
},
{
name = top;
pos = (411,700);
}
);
layerId = "764A1405-E697-4ABB-AAB9-F13AB1C32CC8";
shapes = (
{
closed = 1;
nodes = (
(556,708,l),
(565,701,l),
(578,698,l),
(587,695,l),
(605,691,l),
(626,690,l),
(643,693,l),
(656,695,l),
(666,690,l),
(679,690,l),
(689,693,l),
(702,695,l),
(713,688,l),
(725,690,l),
(739,685,l),
(745,672,l),
(735,663,l),
(730,650,l),
(716,638,l),
(704,627,l),
(695,615,l),
(679,609,l),
(668,602,l),
(659,593,l),
(649,593,l),
(642,584,l),
(630,569,l),
(627,547,l),
(624,526,l),
(616,511,l),
(618,494,l),
(607,486,l),
(608,471,l),
(598,461,l),
(599,446,l),
(595,433,l),
(590,421,l),
(582,407,l),
(577,389,l),
(571,372,l),
(567,353,l),
(564,334,l),
(556,314,l),
(547,294,l),
(539,276,l),
(535,254,l),
(523,236,l),
(516,217,l),
(508,198,l),
(504,180,l),
(504,163,l),
(496,149,l),
(496,133,l),
(490,119,l),
(489,102,l),
(478,88,l),
(480,72,l),
(477,57,l),
(474,41,l),
(467,31,l),
(458,20,l),
(443,16,l),
(435,1,l),
(421,-2,l),
(414,-14,l),
(401,-23,l),
(391,-32,l),
(380,-32,l),
(364,-32,l),
(348,-25,l),
(345,-10,l),
(340,-2,l),
(330,9,l),
(329,24,l),
(320,36,l),
(317,51,l),
(313,64,l),
(308,77,l),
(302,92,l),
(301,104,l),
(295,117,l),
(290,129,l),
(291,143,l),
(285,156,l),
(280,168,l),
(279,183,l),
(273,193,l),
(265,206,l),
(259,217,l),
(252,228,l),
(250,242,l),
(242,254,l),
(235,266,l),
(233,279,l),
(226,291,l),
(218,301,l),
(211,312,l),
(212,326,l),
(204,337,l),
(200,350,l),
(197,365,l),
(192,383,l),
(190,403,l),
(181,420,l),
(174,438,l),
(166,457,l),
(155,475,l),
(145,493,l),
(141,509,l),
(140,524,l),
(134,534,l),
(135,547,l),
(127,559,l),
(121,574,l),
(111,586,l),
(96,593,l),
(84,597,l),
(63,593,l),
(44,590,l),
(31,597,l),
(16,607,l),
(12,627,l),
(22,643,l),
(29,660,l),
(40,665,l),
(46,676,l),
(59,678,l),
(73,686,l),
(87,691,l),
(102,690,l),
(118,690,l),
(132,690,l),
(145,693,l),
(158,688,l),
(170,691,l),
(183,691,l),
(194,698,l),
(206,693,l),
(218,693,l),
(230,699,l),
(245,699,l),
(260,699,l),
(278,701,l),
(295,698,l),
(309,703,l),
(322,693,l),
(335,693,l),
(342,683,l),
(347,676,l),
(354,668,l),
(344,656,l),
(329,650,l),
(313,638,l),
(298,627,l),
(285,615,l),
(269,605,l),
(253,605,l),
(249,607,l),
(251,599,l),
(252,575,l),
(262,557,l),
(270,539,l),
(278,524,l),
(281,504,l),
(287,488,l),
(292,470,l),
(299,451,l),
(300,433,l),
(310,418,l),
(311,400,l),
(318,385,l),
(326,375,l),
(331,364,l),
(336,353,l),
(343,342,l),
(346,330,l),
(351,319,l),
(353,307,l),
(363,294,l),
(370,278,l),
(373,258,l),
(382,242,l),
(390,226,l),
(395,210,l),
(405,198,l),
(411,183,l),
(419,172,l),
(427,187,l),
(435,205,l),
(440,226,l),
(447,244,l),
(455,264,l),
(457,286,l),
(467,303,l),
(475,322,l),
(483,342,l),
(486,362,l),
(497,382,l),
(499,402,l),
(509,421,l),
(513,443,l),
(519,463,l),
(531,482,l),
(535,500,l),
(539,514,l),
(544,529,l),
(543,544,l),
(550,559,l),
(555,575,l),
(549,592,l),
(543,602,l),
(531,600,l),
(514,605,l),
(496,602,l),
(486,607,l),
(481,618,l),
(476,630,l),
(471,645,l),
(473,661,l),
(484,668,l),
(489,679,l),
(504,681,l),
(512,688,l),
(522,695,l),
(533,703,l),
(545,704,l)
);
}
);
width = 728;
}
);
unicode = 86;
},
{
glyphname = W;
kernLeft = W;
kernRight = W;
lastChange = "2024-12-12 14:10:14 +0000";
layers = (
{
associatedMasterId = "764A1405-E697-4ABB-AAB9-F13AB1C32CC8";
layerId = "A7A88DC0-E7F2-46E2-8498-516E259ED036";
name = img;
width = 1039;
},
{
anchors = (
{
name = bottom;
pos = (530,0);
},
{
name = top;
pos = (530,700);
}
);
layerId = "764A1405-E697-4ABB-AAB9-F13AB1C32CC8";
shapes = (
{
closed = 1;
nodes = (
(842,709,l),
(858,705,l),
(872,703,l),
(888,702,l),
(903,705,l),
(917,702,l),
(933,702,l),
(949,700,l),
(962,700,l),
(976,696,l),
(990,696,l),
(1004,693,l),
(1017,691,l),
(1029,689,l),
(1043,683,l),
(1052,678,l),
(1061,672,l),
(1052,664,l),
(1043,656,l),
(1035,646,l),
(1025,639,l),
(1015,630,l),
(1006,623,l),
(999,611,l),
(988,605,l),
(978,597,l),
(966,597,l),
(949,591,l),
(933,589,l),
(929,576,l),
(919,562,l),
(919,540,l),
(912,521,l),
(910,503,l),
(905,484,l),
(901,464,l),
(899,445,l),
(892,428,l),
(886,412,l),
(884,395,l),
(880,377,l),
(874,360,l),
(874,342,l),
(870,324,l),
(864,306,l),
(860,288,l),
(856,273,l),
(853,255,l),
(842,240,l),
(838,222,l),
(840,202,l),
(834,185,l),
(829,166,l),
(823,149,l),
(816,129,l),
(816,109,l),
(814,92,l),
(807,76,l),
(799,63,l),
(788,48,l),
(777,33,l),
(768,17,l),
(754,2,l),
(736,-7,l),
(722,-9,l),
(709,-7,l),
(696,-9,l),
(681,-14,l),
(670,-4,l),
(656,4,l),
(650,21,l),
(640,35,l),
(634,52,l),
(630,72,l),
(628,92,l),
(620,109,l),
(616,127,l),
(611,143,l),
(605,159,l),
(596,174,l),
(593,192,l),
(591,212,l),
(591,229,l),
(589,249,l),
(581,266,l),
(581,285,l),
(571,303,l),
(571,320,l),
(563,338,l),
(559,353,l),
(552,369,l),
(544,383,l),
(536,388,l),
(530,381,l),
(524,367,l),
(520,351,l),
(515,338,l),
(515,322,l),
(510,308,l),
(504,294,l),
(498,279,l),
(500,263,l),
(493,249,l),
(491,235,l),
(485,222,l),
(480,206,l),
(473,192,l),
(473,179,l),
(465,165,l),
(459,149,l),
(454,131,l),
(451,111,l),
(447,94,l),
(439,78,l),
(441,67,l),
(438,52,l),
(428,41,l),
(412,31,l),
(398,15,l),
(378,6,l),
(363,-9,l),
(343,-14,l),
(329,-22,l),
(316,-18,l),
(302,-9,l),
(296,11,l),
(286,31,l),
(275,50,l),
(273,72,l),
(266,94,l),
(259,113,l),
(251,133,l),
(245,151,l),
(240,170,l),
(231,188,l),
(223,206,l),
(218,226,l),
(207,244,l),
(205,265,l),
(198,283,l),
(196,305,l),
(194,325,l),
(190,347,l),
(184,367,l),
(182,384,l),
(172,401,l),
(168,418,l),
(166,438,l),
(157,454,l),
(157,473,l),
(146,489,l),
(144,504,l),
(140,517,l),
(135,528,l),
(127,540,l),
(120,556,l),
(113,582,l),
(100,589,l),
(81,591,l),
(64,591,l),
(44,587,l),
(29,595,l),
(15,607,l),
(11,619,l),
(11,630,l),
(19,643,l),
(22,654,l),
(35,664,l),
(41,674,l),
(50,683,l),
(62,689,l),
(70,700,l),
(90,703,l),
(113,700,l),
(133,700,l),
(153,696,l),
(170,698,l),
(190,691,l),
(210,691,l),
(225,685,l),
(245,683,l),
(262,680,l),
(280,676,l),
(299,670,l),
(308,660,l),
(302,648,l),
(294,637,l),
(284,628,l),
(273,621,l),
(266,609,l),
(255,601,l),
(245,593,l),
(243,576,l),
(251,554,l),
(260,534,l),
(268,515,l),
(273,491,l),
(277,469,l),
(282,447,l),
(292,426,l),
(294,403,l),
(299,381,l),
(304,357,l),
(316,338,l),
(316,316,l),
(329,296,l),
(334,275,l),
(338,253,l),
(347,237,l),
(351,218,l),
(357,200,l),
(369,186,l),
(373,176,l),
(377,188,l),
(382,206,l),
(388,226,l),
(395,244,l),
(398,263,l),
(406,281,l),
(408,301,l),
(412,320,l),
(417,340,l),
(430,357,l),
(432,377,l),
(439,395,l),
(447,412,l),
(447,434,l),
(454,454,l),
(463,471,l),
(467,491,l),
(473,508,l),
(478,528,l),
(483,548,l),
(487,567,l),
(489,583,l),
(491,597,l),
(493,613,l),
(502,624,l),
(512,643,l),
(530,652,l),
(546,666,l),
(565,670,l),
(585,674,l),
(605,670,l),
(620,656,l),
(628,637,l),
(618,617,l),
(616,597,l),
(624,580,l),
(626,562,l),
(626,543,l),
(630,524,l),
(636,508,l),
(638,491,l),
(646,473,l),
(650,456,l),
(656,440,l),
(659,423,l),
(668,406,l),
(670,386,l),
(676,371,l),
(683,355,l),
(687,338,l),
(693,320,l),
(701,305,l),
(697,285,l),
(707,269,l),
(709,249,l),
(711,231,l),
(720,218,l),
(729,208,l),
(731,200,l),
(738,204,l),
(738,220,l),
(748,229,l),
(755,242,l),
(762,253,l),
(764,266,l),
(766,283,l),
(770,294,l),
(774,310,l),
(775,324,l),
(781,338,l),
(788,351,l),
(788,367,l),
(790,381,l),
(794,395,l),
(799,408,l),
(805,426,l),
(807,447,l),
(811,467,l),
(816,487,l),
(825,508,l),
(827,532,l),
(825,554,l),
(827,574,l),
(814,587,l),
(794,595,l),
(774,599,l),
(764,611,l),
(754,621,l),
(752,637,l),
(758,650,l),
(766,666,l),
(775,676,l),
(788,682,l),
(799,693,l),
(814,696,l),
(827,707,l)
);
}
);
width = 1049;
}
);
unicode = 87;
},
{
glyphname = X;
lastChange = "2024-12-12 14:09:11 +0000";
layers = (
{
associatedMasterId = "764A1405-E697-4ABB-AAB9-F13AB1C32CC8";
layerId = "A7A88DC0-E7F2-46E2-8498-516E259ED036";
name = img;
width = 718;
},
{
anchors = (
{
name = bottom;
pos = (359,0);
},
{
name = top;
pos = (359,700);
}
);
layerId = "764A1405-E697-4ABB-AAB9-F13AB1C32CC8";
shapes = (
{
closed = 1;
nodes = (
(151,715,l),
(171,712,l),
(190,706,l),
(208,697,l),
(229,691,l),
(251,689,l),
(272,683,l),
(292,685,l),
(313,685,l),
(333,682,l),
(352,680,l),
(368,672,l),
(379,662,l),
(374,648,l),
(363,637,l),
(352,630,l),
(342,619,l),
(329,611,l),
(315,607,l),
(303,609,l),
(303,603,l),
(303,594,l),
(308,583,l),
(313,570,l),
(317,559,l),
(324,548,l),
(331,539,l),
(337,523,l),
(350,509,l),
(359,490,l),
(370,473,l),
(386,468,l),
(397,477,l),
(406,493,l),
(415,507,l),
(422,518,l),
(434,525,l),
(439,539,l),
(445,550,l),
(454,561,l),
(459,570,l),
(468,582,l),
(473,596,l),
(475,611,l),
(464,621,l),
(443,622,l),
(427,628,l),
(422,646,l),
(430,667,l),
(436,683,l),
(438,694,l),
(447,708,l),
(459,713,l),
(477,715,l),
(493,710,l),
(512,704,l),
(534,704,l),
(557,699,l),
(579,694,l),
(598,692,l),
(609,694,l),
(624,694,l),
(640,703,l),
(657,706,l),
(674,706,l),
(683,701,l),
(685,689,l),
(678,680,l),
(676,667,l),
(669,658,l),
(657,650,l),
(649,639,l),
(635,628,l),
(618,626,l),
(603,621,l),
(589,621,l),
(575,616,l),
(564,611,l),
(559,596,l),
(551,585,l),
(544,573,l),
(534,561,l),
(525,548,l),
(521,531,l),
(512,516,l),
(500,507,l),
(493,495,l),
(488,484,l),
(477,477,l),
(469,466,l),
(464,454,l),
(456,441,l),
(448,432,l),
(441,415,l),
(432,402,l),
(429,391,l),
(430,378,l),
(441,365,l),
(450,351,l),
(461,337,l),
(469,322,l),
(475,311,l),
(484,304,l),
(489,292,l),
(495,281,l),
(505,274,l),
(512,262,l),
(519,253,l),
(525,242,l),
(532,231,l),
(539,221,l),
(546,210,l),
(555,203,l),
(566,194,l),
(573,184,l),
(577,171,l),
(587,157,l),
(599,138,l),
(614,130,l),
(626,121,l),
(640,118,l),
(657,118,l),
(670,110,l),
(687,110,l),
(700,104,l),
(711,95,l),
(717,89,l),
(711,79,l),
(710,68,l),
(704,56,l),
(699,41,l),
(685,24,l),
(672,11,l),
(651,13,l),
(631,11,l),
(609,11,l),
(589,13,l),
(568,18,l),
(548,17,l),
(525,15,l),
(507,11,l),
(489,4,l),
(473,-3,l),
(456,-3,l),
(441,-1,l),
(429,8,l),
(420,22,l),
(417,38,l),
(422,52,l),
(438,65,l),
(454,75,l),
(471,86,l),
(480,99,l),
(475,112,l),
(464,123,l),
(450,132,l),
(439,143,l),
(430,157,l),
(418,173,l),
(409,190,l),
(398,207,l),
(393,226,l),
(379,240,l),
(370,257,l),
(356,269,l),
(348,276,l),
(338,270,l),
(333,259,l),
(324,250,l),
(317,239,l),
(309,228,l),
(303,214,l),
(294,205,l),
(285,196,l),
(278,182,l),
(272,166,l),
(260,151,l),
(251,138,l),
(247,119,l),
(238,100,l),
(242,91,l),
(262,82,l),
(283,80,l),
(297,68,l),
(299,56,l),
(290,43,l),
(278,32,l),
(267,18,l),
(253,6,l),
(238,-9,l),
(223,-17,l),
(203,-15,l),
(186,-5,l),
(167,-1,l),
(151,0,l),
(137,-3,l),
(123,-3,l),
(107,-7,l),
(93,-9,l),
(77,-7,l),
(61,-9,l),
(46,-13,l),
(32,-7,l),
(20,6,l),
(15,17,l),
(11,30,l),
(16,45,l),
(27,58,l),
(36,73,l),
(48,84,l),
(59,91,l),
(68,100,l),
(82,109,l),
(98,107,l),
(112,102,l),
(127,97,l),
(137,104,l),
(149,116,l),
(160,129,l),
(171,139,l),
(180,153,l),
(182,169,l),
(192,182,l),
(203,196,l),
(212,212,l),
(225,223,l),
(231,239,l),
(235,251,l),
(242,265,l),
(257,276,l),
(267,287,l),
(274,304,l),
(281,319,l),
(290,333,l),
(296,351,l),
(287,367,l),
(281,380,l),
(274,391,l),
(267,401,l),
(258,411,l),
(249,419,l),
(246,432,l),
(240,443,l),
(231,454,l),
(228,466,l),
(221,479,l),
(214,488,l),
(207,500,l),
(205,512,l),
(196,521,l),
(186,531,l),
(180,542,l),
(177,555,l),
(166,564,l),
(160,573,l),
(155,587,l),
(146,596,l),
(136,602,l),
(121,602,l),
(95,605,l),
(69,620,l),
(53,635,l),
(51,650,l),
(59,665,l),
(72,674,l),
(80,686,l),
(97,693,l),
(110,704,l),
(127,709,l),
(134,715,l)
);
}
);
width = 718;
}
);
unicode = 88;
},
{
glyphname = Y;
kernLeft = _Y;
kernRight = _Y;
lastChange = "2024-12-12 14:10:02 +0000";
layers = (
{
associatedMasterId = "764A1405-E697-4ABB-AAB9-F13AB1C32CC8";
layerId = "A7A88DC0-E7F2-46E2-8498-516E259ED036";
name = img;
width = 656;
},
{
anchors = (
{
name = bottom;
pos = (338,0);
},
{
name = top;
pos = (338,700);
},
{
name = topleft;
pos = (30,700);
}
);
layerId = "764A1405-E697-4ABB-AAB9-F13AB1C32CC8";
shapes = (
{
closed = 1;
nodes = (
(501,722,l),
(514,714,l),
(531,705,l),
(547,698,l),
(560,696,l),
(573,693,l),
(588,691,l),
(607,695,l),
(623,700,l),
(640,705,l),
(655,705,l),
(671,702,l),
(681,693,l),
(693,686,l),
(695,677,l),
(692,670,l),
(683,661,l),
(671,652,l),
(660,645,l),
(652,635,l),
(641,629,l),
(628,621,l),
(619,612,l),
(607,607,l),
(592,612,l),
(574,610,l),
(557,603,l),
(545,595,l),
(534,581,l),
(531,564,l),
(521,549,l),
(518,538,l),
(513,530,l),
(507,519,l),
(497,505,l),
(488,486,l),
(475,471,l),
(464,453,l),
(454,433,l),
(443,414,l),
(433,397,l),
(421,378,l),
(416,362,l),
(417,352,l),
(417,334,l),
(417,318,l),
(408,309,l),
(406,297,l),
(402,287,l),
(397,274,l),
(397,261,l),
(397,247,l),
(395,233,l),
(397,217,l),
(395,202,l),
(394,187,l),
(390,171,l),
(392,156,l),
(390,138,l),
(394,124,l),
(395,112,l),
(401,102,l),
(409,97,l),
(422,92,l),
(438,90,l),
(452,87,l),
(468,89,l),
(481,83,l),
(490,73,l),
(499,66,l),
(494,56,l),
(485,49,l),
(476,40,l),
(466,35,l),
(459,24,l),
(449,18,l),
(440,9,l),
(429,2,l),
(421,0,l),
(408,0,l),
(397,4,l),
(385,5,l),
(369,7,l),
(354,9,l),
(342,9,l),
(326,7,l),
(307,4,l),
(292,0,l),
(282,-3,l),
(270,-3,l),
(259,-3,l),
(244,-3,l),
(226,-5,l),
(212,5,l),
(204,19,l),
(204,37,l),
(214,50,l),
(221,64,l),
(231,76,l),
(247,87,l),
(264,90,l),
(280,97,l),
(292,107,l),
(298,124,l),
(298,143,l),
(298,162,l),
(298,180,l),
(298,199,l),
(298,217,l),
(294,236,l),
(297,254,l),
(290,268,l),
(289,281,l),
(285,295,l),
(278,307,l),
(273,320,l),
(264,331,l),
(259,343,l),
(251,353,l),
(245,364,l),
(240,376,l),
(231,386,l),
(226,399,l),
(218,409,l),
(212,419,l),
(204,430,l),
(197,441,l),
(190,455,l),
(177,471,l),
(165,486,l),
(156,502,l),
(146,519,l),
(135,535,l),
(123,550,l),
(114,569,l),
(100,581,l),
(87,591,l),
(71,595,l),
(53,597,l),
(37,602,l),
(23,609,l),
(14,621,l),
(13,635,l),
(11,649,l),
(18,659,l),
(27,669,l),
(34,681,l),
(44,689,l),
(58,695,l),
(76,700,l),
(93,698,l),
(111,695,l),
(126,691,l),
(140,688,l),
(152,681,l),
(165,679,l),
(178,676,l),
(197,674,l),
(211,676,l),
(223,676,l),
(235,677,l),
(245,676,l),
(257,674,l),
(273,664,l),
(282,655,l),
(273,643,l),
(261,631,l),
(247,621,l),
(240,603,l),
(237,588,l),
(245,570,l),
(259,557,l),
(268,538,l),
(280,524,l),
(287,509,l),
(297,493,l),
(307,478,l),
(317,464,l),
(326,448,l),
(337,433,l),
(347,419,l),
(354,411,l),
(359,418,l),
(368,425,l),
(373,435,l),
(380,443,l),
(387,455,l),
(397,467,l),
(402,481,l),
(412,495,l),
(421,507,l),
(429,521,l),
(436,535,l),
(445,549,l),
(452,562,l),
(454,572,l),
(459,583,l),
(462,595,l),
(461,603,l),
(452,605,l),
(442,610,l),
(429,616,l),
(417,629,l),
(412,647,l),
(414,664,l),
(426,679,l),
(438,691,l),
(449,705,l),
(462,717,l),
(481,722,l)
);
}
);
width = 686;
}
);
unicode = 89;
},
{
glyphname = Z;
kernLeft = Z;
kernRight = Z;
lastChange = "2024-12-12 14:08:13 +0000";
layers = (
{
associatedMasterId = "764A1405-E697-4ABB-AAB9-F13AB1C32CC8";
layerId = "A7A88DC0-E7F2-46E2-8498-516E259ED036";
name = img;
width = 585;
},
{
anchors = (
{
name = bottom;
pos = (313,0);
},
{
name = center;
pos = (313,350);
},
{
name = top;
pos = (313,700);
}
);
layerId = "764A1405-E697-4ABB-AAB9-F13AB1C32CC8";
shapes = (
{
closed = 1;
nodes = (
(156,713,l),
(172,709,l),
(189,706,l),
(207,706,l),
(224,700,l),
(241,700,l),
(258,697,l),
(275,691,l),
(291,693,l),
(313,691,l),
(331,689,l),
(349,693,l),
(368,691,l),
(386,695,l),
(404,698,l),
(422,697,l),
(440,698,l),
(459,695,l),
(479,695,l),
(497,697,l),
(513,698,l),
(531,695,l),
(546,693,l),
(561,686,l),
(568,677,l),
(570,665,l),
(563,649,l),
(557,629,l),
(546,608,l),
(533,593,l),
(522,576,l),
(506,560,l),
(495,541,l),
(484,529,l),
(477,521,l),
(469,509,l),
(466,498,l),
(457,489,l),
(452,479,l),
(444,470,l),
(438,458,l),
(435,447,l),
(425,438,l),
(420,427,l),
(416,416,l),
(411,405,l),
(404,394,l),
(397,385,l),
(391,374,l),
(384,364,l),
(379,352,l),
(377,338,l),
(369,327,l),
(358,312,l),
(346,295,l),
(335,275,l),
(322,255,l),
(313,237,l),
(305,218,l),
(300,200,l),
(290,182,l),
(282,164,l),
(271,148,l),
(261,131,l),
(252,117,l),
(248,108,l),
(256,102,l),
(268,100,l),
(282,100,l),
(296,97,l),
(309,95,l),
(322,95,l),
(335,93,l),
(347,89,l),
(362,89,l),
(377,89,l),
(391,89,l),
(406,86,l),
(422,86,l),
(435,89,l),
(447,87,l),
(461,93,l),
(477,98,l),
(482,115,l),
(486,126,l),
(493,139,l),
(508,153,l),
(524,164,l),
(535,182,l),
(552,189,l),
(576,189,l),
(591,182,l),
(602,172,l),
(606,157,l),
(599,142,l),
(591,131,l),
(580,121,l),
(572,104,l),
(563,87,l),
(557,69,l),
(550,53,l),
(537,46,l),
(527,36,l),
(517,25,l),
(502,20,l),
(490,10,l),
(477,2,l),
(463,-5,l),
(450,-9,l),
(435,-5,l),
(418,-5,l),
(401,-2,l),
(382,-2,l),
(366,2,l),
(351,6,l),
(333,6,l),
(314,9,l),
(293,9,l),
(271,12,l),
(250,12,l),
(229,10,l),
(207,6,l),
(187,4,l),
(165,2,l),
(145,0,l),
(124,2,l),
(103,-2,l),
(87,-9,l),
(71,-7,l),
(58,4,l),
(45,14,l),
(41,29,l),
(43,44,l),
(50,65,l),
(63,82,l),
(77,100,l),
(91,115,l),
(103,131,l),
(118,148,l),
(134,161,l),
(145,175,l),
(148,187,l),
(158,198,l),
(161,211,l),
(170,219,l),
(174,232,l),
(180,244,l),
(187,255,l),
(191,268,l),
(198,277,l),
(205,291,l),
(213,300,l),
(220,310,l),
(227,321,l),
(233,330,l),
(241,341,l),
(247,355,l),
(252,366,l),
(259,375,l),
(265,388,l),
(271,397,l),
(277,408,l),
(284,419,l),
(288,432,l),
(298,445,l),
(311,463,l),
(320,477,l),
(329,485,l),
(335,495,l),
(342,506,l),
(354,513,l),
(358,523,l),
(368,534,l),
(375,543,l),
(384,556,l),
(391,576,l),
(390,591,l),
(375,597,l),
(356,598,l),
(340,598,l),
(327,598,l),
(314,598,l),
(302,597,l),
(284,597,l),
(263,598,l),
(243,595,l),
(220,597,l),
(198,597,l),
(179,593,l),
(169,584,l),
(159,576,l),
(148,564,l),
(145,551,l),
(136,540,l),
(124,530,l),
(114,523,l),
(105,511,l),
(92,516,l),
(86,532,l),
(89,549,l),
(91,562,l),
(94,578,l),
(98,598,l),
(94,613,l),
(87,624,l),
(84,636,l),
(81,647,l),
(86,665,l),
(103,677,l),
(118,695,l),
(137,708,l)
);
}
);
width = 605;
}
);
unicode = 90;
},
{
glyphname = a;
kernLeft = _a;
kernRight = _a;
lastChange = "2024-12-12 14:11:41 +0000";
layers = (
{
associatedMasterId = "764A1405-E697-4ABB-AAB9-F13AB1C32CC8";
layerId = "A7A88DC0-E7F2-46E2-8498-516E259ED036";
name = img;
width = 532;
},
{
anchors = (
{
name = bottom;
pos = (276,0);
},
{
name = ogonek;
pos = (429,10);
},
{
name = top;
pos = (276,500);
}
);
layerId = "764A1405-E697-4ABB-AAB9-F13AB1C32CC8";
shapes = (
{
closed = 1;
nodes = (
(289,214,l),
(269,211,l),
(256,209,l),
(244,208,l),
(230,206,l),
(218,206,l),
(204,202,l),
(196,192,l),
(187,176,l),
(186,159,l),
(186,143,l),
(194,125,l),
(203,114,l),
(214,103,l),
(229,96,l),
(249,94,l),
(265,96,l),
(277,99,l),
(287,105,l),
(298,112,l),
(307,120,l),
(316,130,l),
(323,140,l),
(329,150,l),
(337,165,l),
(337,185,l),
(337,214,l),
(317,214,l),
(305,218,l)
);
},
{
closed = 1;
nodes = (
(277,518,l),
(296,511,l),
(316,515,l),
(336,515,l),
(353,507,l),
(372,506,l),
(388,504,l),
(404,495,l),
(417,489,l),
(428,486,l),
(435,470,l),
(450,453,l),
(457,428,l),
(465,411,l),
(461,399,l),
(461,386,l),
(463,373,l),
(465,360,l),
(459,346,l),
(461,331,l),
(459,315,l),
(461,301,l),
(457,286,l),
(458,271,l),
(459,256,l),
(458,239,l),
(450,227,l),
(453,209,l),
(450,194,l),
(449,180,l),
(446,166,l),
(450,152,l),
(453,140,l),
(457,125,l),
(457,115,l),
(461,105,l),
(463,92,l),
(465,81,l),
(486,96,l),
(501,97,l),
(520,105,l),
(536,101,l),
(539,86,l),
(541,72,l),
(529,60,l),
(515,53,l),
(501,43,l),
(491,34,l),
(475,30,l),
(463,23,l),
(450,13,l),
(437,3,l),
(423,0,l),
(407,-11,l),
(387,-13,l),
(374,-11,l),
(359,-4,l),
(344,8,l),
(339,25,l),
(336,41,l),
(329,58,l),
(327,71,l),
(314,56,l),
(301,51,l),
(289,43,l),
(277,32,l),
(262,27,l),
(253,11,l),
(238,8,l),
(223,1,l),
(211,-4,l),
(196,-6,l),
(185,-11,l),
(174,-6,l),
(159,-9,l),
(149,0,l),
(136,0,l),
(127,9,l),
(117,15,l),
(110,25,l),
(100,30,l),
(88,35,l),
(78,51,l),
(65,65,l),
(62,86,l),
(64,103,l),
(64,119,l),
(60,135,l),
(62,154,l),
(69,171,l),
(76,180,l),
(86,191,l),
(98,202,l),
(108,211,l),
(116,225,l),
(129,234,l),
(142,243,l),
(157,248,l),
(167,263,l),
(181,264,l),
(190,271,l),
(203,275,l),
(213,284,l),
(227,284,l),
(239,286,l),
(255,282,l),
(269,288,l),
(287,282,l),
(301,286,l),
(316,284,l),
(334,283,l),
(340,301,l),
(337,322,l),
(343,342,l),
(341,362,l),
(343,384,l),
(334,401,l),
(323,413,l),
(316,425,l),
(309,434,l),
(296,437,l),
(287,446,l),
(279,453,l),
(267,449,l),
(258,457,l),
(248,450,l),
(236,458,l),
(224,460,l),
(215,451,l),
(200,451,l),
(193,448,l),
(175,441,l),
(188,432,l),
(196,420,l),
(198,405,l),
(200,389,l),
(194,377,l),
(193,359,l),
(178,354,l),
(165,342,l),
(149,334,l),
(133,329,l),
(116,331,l),
(100,333,l),
(91,347,l),
(81,359,l),
(73,374,l),
(71,389,l),
(69,403,l),
(76,417,l),
(81,436,l),
(94,453,l),
(110,465,l),
(131,474,l),
(149,487,l),
(167,496,l),
(179,496,l),
(190,503,l),
(203,507,l),
(218,507,l),
(230,512,l),
(246,514,l),
(260,512,l)
);
}
);
width = 542;
}
);
unicode = 97;
},
{
glyphname = ae;
lastChange = "2024-12-12 12:51:51 +0000";
layers = (
{
associatedMasterId = "764A1405-E697-4ABB-AAB9-F13AB1C32CC8";
layerId = "A7A88DC0-E7F2-46E2-8498-516E259ED036";
name = img;
width = 740;
},
{
anchors = (
{
name = bottom;
pos = (370,0);
},
{
name = top;
pos = (408,500);
}
);
layerId = "764A1405-E697-4ABB-AAB9-F13AB1C32CC8";
shapes = (
{
closed = 1;
nodes = (
(501,412,l),
(490,412,l),
(478,412,l),
(464,409,l),
(449,400,l),
(440,382,l),
(437,362,l),
(436,333,l),
(460,340,l),
(479,340,l),
(498,343,l),
(517,345,l),
(536,348,l),
(555,351,l),
(573,352,l),
(588,356,l),
(593,365,l),
(590,372,l),
(583,382,l),
(570,391,l),
(553,401,l),
(534,408,l),
(515,411,l)
);
},
{
closed = 1;
nodes = (
(292,220,l),
(276,216,l),
(258,214,l),
(239,210,l),
(221,206,l),
(205,198,l),
(192,185,l),
(189,167,l),
(192,150,l),
(199,134,l),
(208,117,l),
(221,108,l),
(238,110,l),
(257,117,l),
(274,127,l),
(288,141,l),
(301,156,l),
(313,172,l),
(323,188,l),
(331,203,l),
(333,222,l),
(318,219,l),
(306,222,l)
);
},
{
closed = 1;
nodes = (
(264,506,l),
(279,509,l),
(294,504,l),
(310,501,l),
(329,495,l),
(350,492,l),
(367,483,l),
(379,470,l),
(391,462,l),
(399,453,l),
(406,443,l),
(416,420,l),
(428,442,l),
(439,449,l),
(449,459,l),
(459,469,l),
(467,481,l),
(482,484,l),
(495,492,l),
(508,498,l),
(526,506,l),
(546,505,l),
(565,508,l),
(583,501,l),
(603,495,l),
(623,489,l),
(640,478,l),
(659,471,l),
(671,454,l),
(687,442,l),
(695,423,l),
(702,406,l),
(704,392,l),
(700,379,l),
(702,366,l),
(711,354,l),
(707,340,l),
(711,325,l),
(701,309,l),
(689,298,l),
(678,287,l),
(666,277,l),
(654,265,l),
(637,261,l),
(624,257,l),
(612,261,l),
(600,258,l),
(588,263,l),
(575,259,l),
(564,261,l),
(552,263,l),
(539,265,l),
(525,266,l),
(509,266,l),
(494,263,l),
(480,262,l),
(467,256,l),
(457,253,l),
(444,253,l),
(431,251,l),
(431,236,l),
(432,223,l),
(429,211,l),
(432,195,l),
(440,178,l),
(440,157,l),
(450,141,l),
(461,124,l),
(478,110,l),
(497,105,l),
(510,99,l),
(529,95,l),
(547,96,l),
(567,99,l),
(581,104,l),
(597,106,l),
(611,113,l),
(619,122,l),
(629,133,l),
(635,142,l),
(648,150,l),
(656,160,l),
(666,168,l),
(678,163,l),
(684,149,l),
(688,133,l),
(687,117,l),
(675,107,l),
(664,96,l),
(661,82,l),
(648,71,l),
(641,61,l),
(631,49,l),
(616,42,l),
(613,28,l),
(595,22,l),
(578,10,l),
(557,2,l),
(534,-5,l),
(513,-5,l),
(492,-4,l),
(474,-8,l),
(456,-4,l),
(441,-5,l),
(427,-1,l),
(414,7,l),
(403,12,l),
(392,22,l),
(379,26,l),
(368,34,l),
(361,48,l),
(356,61,l),
(350,75,l),
(348,89,l),
(346,101,l),
(337,105,l),
(328,98,l),
(321,86,l),
(313,74,l),
(304,61,l),
(294,47,l),
(278,32,l),
(262,26,l),
(253,13,l),
(240,10,l),
(229,4,l),
(215,-2,l),
(202,3,l),
(188,0,l),
(175,-3,l),
(162,-5,l),
(148,-8,l),
(128,-3,l),
(109,9,l),
(89,16,l),
(77,33,l),
(65,50,l),
(55,68,l),
(52,88,l),
(48,107,l),
(54,124,l),
(55,141,l),
(62,155,l),
(69,169,l),
(82,178,l),
(92,189,l),
(99,203,l),
(113,211,l),
(122,224,l),
(133,235,l),
(144,244,l),
(153,258,l),
(166,263,l),
(181,267,l),
(196,273,l),
(211,279,l),
(227,280,l),
(244,283,l),
(259,291,l),
(276,290,l),
(293,295,l),
(309,296,l),
(319,304,l),
(330,307,l),
(339,305,l),
(338,330,l),
(334,348,l),
(322,363,l),
(317,375,l),
(306,381,l),
(299,390,l),
(288,398,l),
(276,398,l),
(264,404,l),
(248,416,l),
(232,421,l),
(211,423,l),
(193,421,l),
(164,423,l),
(194,390,l),
(195,374,l),
(190,364,l),
(188,350,l),
(178,341,l),
(168,335,l),
(160,327,l),
(149,322,l),
(136,323,l),
(122,326,l),
(110,336,l),
(100,348,l),
(86,357,l),
(79,373,l),
(79,394,l),
(89,410,l),
(95,427,l),
(105,440,l),
(117,453,l),
(133,460,l),
(142,474,l),
(156,484,l),
(173,491,l),
(188,496,l),
(204,496,l),
(219,502,l),
(234,504,l),
(249,509,l)
);
}
);
width = 740;
}
);
unicode = 230;
},
{
glyphname = b;
lastChange = "2024-12-12 14:11:38 +0000";
layers = (
{
associatedMasterId = "764A1405-E697-4ABB-AAB9-F13AB1C32CC8";
layerId = "A7A88DC0-E7F2-46E2-8498-516E259ED036";
name = img;
width = 578;
},
{
layerId = "764A1405-E697-4ABB-AAB9-F13AB1C32CC8";
shapes = (
{
closed = 1;
nodes = (
(287,403,l),
(274,399,l),
(261,394,l),
(248,390,l),
(235,385,l),
(226,379,l),
(217,370,l),
(209,361,l),
(204,348,l),
(204,331,l),
(206,315,l),
(206,298,l),
(204,278,l),
(204,256,l),
(204,234,l),
(204,212,l),
(204,195,l),
(204,184,l),
(204,171,l),
(206,160,l),
(211,147,l),
(215,131,l),
(226,118,l),
(244,107,l),
(257,100,l),
(268,96,l),
(279,92,l),
(290,89,l),
(303,87,l),
(314,87,l),
(325,89,l),
(338,89,l),
(355,90,l),
(375,98,l),
(386,109,l),
(386,122,l),
(391,133,l),
(397,144,l),
(401,155,l),
(406,166,l),
(412,177,l),
(415,188,l),
(419,203,l),
(421,219,l),
(419,236,l),
(417,254,l),
(414,272,l),
(406,289,l),
(401,306,l),
(393,324,l),
(382,339,l),
(371,353,l),
(360,366,l),
(349,379,l),
(336,388,l),
(323,396,l),
(311,399,l),
(299,405,l)
);
},
{
closed = 1;
nodes = (
(134,799,l),
(150,795,l),
(165,793,l),
(176,788,l),
(185,775,l),
(189,756,l),
(189,738,l),
(189,718,l),
(195,699,l),
(198,681,l),
(202,666,l),
(208,653,l),
(202,639,l),
(208,626,l),
(208,613,l),
(206,598,l),
(204,585,l),
(209,570,l),
(206,556,l),
(206,543,l),
(202,528,l),
(208,513,l),
(204,501,l),
(208,488,l),
(202,473,l),
(209,460,l),
(209,453,l),
(222,458,l),
(239,467,l),
(259,471,l),
(276,482,l),
(294,493,l),
(318,495,l),
(336,502,l),
(357,504,l),
(375,497,l),
(393,493,l),
(412,486,l),
(426,471,l),
(443,458,l),
(461,445,l),
(474,433,l),
(482,423,l),
(487,414,l),
(496,407,l),
(502,396,l),
(507,385,l),
(517,375,l),
(518,363,l),
(526,353,l),
(531,344,l),
(533,331,l),
(539,320,l),
(540,307,l),
(539,295,l),
(540,284,l),
(542,271,l),
(548,260,l),
(542,247,l),
(548,236,l),
(548,223,l),
(544,204,l),
(535,184,l),
(528,169,l),
(520,158,l),
(518,146,l),
(507,138,l),
(502,125,l),
(491,116,l),
(485,103,l),
(476,92,l),
(465,83,l),
(456,74,l),
(441,66,l),
(432,55,l),
(423,44,l),
(406,43,l),
(395,33,l),
(382,26,l),
(373,15,l),
(360,11,l),
(345,9,l),
(333,4,l),
(320,2,l),
(307,-2,l),
(294,-5,l),
(281,-7,l),
(268,-9,l),
(255,-3,l),
(242,-5,l),
(230,0,l),
(215,4,l),
(202,15,l),
(191,28,l),
(178,41,l),
(163,48,l),
(147,39,l),
(136,22,l),
(130,8,l),
(112,8,l),
(99,9,l),
(90,20,l),
(82,39,l),
(84,61,l),
(77,83,l),
(86,107,l),
(82,129,l),
(82,153,l),
(79,171,l),
(79,188,l),
(79,204,l),
(82,221,l),
(79,238,l),
(79,254,l),
(77,269,l),
(77,285,l),
(79,302,l),
(79,318,l),
(81,335,l),
(77,352,l),
(81,370,l),
(81,387,l),
(84,403,l),
(79,420,l),
(79,436,l),
(84,453,l),
(81,469,l),
(79,486,l),
(79,504,l),
(86,521,l),
(84,537,l),
(82,554,l),
(81,570,l),
(86,587,l),
(84,602,l),
(82,618,l),
(84,635,l),
(79,650,l),
(75,666,l),
(71,681,l),
(66,688,l),
(53,692,l),
(38,692,l),
(24,697,l),
(9,697,l),
(-6,703,l),
(-19,705,l),
(-32,710,l),
(-39,723,l),
(-35,736,l),
(-28,749,l),
(-8,754,l),
(7,769,l),
(27,777,l),
(42,782,l),
(55,786,l),
(66,784,l),
(79,791,l),
(95,788,l),
(116,800,l)
);
}
);
width = 575;
}
);
metricRight = o;
unicode = 98;
},
{
glyphname = c;
kernLeft = _c;
kernRight = _c;
lastChange = "2024-12-12 14:11:45 +0000";
layers = (
{
associatedMasterId = "764A1405-E697-4ABB-AAB9-F13AB1C32CC8";
layerId = "A7A88DC0-E7F2-46E2-8498-516E259ED036";
name = img;
width = 508;
},
{
anchors = (
{
name = bottom;
pos = (254,0);
},
{
name = top;
pos = (282,500);
}
);
layerId = "764A1405-E697-4ABB-AAB9-F13AB1C32CC8";
shapes = (
{
closed = 1;
nodes = (
(314,511,l),
(336,506,l),
(360,506,l),
(381,501,l),
(400,497,l),
(414,488,l),
(429,478,l),
(436,461,l),
(441,448,l),
(444,438,l),
(445,422,l),
(445,408,l),
(443,392,l),
(438,375,l),
(434,363,l),
(428,356,l),
(421,347,l),
(410,342,l),
(400,336,l),
(391,331,l),
(372,325,l),
(351,329,l),
(328,334,l),
(316,352,l),
(311,370,l),
(314,390,l),
(318,410,l),
(337,429,l),
(304,436,l),
(289,436,l),
(272,436,l),
(256,436,l),
(239,431,l),
(225,424,l),
(213,419,l),
(202,410,l),
(195,401,l),
(191,389,l),
(186,377,l),
(181,365,l),
(175,350,l),
(174,336,l),
(174,321,l),
(174,307,l),
(174,291,l),
(167,277,l),
(169,260,l),
(174,245,l),
(179,233,l),
(181,220,l),
(181,205,l),
(188,191,l),
(199,179,l),
(206,160,l),
(214,142,l),
(231,128,l),
(246,116,l),
(260,104,l),
(276,97,l),
(288,95,l),
(300,95,l),
(312,95,l),
(325,90,l),
(342,91,l),
(354,97,l),
(367,106,l),
(377,117,l),
(391,121,l),
(401,132,l),
(417,130,l),
(435,128,l),
(452,121,l),
(461,113,l),
(459,102,l),
(449,83,l),
(433,67,l),
(412,57,l),
(396,50,l),
(385,43,l),
(370,39,l),
(360,32,l),
(351,23,l),
(340,14,l),
(328,4,l),
(314,-3,l),
(300,-5,l),
(282,-10,l),
(265,-5,l),
(255,-8,l),
(242,-5,l),
(231,-5,l),
(213,-3,l),
(193,6,l),
(174,12,l),
(155,19,l),
(139,34,l),
(125,46,l),
(111,57,l),
(101,65,l),
(94,79,l),
(86,99,l),
(78,117,l),
(64,133,l),
(59,148,l),
(59,160,l),
(50,170,l),
(52,184,l),
(43,196,l),
(41,214,l),
(41,237,l),
(45,260,l),
(52,280,l),
(50,300,l),
(53,319,l),
(61,340,l),
(64,359,l),
(74,377,l),
(85,396,l),
(101,410,l),
(111,424,l),
(123,439,l),
(135,452,l),
(153,457,l),
(169,466,l),
(183,478,l),
(199,488,l),
(216,494,l),
(233,504,l),
(253,508,l),
(272,510,l),
(295,510,l)
);
}
);
width = 488;
}
);
metricLeft = o;
unicode = 99;
},
{
glyphname = d;
lastChange = "2024-12-12 14:11:47 +0000";
layers = (
{
associatedMasterId = "764A1405-E697-4ABB-AAB9-F13AB1C32CC8";
layerId = "A7A88DC0-E7F2-46E2-8498-516E259ED036";
name = img;
width = 547;
},
{
anchors = (
{
name = bottom;
pos = (274,0);
},
{
name = center;
pos = (380,600);
},
{
name = top;
pos = (274,500);
},
{
name = topright;
pos = (507,800);
}
);
layerId = "764A1405-E697-4ABB-AAB9-F13AB1C32CC8";
shapes = (
{
closed = 1;
nodes = (
(243,411,l),
(232,411,l),
(220,404,l),
(206,395,l),
(196,383,l),
(185,370,l),
(176,356,l),
(169,337,l),
(164,318,l),
(160,297,l),
(158,276,l),
(158,255,l),
(160,235,l),
(162,214,l),
(165,192,l),
(171,172,l),
(180,153,l),
(187,137,l),
(199,123,l),
(211,111,l),
(225,102,l),
(239,95,l),
(257,91,l),
(273,98,l),
(289,104,l),
(300,116,l),
(310,127,l),
(325,136,l),
(335,146,l),
(344,159,l),
(348,174,l),
(348,190,l),
(348,205,l),
(348,219,l),
(348,233,l),
(346,246,l),
(348,258,l),
(350,271,l),
(346,285,l),
(344,301,l),
(342,316,l),
(342,332,l),
(342,344,l),
(346,358,l),
(350,370,l),
(351,385,l),
(350,393,l),
(341,395,l),
(330,397,l),
(319,402,l),
(305,406,l),
(293,408,l),
(280,409,l),
(268,411,l),
(255,413,l)
);
},
{
closed = 1;
nodes = (
(415,806,l),
(434,801,l),
(452,795,l),
(464,786,l),
(473,778,l),
(471,765,l),
(475,754,l),
(475,741,l),
(473,729,l),
(473,716,l),
(475,705,l),
(477,692,l),
(475,678,l),
(471,664,l),
(470,651,l),
(468,638,l),
(470,624,l),
(471,609,l),
(471,595,l),
(473,579,l),
(473,565,l),
(473,551,l),
(475,537,l),
(475,524,l),
(475,515,l),
(475,504,l),
(471,492,l),
(471,476,l),
(468,457,l),
(471,439,l),
(470,425,l),
(466,408,l),
(468,392,l),
(464,377,l),
(459,361,l),
(462,347,l),
(464,332,l),
(466,314,l),
(468,292,l),
(470,272,l),
(470,251,l),
(471,232,l),
(475,212,l),
(470,192,l),
(471,172,l),
(480,155,l),
(482,137,l),
(496,132,l),
(520,137,l),
(539,135,l),
(550,148,l),
(562,146,l),
(570,134,l),
(573,126,l),
(570,115,l),
(562,104,l),
(554,96,l),
(549,83,l),
(543,74,l),
(537,69,l),
(529,62,l),
(515,51,l),
(508,39,l),
(498,26,l),
(484,26,l),
(471,19,l),
(459,16,l),
(445,3,l),
(424,-6,l),
(403,-7,l),
(387,-11,l),
(376,-4,l),
(369,3,l),
(362,14,l),
(358,25,l),
(357,35,l),
(362,48,l),
(362,58,l),
(362,71,l),
(358,81,l),
(350,85,l),
(334,80,l),
(319,69,l),
(303,56,l),
(289,42,l),
(277,28,l),
(266,14,l),
(248,7,l),
(230,1,l),
(211,-4,l),
(194,-7,l),
(178,-9,l),
(164,-4,l),
(151,1,l),
(135,5,l),
(124,14,l),
(111,25,l),
(101,39,l),
(94,49,l),
(87,60,l),
(80,72,l),
(68,78,l),
(66,93,l),
(59,105,l),
(61,121,l),
(57,139,l),
(48,159,l),
(46,181,l),
(45,201,l),
(45,223,l),
(43,244,l),
(41,265,l),
(48,285,l),
(48,304,l),
(59,321,l),
(68,337,l),
(77,356,l),
(84,374,l),
(99,386,l),
(106,404,l),
(120,417,l),
(134,432,l),
(151,439,l),
(164,453,l),
(178,465,l),
(197,471,l),
(218,476,l),
(234,487,l),
(252,494,l),
(266,501,l),
(278,503,l),
(294,503,l),
(319,501,l),
(341,497,l),
(351,501,l),
(351,508,l),
(355,515,l),
(350,528,l),
(350,549,l),
(355,567,l),
(357,586,l),
(357,604,l),
(358,624,l),
(358,642,l),
(353,660,l),
(358,680,l),
(350,697,l),
(334,701,l),
(321,701,l),
(305,702,l),
(293,700,l),
(275,698,l),
(261,703,l),
(248,708,l),
(241,720,l),
(248,729,l),
(255,739,l),
(262,750,l),
(268,759,l),
(278,765,l),
(291,772,l),
(307,783,l),
(330,789,l),
(353,794,l),
(369,797,l),
(382,797,l),
(396,802,l)
);
}
);
width = 557;
}
);
metricLeft = o;
unicode = 100;
},
{
glyphname = eth;
lastChange = "2024-12-12 13:00:25 +0000";
layers = (
{
layerId = "764A1405-E697-4ABB-AAB9-F13AB1C32CC8";
shapes = (
{
closed = 1;
nodes = (
(200,409,l),
(193,395,l),
(186,382,l),
(180,365,l),
(178,349,l),
(175,331,l),
(168,316,l),
(169,297,l),
(169,283,l),
(169,267,l),
(169,251,l),
(175,235,l),
(176,220,l),
(186,206,l),
(193,193,l),
(198,179,l),
(207,166,l),
(215,156,l),
(225,147,l),
(235,138,l),
(245,131,l),
(260,127,l),
(275,120,l),
(295,113,l),
(315,109,l),
(337,113,l),
(349,124,l),
(361,134,l),
(367,151,l),
(371,166,l),
(371,185,l),
(374,203,l),
(374,222,l),
(374,240,l),
(372,260,l),
(367,278,l),
(367,294,l),
(361,305,l),
(356,316,l),
(352,329,l),
(347,342,l),
(342,353,l),
(337,363,l),
(329,374,l),
(319,387,l),
(306,401,l),
(290,410,l),
(275,414,l),
(263,414,l),
(250,414,l),
(238,417,l),
(225,415,l),
(213,415,l)
);
},
{
closed = 1;
nodes = (
(284,514,l),
(297,513,l),
(309,509,l),
(324,509,l),
(344,509,l),
(364,503,l),
(381,494,l),
(397,484,l),
(409,471,l),
(422,459,l),
(432,444,l),
(444,432,l),
(452,414,l),
(464,397,l),
(471,378,l),
(474,356,l),
(486,338,l),
(489,316,l),
(497,297,l),
(497,278,l),
(501,260,l),
(503,240,l),
(503,218,l),
(508,199,l),
(503,183,l),
(503,165,l),
(494,153,l),
(488,138,l),
(477,126,l),
(467,111,l),
(452,99,l),
(434,85,l),
(422,71,l),
(407,56,l),
(391,41,l),
(376,28,l),
(356,21,l),
(344,4,l),
(326,-3,l),
(309,-6,l),
(297,-18,l),
(282,-21,l),
(268,-21,l),
(255,-16,l),
(243,-12,l),
(228,-6,l),
(218,2,l),
(211,13,l),
(198,19,l),
(186,24,l),
(173,31,l),
(161,33,l),
(147,40,l),
(135,48,l),
(123,63,l),
(106,76,l),
(98,88,l),
(90,101,l),
(84,113,l),
(81,127,l),
(71,138,l),
(68,153,l),
(63,165,l),
(56,178,l),
(50,188,l),
(46,201,l),
(43,212,l),
(41,226,l),
(44,244,l),
(46,265,l),
(58,283,l),
(56,305,l),
(61,322,l),
(66,342,l),
(64,356,l),
(75,365,l),
(78,380,l),
(88,389,l),
(93,399,l),
(102,407,l),
(111,415,l),
(118,422,l),
(127,432,l),
(138,437,l),
(143,447,l),
(155,453,l),
(166,462,l),
(178,466,l),
(188,474,l),
(198,484,l),
(213,496,l),
(232,503,l),
(252,513,l),
(270,518,l)
);
},
{
closed = 1;
nodes = (
(379,341,l),
(379,354,l),
(379,363,l),
(376,376,l),
(376,387,l),
(373,398,l),
(372,407,l),
(366,420,l),
(366,429,l),
(361,439,l),
(359,451,l),
(354,461,l),
(350,470,l),
(346,481,l),
(339,491,l),
(336,500,l),
(331,511,l),
(325,520,l),
(320,529,l),
(311,537,l),
(306,548,l),
(301,558,l),
(295,566,l),
(288,574,l),
(283,584,l),
(274,591,l),
(268,599,l),
(261,607,l),
(254,617,l),
(247,625,l),
(240,633,l),
(235,642,l),
(225,650,l),
(220,658,l),
(214,666,l),
(206,673,l),
(198,680,l),
(191,688,l),
(184,696,l),
(176,703,l),
(169,711,l),
(169,721,l),
(172,733,l),
(177,747,l),
(185,754,l),
(194,763,l),
(206,770,l),
(216,777,l),
(228,784,l),
(243,784,l),
(255,779,l),
(266,773,l),
(274,765,l),
(283,755,l),
(292,747,l),
(301,739,l),
(307,728,l),
(316,720,l),
(321,709,l),
(329,700,l),
(335,689,l),
(342,680,l),
(348,670,l),
(354,659,l),
(364,650,l),
(372,636,l),
(380,622,l),
(391,611,l),
(399,598,l),
(409,584,l),
(413,572,l),
(424,558,l),
(429,544,l),
(438,529,l),
(443,514,l),
(453,500,l),
(457,484,l),
(464,468,l),
(466,451,l),
(473,435,l),
(475,420,l),
(479,404,l),
(479,389,l),
(479,374,l),
(475,361,l),
(475,346,l),
(472,333,l)
);
},
{
closed = 1;
nodes = (
(413,736,l),
(419,734,l),
(417,726,l),
(413,708,l),
(423,699,l),
(414,678,l),
(415,663,l),
(411,654,l),
(395,646,l),
(388,636,l),
(370,631,l),
(364,621,l),
(354,609,l),
(341,603,l),
(325,604,l),
(312,601,l),
(296,598,l),
(285,594,l),
(272,591,l),
(256,585,l),
(243,579,l),
(232,573,l),
(217,568,l),
(200,567,l),
(184,564,l),
(169,563,l),
(156,563,l),
(144,565,l),
(135,576,l),
(129,592,l),
(131,610,l),
(138,627,l),
(146,644,l),
(158,659,l),
(174,667,l),
(190,669,l),
(203,670,l),
(216,669,l),
(229,668,l),
(239,673,l),
(250,678,l),
(261,685,l),
(274,688,l),
(288,692,l),
(302,695,l),
(314,699,l),
(328,698,l),
(343,700,l),
(355,701,l),
(367,709,l),
(383,718,l),
(397,732,l)
);
}
);
width = 535;
}
);
metricLeft = o;
metricRight = o;
unicode = 240;
},
{
glyphname = e;
kernLeft = _e;
kernRight = _e;
lastChange = "2024-12-12 14:11:48 +0000";
layers = (
{
associatedMasterId = "764A1405-E697-4ABB-AAB9-F13AB1C32CC8";
layerId = "A7A88DC0-E7F2-46E2-8498-516E259ED036";
name = img;
width = 461;
},
{
anchors = (
{
name = bottom;
pos = (231,0);
},
{
name = ogonek;
pos = (267,10);
},
{
name = top;
pos = (251,500);
}
);
layerId = "764A1405-E697-4ABB-AAB9-F13AB1C32CC8";
shapes = (
{
closed = 1;
nodes = (
(216,425,l),
(202,417,l),
(192,407,l),
(183,396,l),
(178,383,l),
(170,368,l),
(168,352,l),
(165,340,l),
(165,325,l),
(185,324,l),
(200,324,l),
(214,322,l),
(226,322,l),
(238,322,l),
(250,322,l),
(265,322,l),
(277,324,l),
(289,325,l),
(302,327,l),
(317,330,l),
(322,340,l),
(320,350,l),
(315,362,l),
(307,377,l),
(298,389,l),
(287,401,l),
(273,415,l),
(256,420,l),
(233,425,l)
);
},
{
closed = 1;
nodes = (
(240,509,l),
(256,507,l),
(272,504,l),
(287,499,l),
(302,495,l),
(314,489,l),
(329,488,l),
(340,479,l),
(350,472,l),
(361,464,l),
(372,455,l),
(379,442,l),
(387,434,l),
(391,420,l),
(399,409,l),
(406,399,l),
(410,384,l),
(417,365,l),
(426,348,l),
(427,330,l),
(417,315,l),
(402,305,l),
(389,294,l),
(375,280,l),
(361,270,l),
(347,270,l),
(333,266,l),
(317,268,l),
(300,265,l),
(284,266,l),
(268,268,l),
(252,268,l),
(235,266,l),
(214,270,l),
(193,268,l),
(175,265,l),
(165,257,l),
(167,245,l),
(167,230,l),
(165,217,l),
(171,201,l),
(172,188,l),
(174,176,l),
(176,163,l),
(189,150,l),
(199,137,l),
(206,125,l),
(221,115,l),
(231,104,l),
(247,104,l),
(258,101,l),
(270,99,l),
(282,99,l),
(298,101,l),
(314,105,l),
(329,114,l),
(345,121,l),
(362,125,l),
(379,123,l),
(399,121,l),
(406,109,l),
(404,93,l),
(394,81,l),
(384,72,l),
(375,59,l),
(358,46,l),
(345,36,l),
(332,23,l),
(315,17,l),
(298,9,l),
(278,3,l),
(256,2,l),
(240,-6,l),
(225,-7,l),
(210,-6,l),
(198,-10,l),
(183,-6,l),
(165,6,l),
(146,16,l),
(126,26,l),
(113,39,l),
(99,53,l),
(91,71,l),
(81,86,l),
(71,106,l),
(59,123,l),
(55,151,l),
(46,170,l),
(46,193,l),
(41,213,l),
(43,235,l),
(44,257,l),
(44,278,l),
(48,300,l),
(50,322,l),
(62,342,l),
(69,360,l),
(78,380,l),
(85,399,l),
(98,413,l),
(106,428,l),
(115,437,l),
(127,447,l),
(134,457,l),
(145,466,l),
(155,471,l),
(165,478,l),
(175,486,l),
(188,489,l),
(202,495,l),
(214,501,l),
(225,509,l)
);
}
);
width = 451;
}
);
metricLeft = o;
unicode = 101;
},
{
glyphname = f;
kernLeft = f;
kernRight = f;
lastChange = "2024-12-12 14:11:49 +0000";
layers = (
{
associatedMasterId = "764A1405-E697-4ABB-AAB9-F13AB1C32CC8";
layerId = "A7A88DC0-E7F2-46E2-8498-516E259ED036";
name = img;
width = 368;
},
{
layerId = "764A1405-E697-4ABB-AAB9-F13AB1C32CC8";
shapes = (
{
closed = 1;
nodes = (
(326,798,l),
(345,789,l),
(361,789,l),
(373,788,l),
(383,783,l),
(392,776,l),
(405,767,l),
(423,756,l),
(431,738,l),
(428,724,l),
(433,713,l),
(425,699,l),
(415,684,l),
(398,674,l),
(388,659,l),
(375,650,l),
(361,649,l),
(348,649,l),
(333,644,l),
(318,644,l),
(305,650,l),
(297,662,l),
(286,667,l),
(283,681,l),
(288,693,l),
(286,701,l),
(288,708,l),
(298,715,l),
(288,721,l),
(270,723,l),
(256,718,l),
(252,719,l),
(250,713,l),
(247,710,l),
(244,701,l),
(240,692,l),
(237,680,l),
(236,668,l),
(239,658,l),
(237,647,l),
(230,637,l),
(225,625,l),
(224,614,l),
(220,602,l),
(222,590,l),
(219,578,l),
(217,565,l),
(214,553,l),
(220,542,l),
(222,530,l),
(229,520,l),
(230,508,l),
(244,508,l),
(254,503,l),
(262,500,l),
(275,500,l),
(287,503,l),
(300,498,l),
(312,498,l),
(324,502,l),
(334,497,l),
(342,493,l),
(356,491,l),
(351,480,l),
(339,468,l),
(331,453,l),
(319,443,l),
(305,438,l),
(292,432,l),
(285,418,l),
(269,413,l),
(251,413,l),
(237,415,l),
(224,408,l),
(217,395,l),
(225,381,l),
(220,368,l),
(224,354,l),
(222,340,l),
(224,326,l),
(219,313,l),
(219,298,l),
(220,283,l),
(219,264,l),
(215,243,l),
(212,225,l),
(214,206,l),
(219,188,l),
(215,169,l),
(215,151,l),
(220,135,l),
(225,119,l),
(230,108,l),
(234,98,l),
(241,89,l),
(254,91,l),
(267,87,l),
(282,91,l),
(292,84,l),
(302,79,l),
(314,79,l),
(321,69,l),
(331,62,l),
(321,52,l),
(310,49,l),
(302,41,l),
(290,38,l),
(278,34,l),
(267,28,l),
(257,18,l),
(247,11,l),
(235,4,l),
(220,6,l),
(205,-3,l),
(188,6,l),
(172,4,l),
(154,6,l),
(139,1,l),
(125,-1,l),
(112,-1,l),
(98,-3,l),
(83,-1,l),
(69,-6,l),
(57,-3,l),
(49,6,l),
(42,11,l),
(30,19,l),
(38,33,l),
(44,52,l),
(62,62,l),
(73,76,l),
(83,91,l),
(97,92,l),
(105,103,l),
(102,114,l),
(105,126,l),
(110,136,l),
(113,149,l),
(113,162,l),
(112,174,l),
(105,184,l),
(105,196,l),
(102,208,l),
(100,220,l),
(107,233,l),
(102,249,l),
(103,264,l),
(110,279,l),
(108,295,l),
(110,310,l),
(110,325,l),
(108,342,l),
(113,358,l),
(112,371,l),
(107,385,l),
(108,398,l),
(105,410,l),
(93,413,l),
(80,413,l),
(62,415,l),
(45,427,l),
(28,435,l),
(20,449,l),
(25,465,l),
(32,473,l),
(45,481,l),
(59,495,l),
(76,505,l),
(97,512,l),
(105,517,l),
(105,528,l),
(112,539,l),
(105,551,l),
(107,561,l),
(115,571,l),
(110,583,l),
(117,592,l),
(118,603,l),
(125,612,l),
(129,622,l),
(129,634,l),
(134,644,l),
(140,653,l),
(147,660,l),
(150,672,l),
(161,682,l),
(166,704,l),
(176,714,l),
(182,732,l),
(191,746,l),
(197,760,l),
(206,768,l),
(215,777,l),
(225,784,l),
(238,784,l),
(247,789,l),
(252,789,l),
(265,791,l),
(276,794,l),
(290,798,l),
(305,798,l)
);
}
);
width = 378;
}
);
unicode = 102;
},
{
glyphname = g;
kernLeft = g;
kernRight = g;
lastChange = "2024-12-12 14:11:53 +0000";
layers = (
{
associatedMasterId = "764A1405-E697-4ABB-AAB9-F13AB1C32CC8";
layerId = "A7A88DC0-E7F2-46E2-8498-516E259ED036";
name = img;
width = 515;
},
{
anchors = (
{
name = bottom;
pos = (258,-270);
},
{
name = top;
pos = (278,500);
}
);
layerId = "764A1405-E697-4ABB-AAB9-F13AB1C32CC8";
shapes = (
{
closed = 1;
nodes = (
(223,420,l),
(210,414,l),
(198,398,l),
(194,383,l),
(189,372,l),
(186,360,l),
(183,348,l),
(183,337,l),
(182,323,l),
(182,311,l),
(179,299,l),
(182,283,l),
(185,265,l),
(194,249,l),
(206,237,l),
(223,231,l),
(241,224,l),
(260,220,l),
(276,218,l),
(293,221,l),
(310,230,l),
(323,239,l),
(332,252,l),
(338,265,l),
(342,277,l),
(342,292,l),
(341,306,l),
(334,320,l),
(326,336,l),
(319,348,l),
(308,361,l),
(299,374,l),
(287,386,l),
(275,395,l),
(263,403,l),
(250,411,l),
(236,417,l)
);
},
{
closed = 1;
nodes = (
(220,-35,l),
(201,-44,l),
(186,-51,l),
(175,-59,l),
(163,-67,l),
(152,-79,l),
(141,-92,l),
(132,-105,l),
(126,-119,l),
(123,-132,l),
(125,-148,l),
(135,-163,l),
(148,-172,l),
(158,-175,l),
(170,-179,l),
(185,-179,l),
(197,-182,l),
(210,-182,l),
(222,-183,l),
(233,-185,l),
(247,-186,l),
(258,-185,l),
(270,-185,l),
(284,-182,l),
(294,-182,l),
(305,-175,l),
(317,-172,l),
(328,-169,l),
(339,-164,l),
(350,-161,l),
(359,-155,l),
(369,-151,l),
(376,-136,l),
(379,-122,l),
(379,-111,l),
(377,-98,l),
(372,-88,l),
(365,-79,l),
(357,-68,l),
(350,-60,l),
(339,-51,l),
(328,-44,l),
(319,-41,l),
(308,-35,l),
(298,-33,l),
(287,-33,l),
(275,-33,l),
(260,-33,l),
(239,-32,l)
);
},
{
closed = 1;
nodes = (
(410,609,l),
(418,620,l),
(434,618,l),
(445,627,l),
(456,628,l),
(469,634,l),
(483,639,l),
(498,637,l),
(509,625,l),
(526,623,l),
(539,611,l),
(541,592,l),
(538,573,l),
(537,554,l),
(532,537,l),
(520,522,l),
(508,510,l),
(493,498,l),
(477,494,l),
(463,496,l),
(454,501,l),
(445,509,l),
(435,519,l),
(435,538,l),
(422,520,l),
(422,516,l),
(416,501,l),
(422,483,l),
(419,465,l),
(425,440,l),
(436,427,l),
(438,405,l),
(442,386,l),
(447,365,l),
(455,346,l),
(461,328,l),
(461,311,l),
(452,300,l),
(444,290,l),
(441,276,l),
(431,267,l),
(425,255,l),
(425,239,l),
(414,227,l),
(409,217,l),
(397,214,l),
(388,204,l),
(379,187,l),
(363,184,l),
(353,175,l),
(342,162,l),
(325,162,l),
(311,153,l),
(301,146,l),
(284,145,l),
(272,136,l),
(256,130,l),
(241,129,l),
(224,130,l),
(210,134,l),
(195,136,l),
(183,127,l),
(169,130,l),
(164,117,l),
(163,102,l),
(160,89,l),
(160,74,l),
(170,65,l),
(188,62,l),
(204,67,l),
(220,62,l),
(238,59,l),
(256,64,l),
(276,59,l),
(294,62,l),
(314,59,l),
(332,59,l),
(351,54,l),
(369,59,l),
(386,52,l),
(398,43,l),
(413,42,l),
(428,40,l),
(438,30,l),
(442,19,l),
(452,11,l),
(460,4,l),
(467,-5,l),
(475,-13,l),
(476,-27,l),
(491,-30,l),
(491,-42,l),
(492,-53,l),
(498,-64,l),
(500,-76,l),
(500,-86,l),
(498,-101,l),
(501,-116,l),
(492,-129,l),
(482,-145,l),
(478,-161,l),
(466,-163,l),
(460,-170,l),
(447,-173,l),
(440,-182,l),
(431,-189,l),
(420,-197,l),
(400,-198,l),
(388,-207,l),
(372,-217,l),
(359,-226,l),
(342,-230,l),
(328,-244,l),
(311,-245,l),
(294,-255,l),
(281,-253,l),
(269,-255,l),
(256,-251,l),
(247,-258,l),
(235,-260,l),
(224,-267,l),
(213,-263,l),
(203,-272,l),
(192,-273,l),
(178,-273,l),
(163,-270,l),
(150,-266,l),
(134,-267,l),
(122,-267,l),
(111,-260,l),
(95,-258,l),
(79,-260,l),
(62,-258,l),
(56,-244,l),
(42,-238,l),
(29,-227,l),
(20,-213,l),
(8,-200,l),
(7,-183,l),
(7,-169,l),
(7,-151,l),
(19,-134,l),
(27,-116,l),
(42,-102,l),
(53,-92,l),
(60,-83,l),
(66,-74,l),
(76,-67,l),
(85,-63,l),
(92,-51,l),
(100,-44,l),
(111,-38,l),
(114,-27,l),
(105,-20,l),
(89,-16,l),
(75,-14,l),
(63,-2,l),
(56,11,l),
(50,27,l),
(44,42,l),
(45,58,l),
(50,73,l),
(66,79,l),
(72,94,l),
(73,109,l),
(76,124,l),
(88,130,l),
(100,136,l),
(108,149,l),
(97,162,l),
(94,180,l),
(82,190,l),
(73,202,l),
(66,218,l),
(67,231,l),
(63,245,l),
(57,258,l),
(63,271,l),
(66,285,l),
(66,299,l),
(70,311,l),
(67,325,l),
(73,337,l),
(78,351,l),
(88,360,l),
(92,372,l),
(95,387,l),
(108,395,l),
(114,408,l),
(125,417,l),
(132,429,l),
(141,442,l),
(157,446,l),
(167,455,l),
(172,468,l),
(186,474,l),
(197,486,l),
(210,492,l),
(223,493,l),
(235,496,l),
(245,505,l),
(258,505,l),
(273,508,l),
(287,504,l),
(304,502,l),
(320,501,l),
(332,493,l),
(345,486,l),
(355,477,l),
(359,485,l),
(365,498,l),
(373,509,l),
(374,525,l),
(379,541,l),
(381,557,l),
(383,572,l),
(389,577,l),
(391,586,l),
(391,594,l),
(400,602,l)
);
}
);
width = 515;
}
);
unicode = 103;
},
{
glyphname = h;
lastChange = "2024-12-12 14:11:56 +0000";
layers = (
{
associatedMasterId = "764A1405-E697-4ABB-AAB9-F13AB1C32CC8";
layerId = "A7A88DC0-E7F2-46E2-8498-516E259ED036";
name = img;
width = 586;
},
{
anchors = (
{
name = bottom;
pos = (293,0);
},
{
name = center;
pos = (171,599);
},
{
name = top;
pos = (293,800);
}
);
layerId = "764A1405-E697-4ABB-AAB9-F13AB1C32CC8";
shapes = (
{
closed = 1;
nodes = (
(86,799,l),
(105,804,l),
(122,801,l),
(143,804,l),
(164,807,l),
(183,814,l),
(199,814,l),
(207,806,l),
(216,798,l),
(227,791,l),
(241,784,l),
(245,770,l),
(255,749,l),
(241,731,l),
(248,711,l),
(239,693,l),
(248,673,l),
(243,653,l),
(241,635,l),
(234,619,l),
(239,606,l),
(234,591,l),
(241,575,l),
(236,561,l),
(236,546,l),
(230,531,l),
(234,517,l),
(230,503,l),
(238,487,l),
(227,473,l),
(229,457,l),
(236,444,l),
(238,442,l),
(251,444,l),
(262,449,l),
(276,456,l),
(290,470,l),
(308,476,l),
(326,483,l),
(341,496,l),
(360,497,l),
(380,499,l),
(401,506,l),
(422,503,l),
(444,501,l),
(466,492,l),
(480,478,l),
(490,463,l),
(503,449,l),
(512,435,l),
(515,422,l),
(521,410,l),
(517,394,l),
(522,380,l),
(519,364,l),
(519,348,l),
(524,333,l),
(522,317,l),
(508,305,l),
(512,289,l),
(505,274,l),
(503,260,l),
(501,245,l),
(503,229,l),
(506,216,l),
(508,200,l),
(508,187,l),
(506,171,l),
(508,156,l),
(506,139,l),
(506,125,l),
(503,109,l),
(506,93,l),
(521,93,l),
(535,89,l),
(549,100,l),
(561,89,l),
(575,93,l),
(584,86,l),
(598,79,l),
(602,64,l),
(590,56,l),
(575,46,l),
(555,43,l),
(540,34,l),
(530,20,l),
(512,16,l),
(496,11,l),
(481,7,l),
(465,9,l),
(449,-3,l),
(433,-5,l),
(419,0,l),
(403,-2,l),
(389,-2,l),
(379,7,l),
(375,18,l),
(375,36,l),
(371,51,l),
(375,64,l),
(375,80,l),
(375,100,l),
(375,118,l),
(374,138,l),
(375,156,l),
(377,173,l),
(378,189,l),
(379,204,l),
(381,220,l),
(381,236,l),
(390,251,l),
(390,269,l),
(399,287,l),
(394,308,l),
(396,328,l),
(392,348,l),
(389,367,l),
(385,387,l),
(374,401,l),
(367,417,l),
(346,410,l),
(331,410,l),
(315,406,l),
(306,394,l),
(287,390,l),
(269,385,l),
(256,369,l),
(236,364,l),
(234,345,l),
(223,335,l),
(222,322,l),
(223,312,l),
(223,299,l),
(227,289,l),
(222,273,l),
(222,255,l),
(220,236,l),
(227,216,l),
(227,199,l),
(220,183,l),
(230,165,l),
(229,148,l),
(225,129,l),
(227,113,l),
(230,91,l),
(248,82,l),
(269,84,l),
(281,68,l),
(299,56,l),
(306,51,l),
(301,46,l),
(294,38,l),
(280,36,l),
(267,30,l),
(260,16,l),
(243,11,l),
(229,-2,l),
(213,-7,l),
(200,-7,l),
(185,2,l),
(164,-5,l),
(139,2,l),
(120,-5,l),
(98,-5,l),
(77,-2,l),
(58,-7,l),
(38,-3,l),
(23,11,l),
(11,20,l),
(20,36,l),
(32,48,l),
(48,58,l),
(60,68,l),
(73,75,l),
(84,89,l),
(97,98,l),
(102,105,l),
(105,116,l),
(104,127,l),
(98,139,l),
(107,153,l),
(102,167,l),
(109,180,l),
(102,190,l),
(102,202,l),
(105,213,l),
(107,227,l),
(100,239,l),
(105,253,l),
(111,265,l),
(113,278,l),
(116,290,l),
(109,303,l),
(114,317,l),
(111,331,l),
(118,343,l),
(122,358,l),
(113,372,l),
(122,387,l),
(122,399,l),
(109,412,l),
(113,428,l),
(113,444,l),
(114,461,l),
(111,481,l),
(109,503,l),
(109,524,l),
(116,544,l),
(109,565,l),
(118,584,l),
(114,600,l),
(113,610,l),
(120,628,l),
(122,649,l),
(114,672,l),
(118,691,l),
(114,707,l),
(104,714,l),
(89,722,l),
(75,714,l),
(60,718,l),
(43,720,l),
(27,720,l),
(14,727,l),
(7,738,l),
(-7,747,l),
(-5,764,l),
(7,773,l),
(16,782,l),
(30,783,l),
(38,793,l),
(51,795,l),
(66,795,l)
);
}
);
width = 586;
}
);
unicode = 104;
},
{
glyphname = dotlessi;
kernLeft = _i;
kernRight = _i;
lastChange = "2024-12-12 13:26:24 +0000";
layers = (
{
associatedMasterId = "764A1405-E697-4ABB-AAB9-F13AB1C32CC8";
layerId = "A7A88DC0-E7F2-46E2-8498-516E259ED036";
name = img;
width = 359;
},
{
anchors = (
{
name = bottom;
pos = (180,0);
},
{
name = ogonek;
pos = (271,10);
},
{
name = top;
pos = (200,500);
}
);
layerId = "764A1405-E697-4ABB-AAB9-F13AB1C32CC8";
shapes = (
{
closed = 1;
nodes = (
(221,507,l),
(235,504,l),
(245,495,l),
(256,488,l),
(261,474,l),
(264,456,l),
(259,437,l),
(261,418,l),
(258,400,l),
(259,380,l),
(256,362,l),
(256,344,l),
(256,325,l),
(256,308,l),
(256,290,l),
(258,272,l),
(254,253,l),
(254,231,l),
(252,210,l),
(254,189,l),
(251,171,l),
(252,161,l),
(252,150,l),
(251,138,l),
(258,125,l),
(261,108,l),
(266,95,l),
(276,94,l),
(290,90,l),
(306,87,l),
(322,83,l),
(340,83,l),
(355,75,l),
(369,66,l),
(371,49,l),
(355,42,l),
(340,29,l),
(320,29,l),
(308,17,l),
(299,7,l),
(285,3,l),
(273,0,l),
(258,0,l),
(244,-4,l),
(228,-2,l),
(208,1,l),
(191,1,l),
(179,0,l),
(166,-2,l),
(154,-2,l),
(142,-2,l),
(128,-2,l),
(115,1,l),
(103,-2,l),
(84,1,l),
(63,10,l),
(49,15,l),
(46,33,l),
(56,47,l),
(67,58,l),
(77,68,l),
(90,75,l),
(103,87,l),
(115,95,l),
(128,104,l),
(133,118,l),
(131,132,l),
(133,146,l),
(135,161,l),
(135,175,l),
(131,187,l),
(135,201,l),
(136,215,l),
(135,227,l),
(138,239,l),
(136,251,l),
(138,264,l),
(138,274,l),
(140,286,l),
(138,297,l),
(140,309,l),
(140,320,l),
(140,332,l),
(136,344,l),
(140,357,l),
(140,374,l),
(135,395,l),
(126,407,l),
(113,409,l),
(98,409,l),
(86,411,l),
(72,409,l),
(54,407,l),
(37,411,l),
(26,423,l),
(21,435,l),
(28,444,l),
(35,455,l),
(46,467,l),
(56,477,l),
(68,488,l),
(84,498,l),
(100,500,l),
(108,497,l),
(117,491,l),
(128,495,l),
(142,495,l),
(156,495,l),
(170,498,l),
(182,502,l),
(194,506,l),
(208,504,l)
);
}
);
width = 359;
}
);
unicode = 305;
},
{
glyphname = jdotless;
kernLeft = j;
kernRight = j;
lastChange = "2024-12-12 13:16:49 +0000";
layers = (
{
associatedMasterId = "764A1405-E697-4ABB-AAB9-F13AB1C32CC8";
layerId = "A7A88DC0-E7F2-46E2-8498-516E259ED036";
name = img;
width = 328;
},
{
anchors = (
{
name = bottom;
pos = (174,-270);
},
{
name = top;
pos = (174,500);
}
);
layerId = "764A1405-E697-4ABB-AAB9-F13AB1C32CC8";
shapes = (
{
closed = 1;
nodes = (
(196,503,l),
(208,503,l),
(223,496,l),
(238,489,l),
(250,477,l),
(258,466,l),
(257,454,l),
(258,444,l),
(250,431,l),
(252,422,l),
(253,411,l),
(261,400,l),
(260,389,l),
(257,374,l),
(257,358,l),
(257,338,l),
(253,322,l),
(253,300,l),
(252,281,l),
(257,261,l),
(261,242,l),
(252,220,l),
(258,203,l),
(257,182,l),
(252,165,l),
(253,150,l),
(258,138,l),
(258,124,l),
(260,110,l),
(257,94,l),
(260,74,l),
(258,56,l),
(252,38,l),
(252,23,l),
(260,16,l),
(258,4,l),
(253,-10,l),
(260,-24,l),
(258,-37,l),
(258,-57,l),
(253,-75,l),
(247,-96,l),
(234,-111,l),
(226,-129,l),
(212,-140,l),
(205,-152,l),
(204,-161,l),
(197,-174,l),
(183,-184,l),
(168,-190,l),
(154,-205,l),
(138,-214,l),
(120,-225,l),
(108,-231,l),
(100,-238,l),
(91,-244,l),
(78,-251,l),
(66,-252,l),
(59,-259,l),
(47,-264,l),
(35,-267,l),
(23,-267,l),
(11,-268,l),
(-2,-266,l),
(-14,-264,l),
(-26,-256,l),
(-42,-252,l),
(-56,-243,l),
(-65,-229,l),
(-71,-217,l),
(-80,-206,l),
(-77,-193,l),
(-77,-181,l),
(-77,-168,l),
(-72,-155,l),
(-64,-146,l),
(-54,-134,l),
(-50,-121,l),
(-37,-111,l),
(-23,-101,l),
(-4,-99,l),
(11,-89,l),
(26,-84,l),
(38,-87,l),
(43,-90,l),
(51,-102,l),
(63,-111,l),
(62,-128,l),
(69,-138,l),
(65,-151,l),
(68,-163,l),
(52,-181,l),
(70,-181,l),
(86,-175,l),
(93,-164,l),
(105,-155,l),
(112,-141,l),
(119,-128,l),
(119,-111,l),
(127,-96,l),
(128,-82,l),
(130,-63,l),
(138,-46,l),
(139,-29,l),
(133,-10,l),
(140,6,l),
(139,23,l),
(138,41,l),
(138,56,l),
(134,71,l),
(138,83,l),
(131,96,l),
(130,104,l),
(134,116,l),
(131,128,l),
(133,142,l),
(138,154,l),
(134,166,l),
(138,180,l),
(134,193,l),
(138,205,l),
(134,219,l),
(139,231,l),
(138,245,l),
(138,257,l),
(130,272,l),
(134,292,l),
(134,309,l),
(134,332,l),
(138,351,l),
(138,373,l),
(133,391,l),
(128,409,l),
(118,416,l),
(105,415,l),
(93,415,l),
(83,412,l),
(69,416,l),
(55,414,l),
(42,415,l),
(28,416,l),
(20,424,l),
(12,437,l),
(13,444,l),
(20,456,l),
(26,468,l),
(35,476,l),
(42,483,l),
(54,489,l),
(65,495,l),
(77,498,l),
(89,503,l),
(100,496,l),
(108,498,l),
(120,498,l),
(133,496,l),
(145,496,l),
(160,498,l),
(181,503,l)
);
}
);
width = 338;
}
);
unicode = 567;
},
{
glyphname = k;
kernLeft = k;
kernRight = k;
lastChange = "2024-12-12 13:52:36 +0000";
layers = (
{
associatedMasterId = "764A1405-E697-4ABB-AAB9-F13AB1C32CC8";
layerId = "A7A88DC0-E7F2-46E2-8498-516E259ED036";
name = img;
width = 609;
},
{
anchors = (
{
name = bottom;
pos = (305,0);
},
{
name = top;
pos = (305,800);
}
);
layerId = "764A1405-E697-4ABB-AAB9-F13AB1C32CC8";
shapes = (
{
closed = 1;
nodes = (
(148,769,l),
(153,764,l),
(161,763,l),
(173,763,l),
(181,765,l),
(188,766,l),
(196,769,l),
(204,765,l),
(210,761,l),
(217,756,l),
(224,754,l),
(229,749,l),
(231,743,l),
(232,736,l),
(230,728,l),
(230,718,l),
(230,708,l),
(233,700,l),
(233,692,l),
(234,684,l),
(236,677,l),
(238,669,l),
(239,661,l),
(236,653,l),
(236,646,l),
(237,637,l),
(236,628,l),
(233,619,l),
(231,611,l),
(231,602,l),
(231,594,l),
(234,585,l),
(235,577,l),
(236,570,l),
(234,564,l),
(230,558,l),
(229,552,l),
(232,545,l),
(231,536,l),
(230,529,l),
(232,523,l),
(235,517,l),
(235,511,l),
(232,503,l),
(232,493,l),
(233,482,l),
(226,473,l),
(223,465,l),
(227,458,l),
(229,449,l),
(226,437,l),
(226,426,l),
(225,417,l),
(223,410,l),
(221,403,l),
(219,395,l),
(220,386,l),
(224,377,l),
(224,369,l),
(225,360,l),
(223,351,l),
(221,342,l),
(219,333,l),
(223,324,l),
(222,316,l),
(220,308,l),
(221,301,l),
(223,294,l),
(227,290,l),
(231,293,l),
(234,299,l),
(238,302,l),
(246,302,l),
(253,309,l),
(257,318,l),
(258,324,l),
(265,327,l),
(274,326,l),
(278,331,l),
(279,338,l),
(284,346,l),
(291,351,l),
(297,354,l),
(303,358,l),
(307,362,l),
(310,369,l),
(313,377,l),
(319,382,l),
(326,386,l),
(331,391,l),
(335,398,l),
(339,404,l),
(345,411,l),
(349,416,l),
(347,423,l),
(338,429,l),
(329,433,l),
(322,434,l),
(316,435,l),
(310,435,l),
(303,440,l),
(303,451,l),
(306,462,l),
(310,471,l),
(317,480,l),
(323,488,l),
(330,490,l),
(338,495,l),
(349,498,l),
(359,497,l),
(370,499,l),
(380,503,l),
(390,506,l),
(401,508,l),
(409,507,l),
(416,507,l),
(423,507,l),
(430,506,l),
(437,506,l),
(445,506,l),
(453,505,l),
(459,499,l),
(466,496,l),
(473,495,l),
(481,495,l),
(488,495,l),
(495,495,l),
(503,494,l),
(511,496,l),
(520,498,l),
(529,500,l),
(539,503,l),
(547,502,l),
(554,495,l),
(562,493,l),
(571,495,l),
(578,492,l),
(579,484,l),
(579,475,l),
(572,470,l),
(564,471,l),
(559,467,l),
(557,458,l),
(553,453,l),
(545,454,l),
(536,452,l),
(531,445,l),
(529,439,l),
(522,435,l),
(512,435,l),
(505,435,l),
(495,433,l),
(487,429,l),
(480,428,l),
(473,427,l),
(466,428,l),
(460,425,l),
(454,422,l),
(449,414,l),
(441,410,l),
(435,407,l),
(428,405,l),
(422,401,l),
(415,397,l),
(412,391,l),
(407,383,l),
(401,375,l),
(393,366,l),
(386,357,l),
(379,348,l),
(375,340,l),
(372,334,l),
(364,330,l),
(359,323,l),
(359,316,l),
(358,310,l),
(353,305,l),
(356,300,l),
(362,294,l),
(367,286,l),
(369,277,l),
(374,271,l),
(381,266,l),
(387,261,l),
(393,256,l),
(400,250,l),
(408,246,l),
(415,242,l),
(420,234,l),
(426,228,l),
(430,220,l),
(435,214,l),
(443,210,l),
(450,204,l),
(454,195,l),
(458,187,l),
(464,179,l),
(469,171,l),
(473,163,l),
(478,156,l),
(485,150,l),
(493,144,l),
(500,137,l),
(505,128,l),
(507,119,l),
(513,114,l),
(521,111,l),
(528,106,l),
(533,98,l),
(539,93,l),
(546,92,l),
(553,89,l),
(562,89,l),
(570,86,l),
(577,83,l),
(585,80,l),
(593,81,l),
(601,78,l),
(605,72,l),
(611,68,l),
(618,66,l),
(625,64,l),
(630,58,l),
(632,51,l),
(627,44,l),
(622,39,l),
(615,34,l),
(610,25,l),
(603,21,l),
(593,22,l),
(587,20,l),
(582,12,l),
(577,5,l),
(572,-1,l),
(565,-6,l),
(558,-11,l),
(551,-13,l),
(544,-14,l),
(538,-14,l),
(531,-12,l),
(523,-12,l),
(515,-12,l),
(507,-14,l),
(498,-16,l),
(491,-16,l),
(485,-11,l),
(480,-6,l),
(474,-2,l),
(468,0,l),
(461,1,l),
(454,4,l),
(447,8,l),
(440,13,l),
(432,18,l),
(425,24,l),
(420,33,l),
(414,41,l),
(405,49,l),
(399,57,l),
(395,66,l),
(388,71,l),
(380,75,l),
(375,82,l),
(370,89,l),
(366,96,l),
(361,102,l),
(360,110,l),
(358,118,l),
(355,126,l),
(349,131,l),
(342,135,l),
(336,140,l),
(328,146,l),
(320,151,l),
(314,156,l),
(309,162,l),
(305,169,l),
(304,176,l),
(300,183,l),
(294,189,l),
(289,195,l),
(284,201,l),
(280,207,l),
(274,213,l),
(267,218,l),
(258,219,l),
(252,224,l),
(247,230,l),
(243,237,l),
(238,244,l),
(230,247,l),
(226,241,l),
(223,231,l),
(218,221,l),
(216,211,l),
(218,202,l),
(218,192,l),
(217,182,l),
(217,173,l),
(220,165,l),
(220,155,l),
(220,144,l),
(220,136,l),
(217,130,l),
(219,124,l),
(222,118,l),
(226,111,l),
(228,104,l),
(230,97,l),
(232,90,l),
(237,87,l),
(244,87,l),
(251,87,l),
(257,83,l),
(263,82,l),
(270,82,l),
(277,82,l),
(284,81,l),
(293,79,l),
(302,75,l),
(308,72,l),
(315,67,l),
(318,60,l),
(315,53,l),
(312,46,l),
(307,40,l),
(300,36,l),
(292,34,l),
(284,32,l),
(277,30,l),
(270,27,l),
(263,23,l),
(257,19,l),
(250,15,l),
(245,9,l),
(241,2,l),
(234,-3,l),
(225,-6,l),
(218,-7,l),
(211,-5,l),
(205,-3,l),
(198,-2,l),
(190,1,l),
(182,3,l),
(175,3,l),
(168,2,l),
(159,2,l),
(150,6,l),
(144,9,l),
(138,9,l),
(133,5,l),
(123,5,l),
(111,4,l),
(102,4,l),
(96,2,l),
(89,1,l),
(83,4,l),
(74,3,l),
(65,4,l),
(58,5,l),
(52,7,l),
(45,8,l),
(37,10,l),
(29,16,l),
(27,26,l),
(29,36,l),
(32,45,l),
(37,55,l),
(42,64,l),
(48,70,l),
(56,76,l),
(63,82,l),
(69,90,l),
(78,95,l),
(88,98,l),
(94,102,l),
(98,108,l),
(101,114,l),
(103,122,l),
(104,131,l),
(105,140,l),
(104,149,l),
(104,159,l),
(105,169,l),
(111,178,l),
(112,188,l),
(110,198,l),
(112,207,l),
(115,216,l),
(116,226,l),
(114,235,l),
(114,244,l),
(115,254,l),
(114,263,l),
(112,271,l),
(112,280,l),
(116,289,l),
(117,297,l),
(116,305,l),
(115,313,l),
(111,322,l),
(111,330,l),
(117,338,l),
(118,345,l),
(117,353,l),
(116,361,l),
(115,369,l),
(117,378,l),
(122,387,l),
(125,395,l),
(125,403,l),
(122,410,l),
(117,416,l),
(117,422,l),
(120,430,l),
(121,439,l),
(119,447,l),
(119,457,l),
(119,467,l),
(122,478,l),
(128,487,l),
(129,495,l),
(126,503,l),
(127,509,l),
(129,516,l),
(131,524,l),
(129,532,l),
(126,538,l),
(125,545,l),
(123,552,l),
(121,561,l),
(119,571,l),
(118,580,l),
(117,588,l),
(117,595,l),
(120,601,l),
(122,611,l),
(124,622,l),
(125,631,l),
(121,636,l),
(122,643,l),
(128,648,l),
(127,656,l),
(125,667,l),
(123,675,l),
(118,681,l),
(111,680,l),
(103,675,l),
(96,675,l),
(89,680,l),
(82,681,l),
(75,680,l),
(66,677,l),
(57,676,l),
(51,679,l),
(44,678,l),
(38,676,l),
(31,679,l),
(24,687,l),
(21,694,l),
(21,701,l),
(23,708,l),
(23,716,l),
(28,722,l),
(35,729,l),
(43,734,l),
(51,739,l),
(60,743,l),
(70,747,l),
(78,751,l),
(84,753,l),
(93,754,l),
(101,758,l),
(109,759,l),
(116,761,l),
(122,761,l),
(129,763,l),
(136,764,l),
(141,768,l)
);
}
);
width = 619;
}
);
unicode = 107;
},
{
glyphname = l;
kernLeft = l;
kernRight = l;
lastChange = "2024-12-12 14:12:00 +0000";
layers = (
{
associatedMasterId = "764A1405-E697-4ABB-AAB9-F13AB1C32CC8";
layerId = "A7A88DC0-E7F2-46E2-8498-516E259ED036";
name = img;
width = 343;
},
{
anchors = (
{
name = bottom;
pos = (172,0);
},
{
name = center;
pos = (181,340);
},
{
name = top;
pos = (172,800);
},
{
name = topright;
pos = (283,800);
}
);
layerId = "764A1405-E697-4ABB-AAB9-F13AB1C32CC8";
shapes = (
{
closed = 1;
nodes = (
(81,777,l),
(93,777,l),
(106,780,l),
(118,780,l),
(132,787,l),
(144,780,l),
(159,789,l),
(173,786,l),
(186,784,l),
(200,791,l),
(214,789,l),
(222,782,l),
(234,779,l),
(243,770,l),
(250,760,l),
(253,739,l),
(251,719,l),
(250,698,l),
(251,681,l),
(255,669,l),
(250,654,l),
(253,642,l),
(253,630,l),
(248,617,l),
(251,605,l),
(248,593,l),
(246,579,l),
(248,565,l),
(245,551,l),
(248,538,l),
(243,524,l),
(241,509,l),
(245,493,l),
(245,478,l),
(248,462,l),
(246,445,l),
(246,430,l),
(250,414,l),
(246,399,l),
(246,382,l),
(243,369,l),
(245,353,l),
(245,338,l),
(245,321,l),
(241,303,l),
(241,286,l),
(238,271,l),
(236,255,l),
(243,240,l),
(245,224,l),
(239,209,l),
(245,194,l),
(243,180,l),
(248,166,l),
(245,152,l),
(243,139,l),
(243,124,l),
(246,110,l),
(253,97,l),
(265,86,l),
(284,86,l),
(303,83,l),
(324,84,l),
(342,81,l),
(360,79,l),
(372,66,l),
(375,54,l),
(366,45,l),
(358,38,l),
(348,40,l),
(336,36,l),
(324,31,l),
(310,26,l),
(301,16,l),
(288,11,l),
(277,6,l),
(262,9,l),
(246,6,l),
(233,7,l),
(219,6,l),
(205,-1,l),
(190,-3,l),
(176,0,l),
(161,2,l),
(144,-1,l),
(130,0,l),
(115,6,l),
(101,2,l),
(86,7,l),
(72,7,l),
(60,12,l),
(48,16,l),
(34,16,l),
(26,28,l),
(21,43,l),
(26,60,l),
(38,69,l),
(46,79,l),
(53,91,l),
(69,100,l),
(82,102,l),
(94,103,l),
(106,103,l),
(117,105,l),
(122,115,l),
(124,126,l),
(125,139,l),
(127,149,l),
(125,159,l),
(124,171,l),
(125,182,l),
(129,194,l),
(124,206,l),
(124,221,l),
(120,238,l),
(122,255,l),
(125,269,l),
(122,281,l),
(127,291,l),
(127,303,l),
(124,315,l),
(125,327,l),
(130,338,l),
(127,350,l),
(132,362,l),
(127,374,l),
(130,387,l),
(130,400,l),
(125,412,l),
(129,426,l),
(122,436,l),
(120,448,l),
(118,462,l),
(120,479,l),
(124,495,l),
(125,512,l),
(125,526,l),
(125,536,l),
(130,548,l),
(132,560,l),
(130,572,l),
(132,584,l),
(134,598,l),
(129,611,l),
(132,623,l),
(137,636,l),
(132,648,l),
(136,661,l),
(132,676,l),
(125,695,l),
(118,703,l),
(103,705,l),
(89,703,l),
(74,707,l),
(58,709,l),
(43,707,l),
(29,714,l),
(14,721,l),
(12,736,l),
(22,750,l),
(34,759,l),
(48,766,l),
(65,770,l)
);
}
);
width = 363;
}
);
unicode = 108;
},
{
glyphname = m;
lastChange = "2024-12-12 14:12:02 +0000";
layers = (
{
associatedMasterId = "764A1405-E697-4ABB-AAB9-F13AB1C32CC8";
layerId = "A7A88DC0-E7F2-46E2-8498-516E259ED036";
name = img;
width = 805;
},
{
layerId = "764A1405-E697-4ABB-AAB9-F13AB1C32CC8";
shapes = (
{
closed = 1;
nodes = (
(170,505,l),
(184,499,l),
(201,494,l),
(213,484,l),
(217,472,l),
(219,459,l),
(224,444,l),
(230,435,l),
(236,439,l),
(245,448,l),
(257,456,l),
(268,461,l),
(279,472,l),
(296,483,l),
(315,485,l),
(335,494,l),
(352,494,l),
(362,499,l),
(373,495,l),
(384,499,l),
(396,499,l),
(405,501,l),
(416,499,l),
(428,497,l),
(440,490,l),
(456,481,l),
(468,467,l),
(478,452,l),
(483,445,l),
(492,450,l),
(509,463,l),
(525,467,l),
(536,472,l),
(547,476,l),
(555,483,l),
(570,486,l),
(590,492,l),
(611,490,l),
(631,494,l),
(647,490,l),
(659,490,l),
(669,488,l),
(682,485,l),
(700,485,l),
(714,470,l),
(725,454,l),
(731,437,l),
(736,423,l),
(736,412,l),
(738,401,l),
(740,390,l),
(740,378,l),
(742,366,l),
(734,353,l),
(734,340,l),
(734,327,l),
(736,315,l),
(734,300,l),
(736,288,l),
(736,275,l),
(734,262,l),
(731,250,l),
(729,236,l),
(731,224,l),
(729,210,l),
(731,197,l),
(729,184,l),
(731,171,l),
(733,160,l),
(731,148,l),
(733,137,l),
(734,120,l),
(742,102,l),
(755,93,l),
(770,94,l),
(783,96,l),
(797,94,l),
(811,98,l),
(822,93,l),
(833,91,l),
(844,85,l),
(849,77,l),
(844,72,l),
(831,66,l),
(822,62,l),
(813,53,l),
(802,47,l),
(789,43,l),
(781,34,l),
(772,25,l),
(761,21,l),
(750,16,l),
(740,14,l),
(729,7,l),
(715,7,l),
(700,2,l),
(684,2,l),
(665,0,l),
(649,7,l),
(632,14,l),
(619,19,l),
(613,30,l),
(605,41,l),
(607,57,l),
(611,70,l),
(609,85,l),
(613,100,l),
(611,118,l),
(611,137,l),
(607,157,l),
(611,175,l),
(614,193,l),
(614,212,l),
(615,231,l),
(617,250,l),
(614,266,l),
(613,281,l),
(614,293,l),
(619,308,l),
(617,326,l),
(614,347,l),
(613,366,l),
(613,386,l),
(600,393,l),
(590,399,l),
(576,401,l),
(557,397,l),
(539,390,l),
(519,383,l),
(503,379,l),
(494,366,l),
(491,353,l),
(491,337,l),
(492,322,l),
(491,306,l),
(491,288,l),
(491,270,l),
(489,252,l),
(483,234,l),
(491,219,l),
(491,204,l),
(494,187,l),
(494,171,l),
(492,155,l),
(492,137,l),
(491,120,l),
(498,109,l),
(507,98,l),
(519,93,l),
(539,94,l),
(553,87,l),
(563,74,l),
(574,66,l),
(565,60,l),
(555,49,l),
(541,43,l),
(532,32,l),
(518,25,l),
(507,18,l),
(492,13,l),
(476,11,l),
(463,3,l),
(447,3,l),
(431,-2,l),
(416,0,l),
(399,0,l),
(382,-6,l),
(364,-4,l),
(348,2,l),
(332,8,l),
(324,25,l),
(326,39,l),
(335,49,l),
(346,58,l),
(355,68,l),
(366,81,l),
(373,94,l),
(375,109,l),
(373,122,l),
(366,133,l),
(370,148,l),
(368,162,l),
(370,177,l),
(375,191,l),
(371,206,l),
(375,222,l),
(375,240,l),
(379,257,l),
(379,275,l),
(377,291,l),
(375,308,l),
(375,326,l),
(373,340,l),
(366,356,l),
(368,372,l),
(364,383,l),
(357,395,l),
(344,399,l),
(328,407,l),
(312,402,l),
(300,401,l),
(290,393,l),
(279,384,l),
(264,381,l),
(255,374,l),
(243,366,l),
(232,356,l),
(224,347,l),
(224,333,l),
(226,322,l),
(221,309,l),
(221,295,l),
(222,280,l),
(226,262,l),
(222,246,l),
(228,233,l),
(224,219,l),
(230,206,l),
(228,191,l),
(232,177,l),
(231,164,l),
(238,151,l),
(238,135,l),
(234,120,l),
(240,104,l),
(248,87,l),
(260,81,l),
(271,81,l),
(283,81,l),
(294,79,l),
(300,66,l),
(294,55,l),
(292,43,l),
(286,32,l),
(277,23,l),
(269,16,l),
(262,7,l),
(249,3,l),
(238,2,l),
(226,-6,l),
(211,-6,l),
(197,-11,l),
(184,-13,l),
(168,-9,l),
(154,-9,l),
(140,-4,l),
(126,-2,l),
(113,-2,l),
(101,-2,l),
(90,-4,l),
(75,0,l),
(56,7,l),
(54,21,l),
(56,36,l),
(69,47,l),
(77,55,l),
(90,60,l),
(96,70,l),
(109,76,l),
(112,87,l),
(117,96,l),
(115,109,l),
(115,123,l),
(115,142,l),
(112,159,l),
(113,175,l),
(115,191,l),
(115,208,l),
(113,227,l),
(115,245,l),
(112,262,l),
(109,280,l),
(103,299,l),
(109,317,l),
(110,327,l),
(110,342,l),
(105,356,l),
(107,370,l),
(112,383,l),
(107,401,l),
(92,411,l),
(79,416,l),
(63,412,l),
(49,411,l),
(35,404,l),
(26,412,l),
(15,418,l),
(11,431,l),
(16,445,l),
(27,463,l),
(43,474,l),
(60,485,l),
(72,492,l),
(82,499,l),
(94,499,l),
(109,499,l),
(120,495,l),
(135,503,l),
(144,505,l),
(155,505,l)
);
}
);
width = 815;
}
);
unicode = 109;
},
{
glyphname = n;
kernLeft = n;
kernRight = n;
lastChange = "2024-12-12 13:47:28 +0000";
layers = (
{
associatedMasterId = "764A1405-E697-4ABB-AAB9-F13AB1C32CC8";
layerId = "A7A88DC0-E7F2-46E2-8498-516E259ED036";
name = img;
width = 562;
},
{
anchors = (
{
name = bottom;
pos = (291,0);
},
{
name = top;
pos = (291,500);
}
);
layerId = "764A1405-E697-4ABB-AAB9-F13AB1C32CC8";
shapes = (
{
closed = 1;
nodes = (
(160,504,l),
(173,501,l),
(188,508,l),
(202,504,l),
(215,501,l),
(227,495,l),
(239,481,l),
(243,465,l),
(244,451,l),
(241,439,l),
(244,427,l),
(256,424,l),
(269,430,l),
(281,439,l),
(293,449,l),
(307,458,l),
(321,463,l),
(333,473,l),
(347,481,l),
(359,484,l),
(369,491,l),
(382,491,l),
(393,493,l),
(403,496,l),
(413,491,l),
(425,491,l),
(435,490,l),
(450,483,l),
(467,470,l),
(482,458,l),
(494,442,l),
(501,425,l),
(508,411,l),
(508,400,l),
(512,388,l),
(506,376,l),
(514,363,l),
(516,341,l),
(512,324,l),
(514,309,l),
(514,295,l),
(516,282,l),
(511,272,l),
(511,259,l),
(509,247,l),
(509,234,l),
(504,221,l),
(508,207,l),
(506,195,l),
(502,182,l),
(499,169,l),
(506,157,l),
(506,143,l),
(504,130,l),
(504,120,l),
(509,107,l),
(509,100,l),
(511,102,l),
(526,106,l),
(539,109,l),
(551,117,l),
(565,112,l),
(583,106,l),
(583,91,l),
(573,77,l),
(565,62,l),
(551,54,l),
(536,42,l),
(522,32,l),
(506,24,l),
(490,19,l),
(475,10,l),
(467,-2,l),
(451,-7,l),
(440,-18,l),
(425,-21,l),
(409,-16,l),
(394,-10,l),
(384,0,l),
(379,14,l),
(386,24,l),
(392,36,l),
(391,49,l),
(392,62,l),
(390,74,l),
(390,87,l),
(391,100,l),
(390,112,l),
(388,124,l),
(388,137,l),
(388,150,l),
(392,163,l),
(385,175,l),
(390,186,l),
(394,199,l),
(394,212,l),
(396,227,l),
(396,239,l),
(394,252,l),
(397,265,l),
(394,277,l),
(396,288,l),
(394,299,l),
(398,311,l),
(398,324,l),
(396,338,l),
(394,354,l),
(387,366,l),
(386,380,l),
(373,390,l),
(359,397,l),
(347,397,l),
(337,394,l),
(325,394,l),
(312,382,l),
(297,370,l),
(283,359,l),
(268,353,l),
(254,345,l),
(241,334,l),
(236,323,l),
(231,309,l),
(231,292,l),
(229,272,l),
(231,255,l),
(232,238,l),
(231,218,l),
(232,201,l),
(232,186,l),
(232,170,l),
(231,154,l),
(229,138,l),
(234,123,l),
(234,111,l),
(239,99,l),
(246,91,l),
(256,83,l),
(268,83,l),
(278,79,l),
(290,78,l),
(303,74,l),
(320,62,l),
(328,55,l),
(320,45,l),
(303,37,l),
(288,33,l),
(273,24,l),
(259,15,l),
(248,7,l),
(234,-2,l),
(217,-4,l),
(200,-4,l),
(186,-2,l),
(170,-7,l),
(156,-5,l),
(141,-4,l),
(127,-5,l),
(111,-7,l),
(95,-5,l),
(80,0,l),
(63,2,l),
(48,7,l),
(38,17,l),
(30,28,l),
(35,38,l),
(45,47,l),
(52,57,l),
(63,66,l),
(73,74,l),
(83,81,l),
(95,88,l),
(106,96,l),
(111,106,l),
(113,116,l),
(114,128,l),
(113,140,l),
(114,152,l),
(114,165,l),
(116,175,l),
(116,187,l),
(118,199,l),
(118,211,l),
(114,224,l),
(116,236,l),
(114,248,l),
(114,260,l),
(114,272,l),
(114,284,l),
(113,299,l),
(114,311,l),
(114,323,l),
(114,334,l),
(118,353,l),
(118,371,l),
(120,390,l),
(120,407,l),
(107,417,l),
(95,418,l),
(78,418,l),
(58,420,l),
(41,427,l),
(28,430,l),
(21,439,l),
(21,451,l),
(28,463,l),
(41,481,l),
(56,482,l),
(65,482,l),
(77,493,l),
(95,494,l),
(113,494,l),
(129,498,l),
(144,506,l)
);
}
);
width = 582;
}
);
unicode = 110;
},
{
glyphname = o;
kernLeft = _o;
kernRight = _o;
lastChange = "2024-12-12 14:12:06 +0000";
layers = (
{
associatedMasterId = "764A1405-E697-4ABB-AAB9-F13AB1C32CC8";
layerId = "A7A88DC0-E7F2-46E2-8498-516E259ED036";
name = img;
width = 515;
},
{
anchors = (
{
name = bottom;
pos = (268,0);
},
{
name = center;
pos = (268,250);
},
{
name = ogonek;
pos = (304,10);
},
{
name = top;
pos = (288,500);
},
{
name = topright;
pos = (505,500);
}
);
layerId = "764A1405-E697-4ABB-AAB9-F13AB1C32CC8";
shapes = (
{
closed = 1;
nodes = (
(200,409,l),
(193,395,l),
(186,382,l),
(180,365,l),
(178,349,l),
(175,331,l),
(168,316,l),
(169,297,l),
(169,283,l),
(169,267,l),
(169,251,l),
(175,235,l),
(176,220,l),
(186,206,l),
(193,193,l),
(198,179,l),
(207,166,l),
(215,156,l),
(225,147,l),
(235,138,l),
(245,131,l),
(260,127,l),
(275,120,l),
(295,113,l),
(315,109,l),
(337,113,l),
(349,124,l),
(361,134,l),
(367,151,l),
(371,166,l),
(371,185,l),
(374,203,l),
(374,222,l),
(374,240,l),
(372,260,l),
(367,278,l),
(367,294,l),
(361,305,l),
(356,316,l),
(352,329,l),
(347,342,l),
(342,353,l),
(337,363,l),
(329,374,l),
(319,387,l),
(306,401,l),
(290,410,l),
(275,414,l),
(263,414,l),
(250,414,l),
(238,417,l),
(225,415,l),
(213,415,l)
);
},
{
closed = 1;
nodes = (
(284,514,l),
(297,513,l),
(309,509,l),
(324,509,l),
(344,509,l),
(364,503,l),
(381,494,l),
(397,484,l),
(409,471,l),
(422,459,l),
(432,444,l),
(444,432,l),
(452,414,l),
(464,397,l),
(471,378,l),
(474,356,l),
(486,338,l),
(489,316,l),
(497,297,l),
(497,278,l),
(501,260,l),
(503,240,l),
(503,218,l),
(508,199,l),
(503,183,l),
(503,165,l),
(494,153,l),
(488,138,l),
(477,126,l),
(467,111,l),
(452,99,l),
(434,85,l),
(422,71,l),
(407,56,l),
(391,41,l),
(376,28,l),
(356,21,l),
(344,4,l),
(326,-3,l),
(309,-6,l),
(297,-18,l),
(282,-21,l),
(268,-21,l),
(255,-16,l),
(243,-12,l),
(228,-6,l),
(218,2,l),
(211,13,l),
(198,19,l),
(186,24,l),
(173,31,l),
(161,33,l),
(147,40,l),
(135,48,l),
(123,63,l),
(106,76,l),
(98,88,l),
(90,101,l),
(84,113,l),
(81,127,l),
(71,138,l),
(68,153,l),
(63,165,l),
(56,178,l),
(50,188,l),
(46,201,l),
(43,212,l),
(41,226,l),
(44,244,l),
(46,265,l),
(58,283,l),
(56,305,l),
(61,322,l),
(66,342,l),
(64,356,l),
(75,365,l),
(78,380,l),
(88,389,l),
(93,399,l),
(102,407,l),
(111,415,l),
(118,422,l),
(127,432,l),
(138,437,l),
(143,447,l),
(155,453,l),
(166,462,l),
(178,466,l),
(188,474,l),
(198,484,l),
(213,496,l),
(232,503,l),
(252,513,l),
(270,518,l)
);
}
);
width = 535;
}
);
unicode = 111;
},
{
glyphname = oslash;
kernLeft = _o;
kernRight = _o;
lastChange = "2024-12-12 13:26:52 +0000";
layers = (
{
associatedMasterId = "764A1405-E697-4ABB-AAB9-F13AB1C32CC8";
layerId = "A7A88DC0-E7F2-46E2-8498-516E259ED036";
name = img;
width = 542;
},
{
layerId = "764A1405-E697-4ABB-AAB9-F13AB1C32CC8";
shapes = (
{
closed = 1;
nodes = (
(340,329,l),
(327,314,l),
(313,300,l),
(300,284,l),
(288,268,l),
(276,252,l),
(265,234,l),
(254,218,l),
(241,201,l),
(228,183,l),
(214,167,l),
(196,151,l),
(207,138,l),
(217,126,l),
(229,115,l),
(245,106,l),
(262,100,l),
(280,96,l),
(297,96,l),
(315,100,l),
(332,108,l),
(349,120,l),
(363,133,l),
(374,149,l),
(384,166,l),
(392,183,l),
(401,203,l),
(405,222,l),
(409,242,l),
(409,262,l),
(406,281,l),
(400,300,l),
(390,316,l),
(379,329,l),
(366,339,l),
(354,351,l)
);
},
{
closed = 1;
nodes = (
(208,395,l),
(194,389,l),
(181,378,l),
(172,366,l),
(167,353,l),
(161,339,l),
(157,324,l),
(153,308,l),
(148,293,l),
(145,278,l),
(145,263,l),
(145,249,l),
(143,233,l),
(145,221,l),
(151,209,l),
(160,195,l),
(172,206,l),
(187,218,l),
(198,232,l),
(209,249,l),
(220,265,l),
(230,281,l),
(240,296,l),
(249,312,l),
(257,321,l),
(265,330,l),
(272,339,l),
(279,348,l),
(288,356,l),
(295,365,l),
(303,373,l),
(312,384,l),
(304,388,l),
(288,393,l),
(267,397,l),
(245,399,l),
(225,399,l)
);
},
{
closed = 1;
nodes = (
(494,601,l),
(505,592,l),
(512,579,l),
(510,564,l),
(502,549,l),
(497,530,l),
(483,515,l),
(471,501,l),
(460,487,l),
(449,472,l),
(436,457,l),
(450,445,l),
(460,432,l),
(470,420,l),
(480,408,l),
(489,394,l),
(500,381,l),
(507,367,l),
(511,352,l),
(514,339,l),
(512,325,l),
(512,305,l),
(513,283,l),
(506,264,l),
(504,243,l),
(497,224,l),
(488,205,l),
(478,187,l),
(465,172,l),
(453,156,l),
(439,141,l),
(425,126,l),
(409,114,l),
(393,102,l),
(377,93,l),
(361,81,l),
(347,69,l),
(339,58,l),
(328,46,l),
(314,31,l),
(299,19,l),
(287,10,l),
(276,7,l),
(267,-1,l),
(255,-7,l),
(237,-11,l),
(217,-8,l),
(196,-3,l),
(179,5,l),
(161,14,l),
(146,20,l),
(132,22,l),
(122,32,l),
(110,16,l),
(99,7,l),
(91,-4,l),
(82,-16,l),
(70,-23,l),
(59,-32,l),
(46,-35,l),
(33,-34,l),
(24,-27,l),
(19,-17,l),
(19,-5,l),
(23,7,l),
(28,19,l),
(33,31,l),
(41,41,l),
(48,51,l),
(63,67,l),
(61,75,l),
(57,84,l),
(57,100,l),
(52,115,l),
(49,130,l),
(47,145,l),
(43,159,l),
(39,175,l),
(35,189,l),
(34,205,l),
(37,221,l),
(40,242,l),
(47,263,l),
(51,282,l),
(61,298,l),
(65,316,l),
(72,332,l),
(77,348,l),
(83,361,l),
(95,373,l),
(107,383,l),
(114,399,l),
(125,410,l),
(131,424,l),
(142,435,l),
(154,447,l),
(165,457,l),
(178,468,l),
(190,480,l),
(203,486,l),
(210,495,l),
(222,495,l),
(233,498,l),
(245,499,l),
(258,498,l),
(276,500,l),
(291,505,l),
(304,507,l),
(319,506,l),
(336,501,l),
(353,492,l),
(369,487,l),
(380,483,l),
(399,500,l),
(412,513,l),
(417,525,l),
(420,537,l),
(429,547,l),
(435,560,l),
(444,572,l),
(458,581,l),
(468,596,l),
(482,601,l)
);
}
);
width = 542;
}
);
unicode = 248;
},
{
glyphname = oe;
lastChange = "2024-12-12 12:51:51 +0000";
layers = (
{
associatedMasterId = "764A1405-E697-4ABB-AAB9-F13AB1C32CC8";
layerId = "A7A88DC0-E7F2-46E2-8498-516E259ED036";
name = img;
width = 802;
},
{
anchors = (
{
name = bottom;
pos = (401,0);
},
{
name = top;
pos = (401,500);
}
);
layerId = "764A1405-E697-4ABB-AAB9-F13AB1C32CC8";
shapes = (
{
closed = 1;
nodes = (
(560,417,l),
(548,409,l),
(538,397,l),
(527,384,l),
(519,368,l),
(512,354,l),
(514,341,l),
(530,336,l),
(545,334,l),
(560,332,l),
(575,332,l),
(590,332,l),
(605,333,l),
(620,333,l),
(638,333,l),
(655,334,l),
(670,338,l),
(677,348,l),
(672,362,l),
(663,377,l),
(653,390,l),
(642,401,l),
(629,409,l),
(612,415,l),
(592,421,l),
(574,422,l)
);
},
{
closed = 1;
nodes = (
(243,387,l),
(228,384,l),
(209,385,l),
(192,384,l),
(177,380,l),
(164,369,l),
(153,354,l),
(143,338,l),
(136,322,l),
(131,308,l),
(130,296,l),
(130,284,l),
(129,271,l),
(130,259,l),
(129,247,l),
(129,235,l),
(131,223,l),
(135,209,l),
(142,195,l),
(147,181,l),
(154,169,l),
(162,158,l),
(173,147,l),
(183,139,l),
(196,131,l),
(210,121,l),
(227,114,l),
(245,107,l),
(263,107,l),
(276,111,l),
(287,115,l),
(298,121,l),
(309,127,l),
(325,139,l),
(341,153,l),
(358,167,l),
(369,182,l),
(378,199,l),
(382,215,l),
(386,233,l),
(385,251,l),
(383,269,l),
(380,286,l),
(380,302,l),
(377,316,l),
(375,330,l),
(366,341,l),
(361,354,l),
(350,362,l),
(337,371,l),
(323,378,l),
(307,385,l),
(290,389,l),
(270,390,l),
(254,390,l)
);
},
{
closed = 1;
nodes = (
(626,517,l),
(638,511,l),
(652,513,l),
(665,511,l),
(677,510,l),
(688,506,l),
(698,501,l),
(708,495,l),
(723,484,l),
(734,469,l),
(741,457,l),
(754,447,l),
(757,433,l),
(764,422,l),
(767,407,l),
(771,393,l),
(774,379,l),
(781,367,l),
(784,353,l),
(782,339,l),
(777,327,l),
(775,316,l),
(770,305,l),
(761,295,l),
(752,286,l),
(745,276,l),
(734,268,l),
(722,258,l),
(709,247,l),
(696,242,l),
(682,240,l),
(667,239,l),
(650,242,l),
(635,239,l),
(619,241,l),
(604,241,l),
(587,236,l),
(571,242,l),
(555,244,l),
(541,239,l),
(528,240,l),
(515,241,l),
(503,240,l),
(501,229,l),
(497,216,l),
(503,204,l),
(505,188,l),
(511,170,l),
(515,151,l),
(521,137,l),
(534,128,l),
(546,117,l),
(562,106,l),
(579,99,l),
(598,91,l),
(618,90,l),
(636,93,l),
(651,103,l),
(665,109,l),
(679,117,l),
(689,127,l),
(700,142,l),
(708,157,l),
(721,169,l),
(735,173,l),
(744,163,l),
(750,153,l),
(748,141,l),
(741,131,l),
(733,122,l),
(727,110,l),
(725,99,l),
(716,89,l),
(712,79,l),
(703,70,l),
(695,60,l),
(687,49,l),
(681,37,l),
(670,28,l),
(655,17,l),
(642,6,l),
(625,-1,l),
(607,-5,l),
(589,-6,l),
(572,-5,l),
(557,-5,l),
(543,-4,l),
(530,-4,l),
(518,-1,l),
(505,-2,l),
(492,5,l),
(481,10,l),
(468,14,l),
(460,25,l),
(449,33,l),
(438,44,l),
(428,54,l),
(419,68,l),
(411,85,l),
(407,104,l),
(403,124,l),
(395,136,l),
(390,134,l),
(385,124,l),
(383,113,l),
(372,103,l),
(373,88,l),
(363,81,l),
(354,69,l),
(342,61,l),
(329,55,l),
(320,48,l),
(312,38,l),
(304,31,l),
(294,24,l),
(282,19,l),
(269,13,l),
(254,9,l),
(240,5,l),
(227,-1,l),
(212,1,l),
(197,5,l),
(182,8,l),
(171,15,l),
(158,16,l),
(147,21,l),
(138,31,l),
(123,39,l),
(109,52,l),
(92,61,l),
(81,75,l),
(68,88,l),
(55,103,l),
(50,121,l),
(45,136,l),
(38,149,l),
(39,160,l),
(39,172,l),
(40,185,l),
(35,199,l),
(34,215,l),
(34,232,l),
(35,248,l),
(39,265,l),
(38,283,l),
(45,299,l),
(49,314,l),
(54,325,l),
(60,336,l),
(66,348,l),
(75,358,l),
(83,370,l),
(91,384,l),
(101,395,l),
(111,407,l),
(124,416,l),
(134,428,l),
(141,442,l),
(154,450,l),
(159,462,l),
(170,469,l),
(182,473,l),
(190,483,l),
(202,486,l),
(216,483,l),
(232,485,l),
(251,486,l),
(269,484,l),
(286,492,l),
(304,493,l),
(321,489,l),
(340,487,l),
(357,485,l),
(371,482,l),
(378,470,l),
(391,461,l),
(410,455,l),
(424,444,l),
(433,432,l),
(444,421,l),
(456,412,l),
(466,407,l),
(478,417,l),
(490,432,l),
(500,449,l),
(516,461,l),
(527,477,l),
(543,488,l),
(559,499,l),
(575,507,l),
(593,515,l),
(611,517,l)
);
}
);
width = 802;
}
);
unicode = 339;
},
{
glyphname = p;
lastChange = "2024-12-12 13:51:58 +0000";
layers = (
{
associatedMasterId = "764A1405-E697-4ABB-AAB9-F13AB1C32CC8";
layerId = "A7A88DC0-E7F2-46E2-8498-516E259ED036";
name = img;
width = 594;
},
{
layerId = "764A1405-E697-4ABB-AAB9-F13AB1C32CC8";
shapes = (
{
closed = 1;
nodes = (
(297,407,l),
(288,400,l),
(274,391,l),
(266,384,l),
(257,376,l),
(250,368,l),
(245,358,l),
(237,348,l),
(234,337,l),
(229,323,l),
(227,312,l),
(222,300,l),
(221,286,l),
(221,270,l),
(221,256,l),
(222,240,l),
(222,229,l),
(222,212,l),
(221,199,l),
(221,185,l),
(226,174,l),
(234,162,l),
(244,151,l),
(253,143,l),
(268,135,l),
(282,130,l),
(299,126,l),
(311,118,l),
(326,111,l),
(344,105,l),
(361,98,l),
(375,98,l),
(389,100,l),
(399,103,l),
(410,103,l),
(422,108,l),
(430,118,l),
(440,130,l),
(447,146,l),
(451,162,l),
(454,179,l),
(457,194,l),
(459,211,l),
(460,231,l),
(457,250,l),
(455,267,l),
(454,284,l),
(447,298,l),
(442,309,l),
(432,325,l),
(424,345,l),
(411,361,l),
(398,376,l),
(379,388,l),
(361,397,l),
(346,404,l),
(334,406,l),
(322,407,l),
(307,409,l)
);
},
{
closed = 1;
nodes = (
(147,521,l),
(162,521,l),
(173,521,l),
(187,516,l),
(206,515,l),
(213,500,l),
(222,488,l),
(222,471,l),
(226,455,l),
(229,438,l),
(234,430,l),
(247,431,l),
(255,439,l),
(266,445,l),
(273,455,l),
(282,463,l),
(293,478,l),
(307,491,l),
(323,498,l),
(337,507,l),
(354,510,l),
(371,516,l),
(386,516,l),
(398,515,l),
(408,510,l),
(419,506,l),
(430,498,l),
(444,497,l),
(457,491,l),
(465,482,l),
(477,475,l),
(487,468,l),
(500,461,l),
(515,450,l),
(521,438,l),
(531,428,l),
(537,420,l),
(543,407,l),
(548,397,l),
(553,387,l),
(564,376,l),
(568,368,l),
(572,354,l),
(573,339,l),
(578,320,l),
(579,304,l),
(584,289,l),
(584,270,l),
(582,254,l),
(579,243,l),
(578,228,l),
(578,205,l),
(575,185,l),
(570,165,l),
(568,149,l),
(564,138,l),
(549,127,l),
(542,115,l),
(529,105,l),
(518,91,l),
(504,80,l),
(490,71,l),
(474,61,l),
(457,54,l),
(442,45,l),
(427,35,l),
(411,27,l),
(396,23,l),
(381,15,l),
(366,10,l),
(352,6,l),
(336,2,l),
(322,6,l),
(308,6,l),
(294,12,l),
(276,10,l),
(262,12,l),
(248,20,l),
(236,25,l),
(222,30,l),
(219,25,l),
(213,9,l),
(213,-9,l),
(210,-19,l),
(213,-32,l),
(212,-43,l),
(212,-60,l),
(212,-82,l),
(216,-102,l),
(216,-125,l),
(216,-142,l),
(219,-157,l),
(221,-171,l),
(227,-181,l),
(239,-190,l),
(257,-191,l),
(279,-194,l),
(300,-197,l),
(318,-200,l),
(332,-212,l),
(329,-222,l),
(320,-230,l),
(308,-234,l),
(297,-241,l),
(280,-252,l),
(265,-261,l),
(250,-271,l),
(234,-274,l),
(216,-276,l),
(198,-277,l),
(180,-274,l),
(162,-276,l),
(144,-274,l),
(126,-273,l),
(107,-273,l),
(91,-273,l),
(76,-273,l),
(61,-273,l),
(47,-273,l),
(30,-271,l),
(15,-264,l),
(6,-256,l),
(1,-246,l),
(6,-234,l),
(9,-224,l),
(15,-212,l),
(27,-202,l),
(36,-194,l),
(45,-188,l),
(55,-179,l),
(67,-177,l),
(81,-168,l),
(91,-166,l),
(94,-159,l),
(94,-145,l),
(91,-130,l),
(86,-117,l),
(91,-102,l),
(91,-88,l),
(93,-74,l),
(94,-59,l),
(96,-43,l),
(93,-29,l),
(97,-15,l),
(99,-1,l),
(101,17,l),
(102,30,l),
(105,47,l),
(102,61,l),
(105,77,l),
(107,93,l),
(105,109,l),
(107,126,l),
(107,141,l),
(105,158,l),
(105,174,l),
(108,190,l),
(102,202,l),
(105,218,l),
(99,233,l),
(101,247,l),
(102,257,l),
(105,270,l),
(102,283,l),
(105,294,l),
(110,304,l),
(110,315,l),
(108,326,l),
(110,341,l),
(113,356,l),
(111,376,l),
(108,400,l),
(105,421,l),
(94,430,l),
(76,433,l),
(56,431,l),
(39,433,l),
(24,439,l),
(5,443,l),
(-8,450,l),
(-11,461,l),
(-8,477,l),
(5,485,l),
(12,487,l),
(24,496,l),
(34,495,l),
(42,497,l),
(53,501,l),
(69,504,l),
(90,507,l),
(108,511,l),
(128,518,l)
);
}
);
width = 604;
}
);
unicode = 112;
},
{
glyphname = thorn;
lastChange = "2024-12-12 13:47:48 +0000";
layers = (
{
layerId = "764A1405-E697-4ABB-AAB9-F13AB1C32CC8";
shapes = (
{
closed = 1;
nodes = (
(287,407,l),
(278,400,l),
(264,391,l),
(256,384,l),
(247,376,l),
(240,368,l),
(235,358,l),
(227,348,l),
(224,337,l),
(219,323,l),
(217,312,l),
(212,300,l),
(211,286,l),
(211,270,l),
(211,256,l),
(212,240,l),
(212,229,l),
(212,212,l),
(211,199,l),
(211,185,l),
(216,174,l),
(224,162,l),
(234,151,l),
(243,143,l),
(258,135,l),
(272,130,l),
(289,126,l),
(301,118,l),
(316,111,l),
(334,105,l),
(351,98,l),
(365,98,l),
(379,100,l),
(389,103,l),
(400,103,l),
(412,108,l),
(420,118,l),
(430,130,l),
(437,146,l),
(441,162,l),
(444,179,l),
(447,194,l),
(449,211,l),
(450,231,l),
(447,250,l),
(445,267,l),
(444,284,l),
(437,298,l),
(432,309,l),
(422,325,l),
(414,345,l),
(401,361,l),
(388,376,l),
(369,388,l),
(351,397,l),
(336,404,l),
(324,406,l),
(312,407,l),
(297,409,l)
);
},
{
closed = 1;
nodes = (
(237,431,l),
(245,439,l),
(256,445,l),
(263,455,l),
(272,463,l),
(283,478,l),
(297,491,l),
(313,498,l),
(327,507,l),
(344,510,l),
(361,516,l),
(376,516,l),
(388,515,l),
(398,510,l),
(409,506,l),
(420,498,l),
(434,497,l),
(447,491,l),
(455,482,l),
(467,475,l),
(477,468,l),
(490,461,l),
(505,450,l),
(511,438,l),
(521,428,l),
(527,420,l),
(533,407,l),
(538,397,l),
(543,387,l),
(554,376,l),
(558,368,l),
(562,354,l),
(563,339,l),
(568,320,l),
(569,304,l),
(574,289,l),
(574,270,l),
(572,254,l),
(569,243,l),
(568,228,l),
(568,205,l),
(565,185,l),
(560,165,l),
(558,149,l),
(554,138,l),
(539,127,l),
(532,115,l),
(519,105,l),
(508,91,l),
(494,80,l),
(480,71,l),
(464,61,l),
(447,54,l),
(432,45,l),
(417,35,l),
(401,27,l),
(386,23,l),
(371,15,l),
(356,10,l),
(342,6,l),
(326,2,l),
(312,6,l),
(298,6,l),
(284,12,l),
(266,10,l),
(252,12,l),
(238,20,l),
(226,25,l),
(212,30,l),
(209,25,l),
(203,9,l),
(203,-9,l),
(200,-19,l),
(203,-32,l),
(202,-43,l),
(202,-60,l),
(202,-82,l),
(206,-102,l),
(206,-125,l),
(206,-142,l),
(209,-157,l),
(211,-171,l),
(217,-181,l),
(229,-190,l),
(247,-191,l),
(269,-194,l),
(290,-197,l),
(308,-200,l),
(322,-212,l),
(319,-222,l),
(310,-230,l),
(298,-234,l),
(287,-241,l),
(270,-252,l),
(255,-261,l),
(240,-271,l),
(224,-274,l),
(206,-276,l),
(188,-277,l),
(170,-274,l),
(152,-276,l),
(134,-274,l),
(116,-273,l),
(97,-273,l),
(81,-273,l),
(66,-273,l),
(51,-273,l),
(37,-273,l),
(20,-271,l),
(5,-264,l),
(-4,-256,l),
(-9,-246,l),
(-4,-234,l),
(-1,-224,l),
(5,-212,l),
(17,-202,l),
(26,-194,l),
(35,-188,l),
(45,-179,l),
(57,-177,l),
(71,-168,l),
(81,-166,l),
(84,-159,l),
(84,-145,l),
(81,-130,l),
(76,-117,l),
(81,-102,l),
(81,-88,l),
(83,-74,l),
(84,-59,l),
(86,-43,l),
(83,-29,l),
(87,-15,l),
(89,-1,l),
(91,17,l),
(92,30,l),
(95,47,l),
(92,61,l),
(95,77,l),
(97,93,l),
(95,109,l),
(97,126,l),
(97,141,l),
(95,158,l),
(95,174,l),
(98,190,l),
(92,202,l),
(95,218,l),
(89,233,l),
(91,247,l),
(92,257,l),
(95,270,l),
(92,283,l),
(95,294,l),
(100,304,l),
(100,315,l),
(98,326,l),
(100,341,l),
(103,356,l),
(101,376,l),
(98,400,l),
(95,421,l),
(97,433,l),
(97,448,l),
(94,463,l),
(95,477,l),
(100,491,l),
(97,505,l),
(102,520,l),
(97,535,l),
(100,551,l),
(100,567,l),
(95,581,l),
(99,599,l),
(92,611,l),
(90,625,l),
(88,643,l),
(90,663,l),
(94,683,l),
(95,700,l),
(84,709,l),
(66,712,l),
(46,710,l),
(29,712,l),
(14,718,l),
(-5,722,l),
(-18,729,l),
(-21,740,l),
(-18,756,l),
(-5,764,l),
(2,766,l),
(14,775,l),
(24,774,l),
(32,776,l),
(43,780,l),
(59,783,l),
(80,786,l),
(98,790,l),
(118,797,l),
(137,800,l),
(152,800,l),
(163,800,l),
(177,795,l),
(196,794,l),
(203,779,l),
(212,767,l),
(212,750,l),
(216,734,l),
(219,717,l),
(224,709,l),
(220,694,l),
(220,674,l),
(217,658,l),
(219,639,l),
(219,620,l),
(219,600,l),
(215,578,l),
(215,558,l),
(212,540,l),
(210,520,l),
(217,502,l),
(219,483,l),
(213,465,l),
(219,447,l),
(217,430,l)
);
}
);
width = 600;
}
);
unicode = 254;
},
{
glyphname = q;
lastChange = "2024-12-12 14:12:09 +0000";
layers = (
{
associatedMasterId = "764A1405-E697-4ABB-AAB9-F13AB1C32CC8";
layerId = "A7A88DC0-E7F2-46E2-8498-516E259ED036";
name = img;
width = 547;
},
{
layerId = "764A1405-E697-4ABB-AAB9-F13AB1C32CC8";
shapes = (
{
closed = 1;
nodes = (
(264,425,l),
(249,418,l),
(234,408,l),
(223,402,l),
(217,388,l),
(208,376,l),
(200,361,l),
(193,348,l),
(185,333,l),
(180,316,l),
(177,299,l),
(174,286,l),
(169,274,l),
(167,261,l),
(164,248,l),
(164,235,l),
(164,224,l),
(167,212,l),
(169,202,l),
(172,193,l),
(175,181,l),
(179,171,l),
(183,159,l),
(188,149,l),
(195,139,l),
(202,127,l),
(212,117,l),
(226,108,l),
(240,101,l),
(252,98,l),
(262,94,l),
(273,91,l),
(285,88,l),
(298,86,l),
(310,86,l),
(320,86,l),
(335,89,l),
(352,101,l),
(362,114,l),
(367,131,l),
(370,142,l),
(370,157,l),
(370,173,l),
(372,189,l),
(372,206,l),
(370,221,l),
(370,234,l),
(368,248,l),
(367,263,l),
(367,276,l),
(365,289,l),
(363,304,l),
(362,317,l),
(363,335,l),
(365,353,l),
(367,371,l),
(367,389,l),
(362,400,l),
(355,407,l),
(345,415,l),
(326,423,l),
(310,428,l),
(300,430,l),
(288,431,l),
(279,430,l)
);
},
{
closed = 1;
nodes = (
(342,27,l),
(324,21,l),
(310,13,l),
(300,6,l),
(288,3,l),
(278,2,l),
(267,-3,l),
(255,-3,l),
(244,0,l),
(231,-2,l),
(218,-5,l),
(203,-5,l),
(192,2,l),
(179,3,l),
(167,9,l),
(154,13,l),
(145,21,l),
(131,26,l),
(122,32,l),
(113,42,l),
(107,55,l),
(98,69,l),
(89,77,l),
(78,89,l),
(71,103,l),
(64,119,l),
(60,137,l),
(55,154,l),
(50,173,l),
(48,191,l),
(50,207,l),
(51,226,l),
(50,243,l),
(51,255,l),
(58,266,l),
(66,281,l),
(69,294,l),
(69,306,l),
(73,317,l),
(79,326,l),
(79,338,l),
(84,348,l),
(90,358,l),
(95,366,l),
(102,376,l),
(105,386,l),
(112,397,l),
(123,403,l),
(131,413,l),
(138,423,l),
(153,431,l),
(167,443,l),
(182,453,l),
(197,463,l),
(212,472,l),
(228,482,l),
(244,492,l),
(260,500,l),
(277,506,l),
(293,510,l),
(306,513,l),
(322,511,l),
(335,511,l),
(347,508,l),
(357,503,l),
(368,501,l),
(380,497,l),
(390,493,l),
(402,490,l),
(414,484,l),
(425,465,l),
(432,482,l),
(442,498,l),
(453,505,l),
(467,508,l),
(479,511,l),
(491,506,l),
(501,503,l),
(506,498,l),
(518,487,l),
(515,472,l),
(507,461,l),
(506,446,l),
(500,433,l),
(496,420,l),
(492,408,l),
(489,394,l),
(484,382,l),
(484,371,l),
(482,359,l),
(484,346,l),
(484,331,l),
(486,317,l),
(486,302,l),
(484,288,l),
(486,274,l),
(487,260,l),
(487,245,l),
(487,230,l),
(487,217,l),
(484,204,l),
(487,191,l),
(484,178,l),
(484,163,l),
(479,147,l),
(479,132,l),
(473,119,l),
(475,104,l),
(472,89,l),
(470,75,l),
(467,60,l),
(465,44,l),
(465,29,l),
(462,14,l),
(463,0,l),
(462,-13,l),
(462,-26,l),
(465,-39,l),
(462,-51,l),
(462,-63,l),
(460,-75,l),
(462,-87,l),
(458,-98,l),
(458,-110,l),
(462,-121,l),
(460,-133,l),
(463,-143,l),
(467,-157,l),
(473,-168,l),
(486,-175,l),
(501,-175,l),
(514,-173,l),
(527,-177,l),
(542,-177,l),
(555,-182,l),
(568,-187,l),
(581,-188,l),
(584,-198,l),
(581,-211,l),
(572,-213,l),
(563,-221,l),
(547,-224,l),
(534,-230,l),
(524,-240,l),
(514,-248,l),
(502,-257,l),
(491,-262,l),
(479,-262,l),
(465,-260,l),
(453,-262,l),
(439,-262,l),
(425,-263,l),
(412,-267,l),
(398,-267,l),
(385,-268,l),
(373,-265,l),
(362,-263,l),
(349,-263,l),
(335,-263,l),
(326,-267,l),
(311,-268,l),
(298,-265,l),
(285,-263,l),
(272,-263,l),
(257,-255,l),
(252,-240,l),
(249,-228,l),
(254,-216,l),
(265,-200,l),
(280,-190,l),
(295,-177,l),
(306,-170,l),
(318,-170,l),
(334,-168,l),
(347,-160,l),
(347,-143,l),
(347,-126,l),
(350,-110,l),
(352,-95,l),
(350,-82,l),
(344,-69,l),
(344,-56,l),
(342,-39,l),
(349,-20,l),
(349,-5,l),
(350,6,l),
(350,18,l),
(350,27,l)
);
}
);
width = 547;
}
);
unicode = 113;
},
{
glyphname = r;
lastChange = "2024-12-12 14:12:10 +0000";
layers = (
{
associatedMasterId = "764A1405-E697-4ABB-AAB9-F13AB1C32CC8";
layerId = "A7A88DC0-E7F2-46E2-8498-516E259ED036";
name = img;
width = 500;
},
{
anchors = (
{
name = bottom;
pos = (260,0);
},
{
name = top;
pos = (270,500);
}
);
layerId = "764A1405-E697-4ABB-AAB9-F13AB1C32CC8";
shapes = (
{
closed = 1;
nodes = (
(94,490,l),
(115,497,l),
(135,502,l),
(156,500,l),
(178,503,l),
(197,504,l),
(214,502,l),
(228,494,l),
(238,472,l),
(240,460,l),
(242,450,l),
(240,438,l),
(249,434,l),
(262,438,l),
(275,448,l),
(283,458,l),
(299,465,l),
(311,477,l),
(323,482,l),
(333,486,l),
(343,489,l),
(355,494,l),
(366,499,l),
(378,499,l),
(388,503,l),
(400,506,l),
(416,506,l),
(434,499,l),
(446,491,l),
(457,484,l),
(462,474,l),
(467,463,l),
(472,453,l),
(472,439,l),
(476,427,l),
(476,415,l),
(476,403,l),
(472,391,l),
(471,379,l),
(464,369,l),
(457,360,l),
(452,352,l),
(441,346,l),
(431,338,l),
(419,336,l),
(405,336,l),
(391,334,l),
(381,340,l),
(366,346,l),
(352,360,l),
(347,376,l),
(347,391,l),
(346,405,l),
(356,425,l),
(331,419,l),
(314,415,l),
(300,407,l),
(290,395,l),
(278,388,l),
(268,382,l),
(259,374,l),
(252,365,l),
(245,353,l),
(238,334,l),
(233,321,l),
(230,307,l),
(233,293,l),
(228,281,l),
(228,266,l),
(226,254,l),
(226,238,l),
(228,224,l),
(230,207,l),
(232,188,l),
(233,171,l),
(232,161,l),
(233,149,l),
(232,137,l),
(232,125,l),
(233,113,l),
(240,100,l),
(251,90,l),
(264,85,l),
(278,85,l),
(292,82,l),
(306,78,l),
(319,78,l),
(331,71,l),
(337,61,l),
(343,51,l),
(337,44,l),
(325,40,l),
(314,31,l),
(306,21,l),
(294,18,l),
(280,14,l),
(269,8,l),
(259,1,l),
(245,-1,l),
(233,-1,l),
(223,-1,l),
(211,2,l),
(199,2,l),
(187,1,l),
(175,2,l),
(163,4,l),
(151,4,l),
(137,6,l),
(125,6,l),
(111,4,l),
(99,4,l),
(87,4,l),
(72,4,l),
(60,11,l),
(51,18,l),
(46,27,l),
(46,40,l),
(55,56,l),
(67,66,l),
(73,73,l),
(80,82,l),
(91,87,l),
(102,95,l),
(118,105,l),
(121,118,l),
(121,133,l),
(122,149,l),
(127,168,l),
(125,183,l),
(125,195,l),
(127,205,l),
(125,216,l),
(124,228,l),
(122,238,l),
(122,248,l),
(123,260,l),
(121,271,l),
(125,281,l),
(123,293,l),
(123,303,l),
(125,314,l),
(125,324,l),
(127,336,l),
(124,346,l),
(124,360,l),
(121,379,l),
(123,395,l),
(118,408,l),
(111,417,l),
(99,417,l),
(87,417,l),
(73,420,l),
(61,420,l),
(48,422,l),
(34,425,l),
(22,436,l),
(20,455,l),
(27,472,l),
(41,478,l),
(58,480,l),
(75,487,l)
);
}
);
width = 500;
}
);
unicode = 114;
},
{
glyphname = s;
lastChange = "2024-12-12 14:12:12 +0000";
layers = (
{
associatedMasterId = "764A1405-E697-4ABB-AAB9-F13AB1C32CC8";
layerId = "A7A88DC0-E7F2-46E2-8498-516E259ED036";
name = img;
width = 459;
},
{
anchors = (
{
name = bottom;
pos = (230,0);
},
{
name = top;
pos = (270,500);
}
);
layerId = "764A1405-E697-4ABB-AAB9-F13AB1C32CC8";
shapes = (
{
closed = 1;
nodes = (
(258,507,l),
(272,505,l),
(285,507,l),
(299,507,l),
(313,509,l),
(325,504,l),
(338,500,l),
(349,497,l),
(360,492,l),
(371,487,l),
(381,481,l),
(395,477,l),
(407,462,l),
(417,445,l),
(425,429,l),
(425,414,l),
(420,403,l),
(415,392,l),
(412,377,l),
(404,364,l),
(397,355,l),
(387,352,l),
(375,349,l),
(361,344,l),
(348,344,l),
(336,337,l),
(320,342,l),
(307,344,l),
(293,355,l),
(285,372,l),
(285,385,l),
(288,402,l),
(293,416,l),
(298,428,l),
(287,435,l),
(273,438,l),
(256,435,l),
(241,433,l),
(226,428,l),
(212,423,l),
(204,411,l),
(193,403,l),
(188,392,l),
(186,375,l),
(189,355,l),
(199,340,l),
(209,330,l),
(222,323,l),
(230,309,l),
(244,303,l),
(255,291,l),
(268,281,l),
(281,278,l),
(292,268,l),
(303,261,l),
(315,253,l),
(327,245,l),
(339,240,l),
(353,232,l),
(365,223,l),
(376,212,l),
(391,203,l),
(406,191,l),
(412,176,l),
(420,161,l),
(426,143,l),
(428,124,l),
(426,107,l),
(420,92,l),
(415,78,l),
(409,67,l),
(405,57,l),
(396,52,l),
(387,42,l),
(375,37,l),
(366,29,l),
(354,21,l),
(348,9,l),
(329,4,l),
(315,-3,l),
(303,-7,l),
(287,-9,l),
(268,-9,l),
(249,-12,l),
(234,-10,l),
(219,-10,l),
(201,-10,l),
(188,-7,l),
(171,-3,l),
(156,4,l),
(139,4,l),
(124,11,l),
(111,14,l),
(98,24,l),
(86,31,l),
(79,42,l),
(71,54,l),
(66,67,l),
(61,78,l),
(62,90,l),
(60,102,l),
(62,113,l),
(69,121,l),
(73,131,l),
(81,139,l),
(88,148,l),
(96,156,l),
(101,166,l),
(110,171,l),
(120,174,l),
(129,181,l),
(139,182,l),
(152,184,l),
(162,181,l),
(173,179,l),
(183,174,l),
(195,169,l),
(203,158,l),
(208,144,l),
(208,129,l),
(210,109,l),
(198,96,l),
(190,87,l),
(206,78,l),
(226,72,l),
(243,78,l),
(262,80,l),
(277,86,l),
(293,83,l),
(307,85,l),
(312,95,l),
(310,105,l),
(305,118,l),
(297,133,l),
(288,144,l),
(274,154,l),
(258,164,l),
(242,174,l),
(227,182,l),
(213,192,l),
(201,203,l),
(183,212,l),
(171,222,l),
(155,230,l),
(140,239,l),
(130,248,l),
(118,258,l),
(109,271,l),
(99,286,l),
(86,303,l),
(73,318,l),
(64,332,l),
(66,344,l),
(63,357,l),
(62,373,l),
(66,387,l),
(73,398,l),
(83,409,l),
(85,421,l),
(95,428,l),
(106,435,l),
(111,445,l),
(124,451,l),
(131,457,l),
(139,469,l),
(155,474,l),
(170,484,l),
(187,490,l),
(208,493,l),
(223,505,l),
(243,510,l)
);
}
);
width = 449;
}
);
unicode = 115;
},
